<mxfile host="app.diagrams.net" modified="2023-08-01T00:34:49.563Z" agent="Mozilla/5.0 (Windows NT 10.0; Win64; x64) AppleWebKit/537.36 (KHTML, like Gecko) Chrome/115.0.0.0 Safari/537.36" etag="fHn0dTyis7_N9y4dGww1" version="21.6.6" type="device">
  <diagram name="Página-1" id="1-3JiYa8DEb2sce9Af6y">
    <mxGraphModel dx="2100" dy="1068" grid="1" gridSize="10" guides="1" tooltips="1" connect="1" arrows="1" fold="1" page="1" pageScale="1" pageWidth="827" pageHeight="1169" math="0" shadow="0">
      <root>
        <mxCell id="0" />
        <mxCell id="1" parent="0" />
        <mxCell id="aGLz6Hzw3cK0F0K0laA9-2" value="Construa a modelagem que represente pessoas e seus dados, observando que:&#xa;&#xa;&#xa;- uma pessoa pode ter vários telefones e vários emails, porém, pode possuir somente uma CNH.&#xa;&#xa;&#xa;DQL&#xa;&#xa;&#xa;- listar as pessoas em ordem alfabética reversa, mostrando seus telefones, seus e-mails e suas CNHs" style="text;whiteSpace=wrap;align=left;fontSize=13;labelBackgroundColor=none;fillColor=#f8cecc;strokeColor=#b85450;dashed=1;gradientDirection=east;gradientColor=#FFFFFF;" parent="1" vertex="1">
          <mxGeometry x="94" y="220" width="640" height="180" as="geometry" />
        </mxCell>
        <mxCell id="aGLz6Hzw3cK0F0K0laA9-7" value="&lt;font style=&quot;font-size: 14px;&quot;&gt;&lt;font style=&quot;vertical-align: inherit;&quot;&gt;&lt;font style=&quot;vertical-align: inherit;&quot;&gt;Pessoa&lt;/font&gt;&lt;/font&gt;&lt;/font&gt;" style="rounded=0;whiteSpace=wrap;html=1;labelBackgroundColor=none;fontSize=14;fillColor=#f8cecc;strokeColor=#b85450;gradientDirection=east;gradientColor=#FFFFFF;" parent="1" vertex="1">
          <mxGeometry x="334" y="530" width="160" height="85" as="geometry" />
        </mxCell>
        <mxCell id="aGLz6Hzw3cK0F0K0laA9-8" value="Possui" style="rhombus;whiteSpace=wrap;html=1;labelBackgroundColor=none;fillColor=#f8cecc;fontSize=14;strokeColor=#b85450;gradientDirection=east;gradientColor=#FFFFFF;" parent="1" vertex="1">
          <mxGeometry x="314" y="670" width="200" height="110" as="geometry" />
        </mxCell>
        <mxCell id="aGLz6Hzw3cK0F0K0laA9-11" value="CNH" style="ellipse;whiteSpace=wrap;html=1;fillColor=#f8cecc;strokeColor=#b85450;gradientDirection=east;gradientColor=#FFFFFF;" parent="1" vertex="1">
          <mxGeometry x="530" y="552.5" width="116" height="40" as="geometry" />
        </mxCell>
        <mxCell id="aGLz6Hzw3cK0F0K0laA9-12" value="Telefone" style="rounded=0;whiteSpace=wrap;html=1;labelBackgroundColor=none;fontSize=14;fillColor=#f8cecc;strokeColor=#b85450;gradientDirection=east;gradientColor=#FFFFFF;" parent="1" vertex="1">
          <mxGeometry x="174" y="840" width="160" height="85" as="geometry" />
        </mxCell>
        <mxCell id="aGLz6Hzw3cK0F0K0laA9-13" value="&lt;font style=&quot;font-size: 14px;&quot;&gt;&lt;font style=&quot;vertical-align: inherit;&quot;&gt;&lt;font style=&quot;vertical-align: inherit;&quot;&gt;Email&lt;/font&gt;&lt;/font&gt;&lt;/font&gt;" style="rounded=0;whiteSpace=wrap;html=1;labelBackgroundColor=none;fontSize=14;fillColor=#f8cecc;strokeColor=#b85450;gradientDirection=east;gradientColor=#FFFFFF;" parent="1" vertex="1">
          <mxGeometry x="494" y="840" width="160" height="85" as="geometry" />
        </mxCell>
        <mxCell id="aGLz6Hzw3cK0F0K0laA9-14" value="" style="endArrow=none;html=1;rounded=0;entryX=0.5;entryY=0;entryDx=0;entryDy=0;exitX=0.5;exitY=1;exitDx=0;exitDy=0;" parent="1" edge="1">
          <mxGeometry width="50" height="50" relative="1" as="geometry">
            <mxPoint x="413.41" y="615" as="sourcePoint" />
            <mxPoint x="413.41" y="670" as="targetPoint" />
          </mxGeometry>
        </mxCell>
        <mxCell id="aGLz6Hzw3cK0F0K0laA9-15" value="" style="endArrow=none;html=1;rounded=0;entryX=1;entryY=0.5;entryDx=0;entryDy=0;exitX=0.5;exitY=1;exitDx=0;exitDy=0;" parent="1" source="aGLz6Hzw3cK0F0K0laA9-8" target="aGLz6Hzw3cK0F0K0laA9-12" edge="1">
          <mxGeometry width="50" height="50" relative="1" as="geometry">
            <mxPoint x="380" y="830" as="sourcePoint" />
            <mxPoint x="380" y="885" as="targetPoint" />
          </mxGeometry>
        </mxCell>
        <mxCell id="aGLz6Hzw3cK0F0K0laA9-16" value="" style="endArrow=none;html=1;rounded=0;entryX=0;entryY=0.5;entryDx=0;entryDy=0;exitX=0.5;exitY=1;exitDx=0;exitDy=0;" parent="1" source="aGLz6Hzw3cK0F0K0laA9-8" target="aGLz6Hzw3cK0F0K0laA9-13" edge="1">
          <mxGeometry width="50" height="50" relative="1" as="geometry">
            <mxPoint x="440" y="830" as="sourcePoint" />
            <mxPoint x="440" y="885" as="targetPoint" />
          </mxGeometry>
        </mxCell>
        <mxCell id="aGLz6Hzw3cK0F0K0laA9-17" value="&lt;font style=&quot;vertical-align: inherit;&quot;&gt;&lt;font style=&quot;vertical-align: inherit;&quot;&gt;1&lt;/font&gt;&lt;/font&gt;" style="text;html=1;align=center;verticalAlign=middle;resizable=0;points=[];autosize=1;strokeColor=none;fillColor=none;fontStyle=1;fontSize=14;" parent="1" vertex="1">
          <mxGeometry x="414" y="615" width="30" height="30" as="geometry" />
        </mxCell>
        <mxCell id="aGLz6Hzw3cK0F0K0laA9-18" value="&lt;font style=&quot;vertical-align: inherit;&quot;&gt;&lt;font style=&quot;vertical-align: inherit;&quot;&gt;N&lt;/font&gt;&lt;/font&gt;" style="text;html=1;align=center;verticalAlign=middle;resizable=0;points=[];autosize=1;strokeColor=none;fillColor=none;fontStyle=1;fontSize=14;" parent="1" vertex="1">
          <mxGeometry x="334" y="830" width="30" height="30" as="geometry" />
        </mxCell>
        <mxCell id="aGLz6Hzw3cK0F0K0laA9-19" value="&lt;font style=&quot;vertical-align: inherit;&quot;&gt;&lt;font style=&quot;vertical-align: inherit;&quot;&gt;N&lt;/font&gt;&lt;/font&gt;" style="text;html=1;align=center;verticalAlign=middle;resizable=0;points=[];autosize=1;strokeColor=none;fillColor=none;fontStyle=1;fontSize=14;" parent="1" vertex="1">
          <mxGeometry x="464" y="830" width="30" height="30" as="geometry" />
        </mxCell>
        <mxCell id="aGLz6Hzw3cK0F0K0laA9-20" value="" style="endArrow=none;html=1;rounded=0;entryX=0;entryY=0.5;entryDx=0;entryDy=0;exitX=1;exitY=0.5;exitDx=0;exitDy=0;" parent="1" source="aGLz6Hzw3cK0F0K0laA9-7" target="aGLz6Hzw3cK0F0K0laA9-11" edge="1">
          <mxGeometry width="50" height="50" relative="1" as="geometry">
            <mxPoint x="424" y="790" as="sourcePoint" />
            <mxPoint x="504" y="893" as="targetPoint" />
          </mxGeometry>
        </mxCell>
        <mxCell id="u9_DgnW9MWbPoVuvquEk-1" value="" style="shape=image;verticalLabelPosition=bottom;labelBackgroundColor=default;verticalAlign=top;aspect=fixed;imageAspect=0;image=data:image/png,iVBORw0KGgoAAAANSUhEUgAAAfQAAAH0CAYAAADL1t+KAADIrUlEQVR4Xu19C/xlY7n/Qi7DDCNGZqiZMRmXGiOUiFwSKpFCdycput8d+qdOF504UirdFDq6nNNQIhUqEpGSzOiEETNTzGBGBuM6Mv/nu/Z+9jy/5/e8l7Xve/+e9fn8ZvZe671+19rr+z7Xtyj8cAQcAUfAEXAEHAFHwBFwBBwBR8ARcAQcAUfAEXAEHAFHwBFwBBwBR8ARcAQcAUfAEXAEHAFHwBFwBBwBR8ARcAQcAUfAEXAEHAFHwBFwBBwBR8ARcAQcAUfAEXAEHAFHwBFwBBwBR8ARcAQcAUfAEXAEHAFHwBFwBBwBR8ARcAQcAUfAEXAEHAFHwBFwBBwBR8ARcAQcAUfAEXAEHAFHwBFwBBwBR8ARcAQcAUfAEXAEHAFHwBFwBBwBR8ARcAQcAUfAEXAEHAFHwBFwBBwBR8ARcAQcAUfAEXAEHAFHwBFwBBwBR8ARcAQcAUfAEXAEHAFHwBFwBBwBR8ARcAQcAUfAEXAEHAFHwBFwBBwBR8ARcAQcAUfAEXAEHAFHwBFwBBwBR8ARcAQcAUfAEXAEHAFHwBFwBBwBR8ARcAQcAUfAEXAEHAFHwBFwBBwBR8ARcAQcAUfAEXAEHAFHwBFwBBwBR8ARcAQcAUfAEXAEHAFHwBFwBBwBR8ARcAQcAUfAEXAEHAFHwBFwBBwBR8ARcAQcAUfAEXAEHAFHwBFwBBwBR8ARcAQcAUfAEXAEHAFHwBFwBBwBR8ARcAQcAUfAEXAEHAFHwBFwBBwBR8ARcAQcAUfAEXAEHAFHwBFwBBwBR8ARcAQcAUfAEXAEHAFHwBFwBBwBR8ARcAQcAUfAEXAEHAFHwBFwBBwBR8ARcAQcAUfAEXAEHAFHwBFwBBwBR8ARcAQcAUfAEXAEHAFHwBFwBBwBR8ARcAQcAUfAEXAEHAFHwBFwBBwBR8ARcAQcAUfAEXAEHAFHwBFwBBwBR8ARcAQcAUfAEXAEHAFHwBFwBBwBR8ARcAQcAUfAEXAEHAFHwBFwBBwBR8ARcAQcAUfAEXAEHAFHoI7AGo6EI+AIOAKtIHDFn+ZPWPWrb36M2njWNVf+dX/6f9ySxXevP3nK5ivp89Poc/meoe+P039P0d/Ds3eYsvDRB+9ff7t9D/zssul7/3KfnWcubWUMXtcRcASKwgndnwJHwBGojMBN5595yM2XX/L1K69ZMJkrE2GXH4nAQd6N//k6n9edTd9sZbH2+hsWm06dfuWkGdvMmXXYMV+rPCCv4Ag4Ak7o/gw4Ao5AHAEi78MvPPuC/yBCfo5Vkom8FRxnThtXVh+34cbFnyftecu2t1+0LT5vsPHEe9fY79iXkwT/p1ba97qOwFhAwCX0sXCXfY6OQAUESIW+4YrzTvny3HmL9yQS3yq3qiWVx+qCxOcvfLQsIgmd6xCxF89belWjCSL335IEfzZJ8P+dOyYv5wiMJQSc0MfS3fa5OgIBBIjEx//u4+//vSWFM1HHwKtK5rotJnQQPNnXy8sgdD5A7Pi+x5M3FQ/fvxyS+1+I3M8gcv+m31RHwBGoIbCmA+EIOAJjFwEi8onv3vF5/zz/6Nc+FFKpw/Ytj5iKXZeNIcskHisDIscfEbgu9tylt9/6jctP+fA/yCRw1Ni9gz5zR2A1Ai6h+9PgCIxBBOa869W/JIe2/ZqZuiZ06QTH7cVIX6rarf5ZQicv+NKmzodUwWuCv/pps04/dOoT15DEfl4zc/I6jsAwIOAS+jDcRZ+DI1ABAZJqz8klcxAz/4W6kOr2VFm0AbV6SDoHmYO4yX4/ojsmcxC5VMWjEKneoYr/AEnsc0ha/0gFKLyoIzBUCLiEPlS30yfjCIQRIPX6NFKt30wl1quCkwxH0/V0qFqVdmVZEDxL4yBs8nIvL8tz0kEO17SUDtv6g3cvQgjc0iO+9uPNmh2L13MEBhUBl9AH9c75uB2BTATmXDH3RSe9/GWriMwXVCVzdAGVuowht6R27ThXxZYupwE1O4gbRC7V7VzGktBB5MsWLShQF/HsdEyi+T5F0vrbMyHyYo7AUCDgEvpQ3EafhCNgI0C28utJvb5zJ/EJSemhRDIYC1TrUKtLyVyOka+xlK5D2FhCB5GzCl8uAEDu9fN3kbS+ZSfn7207Av2CwNP6ZSA+DkfAEWgvAuS9fg+ReSXVM8iZndKkSptSupaDs0g69xzPDiTONvJamNrGpXQNQpaOcByjjuvWATIPHWhr5rTy6hYkrc8/8ee/mNledL01R6D/EHAJvf/uiY/IEWgZASLz+6mRiTkNHXjgTg179JKb5xbX3HhfTrURZbTKPZU9jiV0qyMQ/i0zDi5V7yB4HFr9zudXk34tdl0fLOlTuQVE6tlJcioD4BUcgT5AwAm9D26CD8ERaBcC5Pi2KdnKkxudSBKH9N2szRvjluQt20mRupwzh7KxdgDXpNQOgoejnCR2OMAtuHftspmY6p6vE6nfSaT+zHZh7e04Av2GgBN6v90RH48j0CQCROZbEJnfmarOZF6VyGPe7prYU2NgAtfpX7XEzbZzkLtF6sJW3uiS28AJGdOO77S728kUq/5RPT5yoHsTnf9eatx+3RHoZwTcy72f746PzRHIRIAI6Q0pMgchv+b1+5b26x/9z+XZUjl7tUtv95z49NjQ2ZFNkq/8zCp1HarGbXIsOiT23ffaviR7yyuey/M12iHuBGtc3zjp61+h+PzvZMLtxRyBvkTAJfS+vC0+KEcgH4GUZA7yBelVlch5BFXt41wv5uUuZxfLHKd2YRuldmcJnvO8o112lgOJ6wQ19X7/Sar3TeQYfnrC0ZdecskN+3z1xj+vk4+8l3QE+gsBJ/T+uh8+GkegMgLkALcqVAkSebNEbrXZLLnrtlLpX7m8dJDDOamCr2+12sj1jnh0HNJhTtrkuU22zb/y5LMa7z9aFG1FGo7bidD9nVj5CfQK/YKAP7z9cid8HI5AEwgQmcNmvoVVFbZykjqbaNWuYu26ltqopYpjnCRxueuaHo3O8W5dx7mIhF5WwWKBYtQb70AsjJzQ2/a4eEM9QMBt6D0A3bt0BNqBAMVXIzi8K2SO8YbizUNzaYbMZVtaXc6StywDiV3ndgeRr3zkwYakHsOaJPNXtuNeeBuOQD8g4ITeD3fBx+AINIEAEex2VrW9dp8esh1n92KRsTynQ9WaDXuzNmlh5zhOQAMiB7mHnOYsx7l6CtjkfFecd0otabwfjsAQIOCZ4obgJvoUxh4CJJ0vtUgUZA7ia5ZgGclUPLmW1q3+Uk5xuXb0MsnMhrUkM5DG15z3w1JdLlPHajU8pHTEqc+cVuZ2H5GFbmRSmkeLxYsXb3XrkhVTsSf82HuSfMbDhIDb0IfpbvpcxgQCpCbeicjnT3qysJmD5FolcwtEaT+3bOmoY5WRW6vGbk4uucv4dU4Vy+3K1LEg/hk3fa/crEWWk6FtrNKnCICV5FC3bPzhxx+1zeTxv6X2HpsyZUrQ0XBMPGQ+yYFEwAl9IG+bD3qsIkDx5q+imOkLLDJvpwMct59D3prM+XvOPQolluG6muhlGBsTslTbhzLJWWOBBzxL65Tznhckj1DZlTTvh+n60p3f95nnObnn3Ekv0w8IOKH3w13wMTgCmQiQJ/bdVPQZsvjuO25SpkBtt2QeInOLwCWJp1TtzUrqUjq3pHKck6p3EP70zVaW2MQWAmybR6z+Pv/++fFo5jc33PZKsq9/nhZJU0jzcRuFuO2YeYu8mCPQMwSc0HsGvXfsCFRDgKTzPUg6v0rXand4WpVRtSOPu+wvpHrX5zm+nKV0K95ctis95FkFDyIH4UsHujq5L3rRZ770IVK/X0ttPHjLd0+7eN/jT9unCi5e1hHoBQJO6L1A3ft0BJpA4NOnfecz93z3SyfKqqn86k10M6pKyH4eSjKjHepyJXZJ2lIdruPJQxuxYOA69zs84EtHul//cNS8WGqX3vNcCNf2OPGMafT9blK5P94OHL0NR6DTCDihdxphb98RaBMCVkY4ZIJDXvZOHqFFgw5tC3nG5xK6NQe5zaplT7e2T2VpnDdz4XYRmw5pXIbFyT71efq+kiT1I/bZeeZPOomvt+0ItAsBj0NvF5LejiPQQQRI3X6wbh4hakjr2sxRJekLb8qS0w9v2oKy7bDpy+QyOnuclqxlghneTx3SPTvKwZauN4PBd1y3ztMU1v7dx99/AWH/3xTa5jnecx4AL9NTBJzQewq/d+4I5CGw8PrrTtMlN506vSnSjDm7hUaDOu975/ML2OutpDJSCmcibyb5jJVoRp/Dd/xBeuc/ED+r1ZnMOW5dzkm2xXVZomc7PJfh/y88+4Ij77vm4ouI1NfLu1teyhHoDQKeWKY3uHuvjkAlBMjbeoasALJsRjqvSuYo/6H3H1rcTilXvnzS17PGrKV/Tewx7YCWurWanfc/x0BmTqsNBwS+ZlFLNoNj29svKh6l/9EWEtLIg7dtleFttc+PjkoViwXTplOLEmci9QOKsy9YQAUnZ4HghRyBHiDghN4D0L1LR6AJBEb4uxx+yDOLL3/9j5WaqULmKHvIWw8ttp05tbjkB3PauslLlUEbdu2SuHGeyVk6vEkVPWeTQ39PveS1RUFLIk4TqzPLSalcLyp461lqZnPaM/2v5PG+fZU5eFlHoFsIuMq9W0h7P45AkwhQZrgNdNW7lk/Ibg3kDFV5rk0bZUHmM6dMLG6Zv2gUmbOdXKrZebGg7e3cJ5+vsqiQ6nEmcExakjyTujyPz1CfQ/Jm1TykdmSOA5HjD1K9DmWTfaAetmPlLVnFWLYj1TtEej8cgb5DwCX0vrslPiBHYCQCmy74zWHyDEhx2SJof9MHyoKMcrLIsXodra49eWpx1S8uMz3oQzbyXEe73HJM1lZYmZy5VQ6SOki9Vhd/kNLfVNrZLTs9LwJYwpcqeZA61O+3zJhVFE/eVFBc+k1Ufss0+l7CEeguAi6hdxdv780RqIwAOcSdICuBqJCqNOeAujinLKRy2MpB5GtNmFiq2VPhcFLq5rHwOS2pS+/3nHFzmRSZh9qS6nYuAykdB8gaqndum6V2JnVN+PCev/pps4o9iMxxEMFvQZ7vp1SZh5d1BLqBgBN6N1D2PhyBFhAgqXFbrl5K3NPXymrtHSe+M0nKaOjUU95ZvGSfXUsyx/Ghd30uW6JHeVa9S8mdpfCUNJ5rBrAmrFXvKVAkgfNObbIOq+BB+NY+61IFT4usf0/159cdgW4j4ITebcS9P0egIgKS9CCd59jPEWJGaWKjPSEpDcgcB8j88fGbFx84coQyIFg/ZgvHeCHlIsc8E76U3GWj0vZeEZZGcUuKj0n2uAYnOfwPYpfqdWsMkOatPdfJQW7UjnfNzsHrOQLtQMBt6O1A0dtwBLqEwAYbT0zaz0GkKdKH9D6D/OqgXl9z/Ebl6E9/Tx6ZM0lLUudFBxYJkGSlzV5nmtOZ43Ic5UI53puFnW3po8PXahu8bPvgRTWVfH1HNi7HqWXRL6nhd2q2f6/nCHQCASf0TqDqbToCHUJgi4kPFUtufjDa+mHHHFOqzUMHpHJJ5CgHB7iq6m8uj4x12+17YLH09lsbKn4de85jkeQuy8RU8/C4pzjwphCN7dAmHebQOOLay3SxTOaiR1bHP6+o5YZnqf2nJxy9iHZiq9kq/HAEeoyAq9x7fAO8e0egCgKQvJHCNHSAGP/10PJok7++4rqGVM4FUw5woQZB5gcdcmBJuNyGJG2WxrVTXMq2jv54wQBNQrMHq945JI3V7Kx2hwkD6nf2iIfjHHvNyzzyIHo+UEakmX3WnCvmjkrL2+x4vZ4j0AoCLqG3gp7XdQT6CAGQ6yFvel1x6knnmKOast5dxeLHtijV4W847+/FN/ZcVRz6+iOK3994a+VZwCt+/4MPKC676NLiuOPzMshxJ9KJziJ2JnL0AWe9iy+8pKzK9ZpRv8v90HkccymE7c9E5rwj2/N24KxynLRmJCy1RcDBBaR0PkDs2573qfPo+7qVQfQKjkCbEXBCbzOg3pwj0EkEONGJ1QckZUjnluq8Ro7vLJ7aetfiD+edWxS0Q9s1N1Ja0xvzyZilcfQNJzrpQBeyg4fO69zvXA7/ww7/wh23KacI0wDC7nCe+8cCghcCUoqO4b7aSa4Wk44DknkpbZP0bW2zOiK+nbLMlQsJWgTMpbog/1INP6lMdOMbt3Tyofe2sxFwQs+Gygs6Ar1FQDuXydGAsHFY0jZ7soMc115xd7Hny/Yv/0DI5z60aXHkhGXRiTHBov7KzbcpFtxwXfGN40c60OlFRGjLVMuRDudAzIiDZxLH/3DWO+WE0xvkjQWLPHgzlSp3RUr3rF5fcyHtlU79W3umS295+ZkT15QLAVoYXL7X9t+mlLBvqzIWL+sItBsBJ/R2I+rtOQIdQgAkGSIxqKaxgYq2hcObnUmSvdl5eOUigNTv1gGSRb74abP2G2FvP/7VbwnOToegSZLnxcj0zVYWu++1bzFpxjYNL3sm76dWPNBoG2NFchteGDDZc6w8zuMcq+OrQA7JHOQt49hlDnhuC1jzZjCa7HlufD/I431KlTF4WUegEwg4oXcCVW/TEegAAjJZiyRLSNA4KNnJiF5xHg5lTILyImLOrXSwWq3OdVYuWZS0lTP5grQnbze7JG3kg9cLCW5TErgmc3jdY3xsR+dFCf5niR6feae0XLhB4qVELg4peeskOVwsFGpXO78Y6viX5Y7ByzkCnULACb1TyHq7jkAHEEAc+pLFI6VqECfU4VrKZDu0NYx1SfWuDxAlq7XlIgDkf/qXTo/OpsxgRzZmhK9hh7bcQ5I9SB3fQebYstQic24XOOCo/b+4/BxS8+eORdbXNnpt7mCvfV5YYVGw4o65a47favZTuf15OUeg3Qg4obcbUW/PEWgzAiNV2duXEqqU0CGFw7YtzyFTHA5LOsd57KImD5R/5rRdRpUvyZwSzmgbOcaAPPEv2nPXspmQFI5rTNQaFqsOymIhAhs/tAIYv5bkoebm69JJUDrW6b4wfiwQIPUzOed4y+tFko6jl/eCnA2/TP2+p82335tzBLIRcELPhsoLOgK9QYCIZ+mSxfCnHn2wun3tu1eHniFTnEXOXBsk/Y2TVju1yfSvsgeUu+LMLzfIHOQlHddiJM7tMJlLUuZrWjrnhQGf12TO9eAvwIeW0OX4dXgc7OEyTE6nh5XXQl74un1853qkVXidE3pvfiPeaw0BJ3R/EhyBPkeA1NhvvfKar/8Uwyzt0rR1KhF8ebBaff7i5Y1ZILYcKvjQwep2aS9HOFuh1PAIb4NEy+V0djmrfS2Na9IPkTh7z998+f82nNXYFg9pHAcvCjAOfMb/wGMJheCxClyOSWsyOAyNw+D0+K34eNZMaIKXRC7q1ZLX++EI9AgBJ/QeAe/dOgK5CMw67JiL373j88riSK9acwSrxWbjgCS79MbLys/s1Z5SgY+ylxs2dXjMh6T30NhDanRdXhI/1P+sMUAYHR9HLr6vOPeqecWRNA5oIkDsWtK37PVMwlLiRpu1KAGE92FBBGe2Gn58aJW9bifUrmzjij/N32yfnWfem3tvvZwj0E4EnNDbiaa35Qh0GAHYjNkhDBIsDqjG4UT2ha99tEwsE7Kb89BQ5viTPzDKto12pLPcKT/+TrEWqfIhPWvpPWeaTL6a5KUaHm3vfvznKRa+1uKXdllRvPljnyznhAObjv/8858qDjlzXvEDmvuBbzhiFKlLIpa2filx8+cH717UIHJL6tYEb83TCsfjcpsu+M2L6fP5Ofh4GUeg3Qg4obcbUW/PEeggAnDSOvyQ2n7oG24+0psc5LjmQyND16yhMOFrotWe7+V38jq3POJzphjSEsjzaJsT20C1//KP/Ee5eJB94tzxC08o1f/Tdtm1DIXjA4sDOMmBZHMk6lAefG0/t+ZnebobYW7PyMHGyzgCnUDAN2fpBKrepiPQZgSITO5EkyAQ3hp15vS1GrZyeJxLx7jc7lkSRnn5OVQ/pwxL5pYjHM7p86efe3KBv0PfcWxJ5NqrHeegUdhuiyfLPd71QgFOcmxD16TLmEnC5wVADokzDtIeL0PWtJ2ecgF8IBd7L+cItBsBJ/R2I+rtOQIdQICym/0PNwv1Og54soPcQHiwL+NzSt2uCRx1+VyOJJ5ThgnXktBxDn9S7W6RvISQr7/9Yx9v2PTldcwZW6wyaesQO1kW19hkoW8T15dEr53tpJMcLxZkedKgPLsDt9+bdASyEHBCz4LJCzkCvUXgEx9+y7/zCEAqHK6WOypJ2jECx7UcKTy3X6ucJHMm+JwQOLTFHu7cLvwB0F4omY1F7hy7LqV2bk/a47X0LfFvZf5e1xHoFAJO6J1C1tt1BDqIQGzXNatbLYlL0rZs55rYuXxVFb2ldtfSd+i7TgdrzYvD81CWPfylVB2Tti2beM4ts0LknOxzkPMynUbAneI6jbC37wi0CQHKdHYFOYbtg+bgHBaLNQ+ROp+Pqc7Z292S1HlhgP+rqN+5Xy2da8Jndbwef2hhAAmdcYCznLZ1Wwli4Fioy6E/7SGvSTrkFBdT8bfp1nszjkAWAi6hZ8HkhRyB3iNAJP4NHoX09A6NzCLkmDqdiVySNtrW4WxS2q+CSojM2UbO/0sbe6p9kDlInQ84B2oilqp1Tb5M7JL4mbj1/1pF70Seujt+vdsIOKF3G3HvzxFoEgFKMDOHq5YhauRcFju0BK2Jmck61ylOqt257Vx7u5XPne3neg4xL3lrzlJTAefAkEpcqt85ht8iZX3OibvJB9ardR0BJ/SuQ+4dOgLNI0Ck9HcQU0rdHVOXy95TqvPcdlLELok45v0uPeSttLGW6l1K6Lh+3IlHjdpMBnOWHuprr79hA4bQAiBE5DrDXPN302s6Au1FwAm9vXh6a45ARxF467fPmokQrdSh1eIhKTzl1Z5aOGj1fGpcIWk8Vo+JPWRHt3wJ2EEudzxWYppQXZfYc1H1ct1GwAm924h7f45ACwhMmTLl8dz9xqVaXBKzVp0zKYc831M28xTp50xX2tFRXsampzzlUV5K6fgMjJB5LuewVOwuhecg52X6DQEn9H67Iz4eRyCCwMp5l85LAaTV3xaZp9rQ11OqeZRPqd2tPrUqPqRyT/kLSCmdY9UPedPrGqFs6DtG0vqaS+FVnxAv3w8IeNhaP9wFH4MjkI/ALMvBjKuDVI9/9VsarYGoPnDGyUmbOypoib6Ks1yK8LWHOw8w5CynpXJZPwWVDGWT2oxUBrlUu37dEeh3BFxC7/c75ONzBOoILF68eEKKzBfcMHJzFpAYcrxLcmbitlTyMgZdkrROKGOljI1J6FY6WD0XqXbP3YZVPhysdmdpnbPI6ax6rk73n9SwIuCEPqx31uc1dAhs+NjSo6VkqycIMsfmJfIAeZ160jlBCT2knk+FpVkhcK3Y0nVWOP6eUrXHbjIT+wt3pC1ad9ykUdTV6UP30/AJ1RFwQvdHwREYEASIME8ObXwCgr358ktGzGTKenc1vt8yf1H5OZVYhitIid5K+9oOu3wIdknuOQ5x3I5OMoPzrH7fZbetRnQ3f+GjHbnrtIBa1pGGvVFHIAMBJ/QMkLyII9AnCKwbIzhNUquevnNy2Nr2rQkf3+/65VejNvhcyVwTdSocDYOvIqFL27mcOM5jZzpKnVueDm26kgQro8DMaePuzyjmRRyBjiDghN4RWL1RR6C9CKy4Y+4HcloEWSEGW8ZhY/9vThUbIl8r7SuT+/XX3lEs3XRW2b2laudxWZK8HHOInK0EMkzmMZ8BTdpWPDrO8flHH6xxLZFuDpRNlbllxsFnNVXRKzkCbUDACb0NIHoTjkCnESDHti/G+gBRcx7zZdP3LvDHBzZyQapY6whlguOykM6RVW3y5MnlqZg0rp3tqmAi08Dq1K859vSQuh1jYMn9ymsWZMemVxm7LLvtTs87v9m6Xs8RaBUBJ/RWEfT6jkCXEEhJq5Nm1Ej7+Rs/Wmy64DeNUcUS0VgbscjscXPnLiu22/fA5AxzYtAlUUupHOdXLqnZ+EP53XEtZm6Q6nbp7S4TzqCNcRtuXP7x0W6P9+3uu25CEiwv4Ah0CAGPQ+8QsN6sI9AuBEjd/u9rkgSechCbvtOuxXG0heip7zmh0TWnic2RrK/6xWXFskULRgwb5Pfc17y9eHjBvCzpPDRnazGCRcDpNFbpdQ5TgVyAhLZT1f3EtpLFtSq2+FbuG22gc2Mr9b2uI9AKAk7oraDndR2BLiBA6vZTnjL60SRZkjbtwHb8yR8IjiqW0x1kDgKfOX2t0omMj0cv+1ax7uSppv08ZlOXg9AOcKj3h/POLU659cniyLpMC2n5wrMvKLatj78dJKyJHnuhw6cAB1LDQg3vhyMwLAi4yn1Y7qTPYygRIOn8Iq2erprnXALDXu16UxYpwUsyR92Y9Jvr4Y52eAGC+SDZzTVX/pXIfHSUV8q00MqNhjbgwbsXlZ7um07Ny/We2x+1mUzLm9uWl3MEmkHACb0Z1LyOI9AFBCgz3CZEfK9MdZVSxXN9vfmKjiWHdL7BxhOD3VUhb6sRuTD53VUjM9pJWzbbvXWymRgO0lbODnJ6W1Wuf82N95UOhNq8kMI5dZ3MG/8vVcavOwKdRMAJvZPoetuOQAsIUGa4s1myxf8gKCYpkCN/5xSnUnK3utWErHdde8k+u46q1g77cyxRDNTe2jHN0gikFi2yDjvIxTQLmGi71e1kP/9ZC7fbqzoCLSPghN4yhN6AI9B+BEg635BaPZhblp7bCEEDGacIKzUqHWa2NtnJIbVy7Da3nyLTVD/Sfq6d3CYdfXLBjnscH85l5P/oI2ZT1xK6xE17umMB0W7pPIWBX3cEuoGAE3o3UPY+HIGKCJB0/lPYmVky5+ogNbaDS4ILqZerdItFAuzKegtTfM8JS6vSF0LsoPZGiB2883FA5c+x9Piuw9yshYXekEXjpRdE+I4+2i2dU7MPV5m/l3UEOoGAE3onUPU2HYEWESDSfrFu4h8Lry/jtZnYOHYb5zWRpaTqUEKZPV+2f9mWlobl7motTq2sjtA0kPoVZ365+PnnP1V6niOT24v23LXhPCf7Cc0nlB2O8WBtw+9vrC2OcHRCOqcd3U5pBy7ehiPQCgIettYKel7XEegAAqRun/TUwqtHkDSTNk4uvOlXwV5D+cx1BWvr1NRUmnWKk17r8jNIHX+8cQw+pxYiqTGG5g+PehzI537JJTcU2FKVE/Esvf3W4kf/c3mq6ej1fY8/7TMtNeCVHYE2IOCE3gYQvYnVCDx+zZzz6KV6AElGP1h39yPe4dhUR4DU7a+oXqu5GjpTHLei90Wv2joTtw5Bs+zgnEhGk3lOUhmdIU5K7Oztjv85eQ3S4J7+hiNGTAf9v+DwI0tTxgeOXJ2Up8KcH6pQ1os6Ah1DwFXuHYN2bDZML9jDaOYT6P9jKYb6WWMThZZnPSpAWsaGz/zbFQX+2nVYkncrednluDSBa4939syX+dqZyHOk9ZBjIEcAyBzvkMotLYA0P5zy4+8Up57yzkrQUrufrFTBCzsCHULAJfQOAevNkh32tuuQoHsNx6IyAltaNUDqUL0/c7/jyv9x6CQwlXvqUAXt2Y5uNFFbZN+MlM5TsDZowTW2n79wx1que+5Xx+XjWqmx2BpOel/PRWYFqdu/kFvYyzkCnUTAJfROojvG2iaJ/Ol6yo9ceuYqOr/fGIOipekSqbxJNyAJvJNk3m5v9hy1eSx+PrUhC3DSYWk67A72ceSIR1gejjuu/VFxwTe+WTrjYTc5/OGcTIsLaT7n2OuL37G3scup7GUcgTYj4NJTmwEd682BwKXtUr5s6y/U2+nF+cHxW83+aQwrWgSsRWX+NRbxXDnv0pU076cxmTGGpXRez7EuP2uMWA2tJWB4xTOpdRNXbUdPqdLZLh6KLY+NXdeZv3h5Aac3eM/juPB7/1vMnr1pscVL311+Zx8CDhGU0vvxr35LCqYHv3rjnzdKFfLrjkC3EHCVe7eQHkP9aE9jlaBkxppLFl1EznOjJKsREN12XUGLg/IU1f8LOdjNGkMQwlQxQ883R70esimDzMf96tTiyTef0REYY/nX9cYscgBWylZc11K33hI1NE95HtEAS5dPaJD5+WeeWRz6+iOKX19BaWdJKt9qt9c0SB2b2gCjKhvCkNT/iq8edkxH8PRGHYFmEHCVezOoeZ0gAvRCXSptmbE4YakaDX2uv9yfW1fdbzYWoCcNxmmpDUosco9ljms1q5zGPSVlo7xWpafIUpO4da+tsLRQPWDEkvllF11a7HDQEWUWvAPJy/36a+8oLvnBnBFdSO1FTogepXqtxRb64Qj0CQJO6H1yI4ZlGJSW9BDMpR0EorOAkZPdPcOCU2Ief2ZCZCx5wROqF1KzS+/xv+x6XGkrbsehydmSwnFOOsLpRYAmYhlrHxujZTOXee35c30xWEr7SFozk/aK52PDzaeW55pZqKCOJ5Jpx1PkbbQbASf0diM6xtsju/e1/CK1oOCXPP8fg0vHFKMsqer/NOwQP7jepJFbkYkJxzQZXEwSqcSK471DpG5J3fpcqowmcNY06AXAiFS15FX+FP2xFz/GDHJngreIPuYIJxc/+Awvd9jN+cCYsIUq0tw261VPnu1NBawP+7Pr8+stAk7ovcW/572T89lRRJIP0v/vpwxl67RjQCSlz6IX6aNWW/wCjXk2y3qsvucXOP2/UzvG2M9tTJkyZVUz47PCwjSRTpu1XxnDbhGzpRKX53TGN76HWjrXizZ9ry0VOVTcrPJmhz82K6TMCylVPVK9oo0RDprrb9jIFCdj4RkXzl5n3Qfa3KW1tHLN3Fyv4whkIOBe7hkgDWsRIvHtSY39f4pA771v2h7PJlJpOfsVeWt/kV6QH5CSY47tlcvrLGBinLesf8Ax2w3rfcG8aJHVIHUm6pBauyoO7CD3KMWzN+v1Lu+jHhec0bBwsO67Rb48BrSJulJS5zZiDoGh+HPUxTU4w+2y21Zlu/gOT/eDDjmwnHtoYXPKCac3ssspfBeTZ/sWVTH38o5ANxBwCb0bKPdpH6QeryW4Fge9cDfbZOHVD5K03rID2to7HPBBLA7QPL/0papdSnLy5c+fWeVukMC2fQpp24alJWM0nONkltJ84DqI7LyHZ5Uq7ad99z1N5U+X907a6UHId5FneUpqxnxYlY4FBv6YzBnEVrPh8fMDz/a5c5eVzXLYGq6FFpc4z6li9Q097Kwfmkl/2nbjvSFHoAUEPGytBfCGqaqMHce8iNTvIVJ/AUnqf2xlntSOafMOOVUx+ackedIuvIwWJL9oZWz9XJc83Y9Ze8UDtbi9xGFJy1xFki1jy9fmL/hXMX+tFxcz65u9QIKFLVt7eOs2pOodbYG85YYxW0x8yJR+JclbcfQ5YXkWFJYmB88zxgRv9rVJvY7j4gsvKSVzHrP00ZBjO+54O0vcXrtP/94+O89syhySuod+3RFoBwKucm8HigPcBqnF/5ukoyM1ofPLf+mms/YnUv9lM1Mk0j2YEnZcqIkk1FaKxHXMMsWmD/XzS/dmVQwTqeq21PIyS5uW+CGp4sAe5PD2xv8H/eu35bn5z96ncYs0yTIR438pQV9MCwMcaOvQdxxrSr8hqT3Xu91KqmNpcUIq+JRqHuP/0Ls+Zz6eJJlvQmT+z2Z+B17HEegWAkP9QuwWiIPeD2d3k/OQBEDS4kkkDX+8yjxJuh9H0vkjXCcVg6wdrlAvQ207n2zpQ5t6kzB8KWF4WQj3kE1dStSWdI32JKHj+0G3/rQ4b/IeJbFbxwYbTywevn/5qEsc+nX4kquLi7d5ZYPQuaBekMRC1aTtPFdal4Su8x+EktZoYufvIcmcEsi8imLOy4WpH45APyPghN7Pd6dLYyNJ+jUkSZ+vu1OkfiKR+mdzhkTtvYTaG7Fpd4rQNQFkkHlZhQh9qJ9hdo6TEjgvfkJknXKeQz0QOpM3S+hM7EzM+G4RvIzftq4jcQsOPc6Uyl1K6pD+paaAn48Q0cek79Qzy45yV16zwCp6KznBDb3PRgojvz4YCLhT3GDcp46Okoj6R0QCp1MnZe50HSNe3xv7JFIB/z41ECLzA8hzfgSZp+pIMpdJQXA+laCGtAu357Y/iOXoXpRaDiZvSwWvid2apwzN0tclKYPMLSKHBB+rx9dnTl8rCLO8lyFPdiZsi8y5YUn8HHMukxDpOHRrQFwGMepQswfI/BYn80H81YzdMQ+1dDN2b2vzMyeJcBGRSGwf86eI4A+mRcDPdC9E+BeTPf4VIRIOSekxO3EoK5jsmxy5dqXx/KH5WfdvTVK7r0dqdzOmnxdfGj8rLlyXkRI6z57V7qw+Z5t6FJ2/PVCq2nFAcofTmbz/0o6PMikpHWViG89Y1yxVO0vdWKzAXMAHzAZz5y0OerFzOYo1/92JP//FHv37ZPjIHIHRCLiX+xh6Kkh63ouk59/IKdOL7//Iuey5fI4+TyVSX0Av4mkBaNYkL+iLqcxySiDzaiqzhDKb3UekM4/IfHNdJ6Vqt2ysoQWBdNxjz2b8T3NCZrWhXJySQ+JjdN/eQyYMc1cVy/dAe6HzPdGOc0zCDQn92RsVhxc3FQX9X0raf8v4cVDZkviJ2GGDlzHlqXsv1ecxx7jUdrHyWRAJiOpSt6lGj03sTrKZH0s2859nzN6LOAJ9hYCr3PvqdnR2MJrM6709B3Za+vsbEcfWOEekPp3+uyIxmolEMpfT380Tb7r4XnqRlmSeUpFbhC9f/JbDEteRL26ck9Iejb8pT/zOIt6e1kn78FVqCVuqmkdOfDoqhjQhIG8pjUPdXTkGnIhdplfl/nSfsecDBB/yqkd7McldA1PuqFbteJyI/GBSsT/TybwacF66fxBwQu+fe9GTkQhSnEHkPJ+I8TYi9j2fNmv/l5Jq/X+qDEqTcUpCk3Zhi9TZnh6KF5Zjo7L70biHNoMXLbKy0vJqFbckcokx8pjjOHyDm0aRd8ghLfUsIDucXlyk6vB17eGupXKL7ENt43m55JIbcrvGRisXEZGvR0Q+2lEguxUv6Aj0HgEn9N7fg66NgNSh5cYp8tD2TnrpP5uI/bcPL5j3MVKlj7BLW45V0hkJ7cr2Qi93ONnhkORjSXJWjDGPna/J/sgUcFrXwOxNR8tT3YYWSVrdPmnGNiOkcm6XndE0qUsnNesz0sjKI7SYs6IXLJV6s2FrGENuhAQVvYvI/HO00Uq5Q6AfjsCgI+CEPuh3sML4KRXr7kSAt1pVdBISIsdPTVp200lEvlk53Vmatl6mmqxlJjLtUc9jC3m7a5Wt7I9s+K8lJ7JNKkAyUEVJSreDxAOzkLjrz7zzmibyHEBYHS9V8/q+hNT7lso9l7zl2KzFHj8Lt69+Yp9U81lJzm5/w9anJJGvQX9bEpn/v5w5exlHYBAQGEpHokEAvpdjRJw4h5ZpCV2Piwj9USLgcXyeX9RSMtcJPEILhtCcdbyylLK0I1yoDanuJ6/3Z5Ld+c5eYtypvune7U8alEtD7Vsqd1lWXsd9G/erU8t4b4uktS2dv+vzTxyalZ6gMQztC1EVq4Tm5l+0f8Daze5YV3UsXt4R6CcEXELvp7vRpbEQ2f06lZAFavG6anwcq8gxPFalylhfOWwtoYck8JypEjHviPSuZCr4b0vy5zGMst3fdl1l1+ac8fRDGbp3lxFhBSX1WAigJnt4pIOMpXpdOsPl2NKhak/5SmjcpLmkqhOlXOzhs65Pz8vTnMz74Un1MfQCAZfQe4F6H/VJTnDIT72xFdIkySEm+Wk7upYIU9O1JHSdpx3paUPEoM/XJcDLqI0DUn0P6nUyLWxK0QVLmyFEa87rXPCxEadzpHbefjW2iOBGWSq3+k5J7HrBFrpntADcihY8Q7uYG9Rn1cfdPQRcQu8e1n3ZE5He0yme/ERtY8V2ltKOzd8t8pQvbW37lo5xUtKPgUHjeY5B3k+kJDvpFU+f9+cwvL4EvsVBkRS6DFqWCg5g0R6ffPMZhXRsC4Wt8fkqZC4laTnemEOl1L5YA9caIiLzGU7mLT5UXn3gEXAJfeBvYXsmQOR3GNnKv0etrQvyDknDlqSlSUXavbmdlFpWpC/9GTnvHaT7pyx0n6UyDQcmOQ49JvH9UVqwrN8ehPqzFcLldMLl/e0YHe4R7r3eSU22DckdTmxQ1+dI5rJu6NmxnhfrmUJbljRPZD6VyPzv7cDA23AEBhkBJ/RBvnsdGDsR+wnkMFfuISlVndIRyVLzhl7AaIck7lF7bOuh19XulxCZvyw0LVa7p8bC9TEmetnvQS/733UAqr5pku7Zi+meXdku9bs2v1jZ6HInnyJxbicWvWAtLuvP22PLZx00gbQV2ps9d3hezhEYKgRc5T5Ut7P1yRD5nUzS1y9YGpLkGFPvcspPWR6fQQ4yTM0aYZ0wvhMj8/oC42/yxR8iAanKJY/wq1tHpb9boHv2WxBbK+r3hTet3k9HxrJbn3PR0OOJjY/NJdpko/MNiEXmA2RyGOdknns3vNxYQMAl9LFwl1uYI0l/bydCPhMv9phjE5N3E13dTES+fW493k5Ul49JgrSouIP6mJHbxyCXo/t1FEnrZ9cXQKOmErqH8xcvL9a57/riiU12KWZMCKfwzTR1jOg3ZBKxCD7HAY7KLCBTylaDfJ987I5AJxBwCb0TqA5Rm5Qtbi45sy2GpB2K/5WhaRXtqhdWIfM6rA9Y8FrqZiYHGtNWRHRvG6LbEpwKSevnkLQ+WeKRI7mDxJnM0TgkdvzFTCk5Kn69AOD2+HzM+U07vuE7mVBe7mQ+Fp5kn2MzCLiE3gxqY6AOhUWtRZnibicynCql7xBh60xzOuSNIePzFEu9CalLETJX6SBifiGp0UelsM1phMb4FlpA/HdO2WEoQ1gdS1h9IzQXTba8+QkyrUFah/Ob5bDG7cWkdZSRpg9rDCFnSl0WYyA/jHfRYuXrw3BffA6OQKcQcELvFLID3C6R+bZE5jfLKeRK3jne7PRy3ptezlc2C1FI7Z7Tno5vz6kzyGWI1LcnUr+EyPOZmEdMqma1O8pxOlbLAVETtSZ2xiuk0YldlwuIej9PkVS+byvPyyDfPx+7I1AFASf0KmiNgbJEAF8hAnhPjqdzyB6rk9CItpaS+v5F9HK+rRUoWyF0GssPSUp/XSv9D2pdwm0u3bMdQup4g0zLqWop3SJ0qxzjlFL5W/3SuYtIi3MEaXEeH1S8fdyOQLcRcELvNuJ92h8R+aeJyD+O4aWkbJSROd3rKtEvU/33yekJYn+MpPKXEpG3xeOcxvpS6usyDWUqjznKg1xSaW/79Ba1bVgUu/47un+7W5K1JVXrc5bjWsyZLbWAEBL7P+g52Z+ek1vaNllvyBEYQwg4oY+hmx2aKr3g/0Uv+NJBMofM6+38iaTtt9PL98+yXSLbWeQV/xE6hw1dllCZz1GZu9sNM0vp2nYvFxsRgn+QVO8btXtMg9IemVSQC35v+ttuw8eW7kGLozL2nwne8krH9VwVusZBtquvUZu/ofv0JdKa/GRQ8PNxOgL9ioATer/emS6Ni8h8lcjSltPrH+jlu2tOwU6WYSlT9xFzzpNlSRJ8FS00LuzkGPu1bSL0dWlsW9IfFjXk316sRX/L6O8BIvi30ILsE1jgSVV5TMrmeerygbC0e+kefY2eoU/1Kz4+LkdgUBFwQh/UO9eGcWsy18SO3Ov1pDDL6POniQC/0oZu29aEZUtPedtL576x5iAH4FetWrXWkiVL3kofEb0AYoeN+i76m09/99PfppMnT97+yZsu+6LMEIe68vlI7epGxe+hZ+ZL9P9N9Nxc3Lab7g05Ao5AEAEn9DH6cJCUNo126yp3ppLSl1K5ryRJap1+hYjU+x+lBcd/6vHFQuskMdHnO4nUS+/vQT+u+NP8L9y44J4PbrHJhsGp3HXfg8WO058x4vo2k8fjO/KgX0d/fyQJfTwlpvmEzPzHCzsm+KWbzgr1sZQu/JwWBMeuscYa7sw26A+Vj3/gEHBCH7hb1p4BQ7rVtlLl2f4EvcifT9LVvPb02JlWQlK67C0mTZIn9UTypDaT1XRmxO1tlRZmz7z61qVZG5NM2hBuDfZBxP7wJguv3mCdtx1dFNuMK5447oyGP4XQ1JSV8Z0SDlkNQW3/PcLzg+2dpbfmCDgCOQh4prgclIasDJGAue2mID7YydftdzKv35YlMlNdzKnPukYktnzQbi/dvy1IIr91zhVzV0kyhwTOh/wMIo+ROepMfveOG6xz6nvK6vMPfNUI50jOxY/nA7uxbXDQHgVpdyzYNqWTHyC1/uvob4NBw9XH6wgMOgJPG/QJ+PirI0Bq1XdwLRVTfA+poDev3mLvatB4p8AXwBpBbjIcUt3DE/+jvZtFXs9E5LOIwOfR34gKkrxxQZM51Oq3LllhdoJrk7+4V1Hc+mgpmeNAUplQpj9uZNwHP1z84/3XFzOP+eaodslG/z84SeOFTf6v9Pd7+kM0xO9Jer89b7ZeyhFwBKoi4Cr3qogNQXmpbmdCp2xczyNSu3EQp0fz+ReNuxF2p7f7ZMk84ch1Bmkl3tuP84danQh5wdIHH4U3etYRspdLYmei3/ukPVa3ScT+xLfPCvaB/O4zv1Tyde34vwcLIvDG19DCAQWov8fov+OJ1L+cNQkv5Ag4ApUQcJV7JbiGo7DcIINmtBSJVgaVzHFHKATtAKl257tkEXtIJU9la/rmPjqIyDck1fq9UKuDzFltHlKfS8kczm91h7dRZMvnG+QL6ZwPktKhepfbqeJ54WeGU8Jy8b/86Ful9M9/Ej7uR/S3HpX7Es1pFc3txX0EtQ/FERgKBFxCH4rbWG0SpKK+iGyhryTv9rmkst6xWu3+LG2p3ZnQQ+FWRuKZBwiPif0wQyK9H9M4DpVjIVIvbeH4Xx4gcundrgk/pnJHO1Ou/3xN6q6r3Ev1Ox+v2LyY/+x9ym8jJPP69b98+rRi2fS9R0HGfVp9i3NPUsUj99l5phD5+wF9H4MjMJgIOKEP5n1redSPXHrm90kyf2PLDfVJA0ToIIe1rNjpmMpdkzpJ+7uTtqKp3dzaAQVJrutRO+8jSfYUTdw57VuqdllvlHRev9hQu7MtXZJ6pOMQoVtVJLkrov8IkfppOfPzMo6AIxBGwFXuY/TpGCYyr9/CUsqr6uWu7eqUBvWaXj4SRORLSMV+SmwMMY91KalLlTs+M4lqOzfOw7NdOsblYmBJ57qutYhQY/g8aSSQLtgPR8ARaAEBl9BbAM+r9hcCMW93KaVL0g84yv2NVO9bd3t2RGqIO0Mq1sbBUrqlaudCrHJPhaaF5rP3/75i9aW/1UPyMyT033z3T1GIQqr+iAngaJLUz+427t6fIzAsCDihD8ud9HkUROj3EQxP11CEvN65nEXqpHqfRar3v3QDVqRj/c0Nt8FkMILIJUHnqN9RPma75sa5TGk7/9sV8SkSwV/xwjeXZSbN2Ma0l7eCEWW3a1SHdmGPbSatTV7wI7BopX2v6wiMJQSc0MfS3R7yuVI8+QspCUqW/TsjRv0pktKzw8SagZbs5WuT6vkOqouNUqJHyCGOK1WVzkdI5Ym+f/O6n6WGl7yupXLMh73yQeTi8x+P2Gf2C5INegFHwBEYhYDb0P2hGBoESKJGAhPzyNhMRNdbk+Lbb+gUOHB+IzJ/RJM5iI6lcfk5No4cMmc79u6P31hUIXPuN0dDEBujtJlLMkcdleHu+WR6eGencPd2VyNAz/fZ5Bx7Hy2Et3JchgMBJ/ThuI8+i9UI/NYCQzvLhezoqtzz6GVXi9lq40Fkvgk1Bye+UZkarTStMelcZ4mTw5ROcUyo61zwsaZmwouGKsSu4+B1x5DM2YmPP9e/911OgKZA6/NKlFvgKBri08kR9Oo+H6oPLxMBJ/RMoLzYYCBAG4cc2cxIQ6FttPPY5c20F6pDZD6dyHUZ/b1KlwmRZcwhTu+eJtvU3uzNSOZ6jDnaAK5jedPjGjvxSZU7n8c5wmF7ktJH7aLXzvsw1tsiyXwVdlms77Q4eazjMSzzd0Ifljvp8ygRILX7Ivov6sym931n6DjbnJTS8cIj1WTrRuR6J3WbefnNInBWs7NUHipX5XaDyNtB5txnFSldLzDgBMc289hWr9TH+6vM0cumESBt05uQ9lnvUMhZANMteIl+R8A3Z+n3O+Tjq4wA5WSfFQphQ2OxWHWrM3rhvbzyIIwKJHU2vU2rJaVb0rL2cm8nkfOUqkjpIdyUI1xZTBH8+qTN2JI83u9sB/bD1AYR84vJ+fMrNKep9IeIgCWkmfoc/f9nWtDezHOlcs+mz/tS2Y/TInbL4u5bGzDUJfMypS9/HiaMxupc3Mt9rN75IZ93jNB1SliL5A0nul+T1/t+zcKGrU6tMLSQOj2mZs8h1k0X/KZ47nWnNjvcEfXYy13GxKOA1CLkdKSd4bSErlPYUpsLyOPdHbbq4CKKg0xAZRRHOwmZFrhX0yJ4z5x76GX6GwFXuff3/fHRNY/Aw6GqKQk94BH/EnqhYr/vygdJ5g+1Q6qVHcfaayeZxyZbdU7SgU9K6NqWLvqcTlL6OpUBH8IK9OztBzIXdu9ylu2QrpduOqvtjp9DeAsGYkpO6ANxm3yQVREgFeTbUnW0pzuIPBbeRt7AwbA4qy9KGLM2kflKujYe17V9XBKi9G5PSecxz3b00y7JXM+Jx6ht6Dk29diGMjFbOo1hZuo+Dvt1qM7p2ftlO8jbwsoT+QzPE+Q29OG5lz4TgQDZEv+X1O7BXbxY7Z6zV7podkYOyCRVbk7l3kjZ3z4vQ85Cmd+0pJsiyBABZmV+y5lAooxecORI6lKdHluQ6PA4ymt/HQ1ngzYMe2CbIDK/jR3XckidNxyKbBXcwILKmGGeAwvWGB+4E/oYfwCGfPpI3LJ+1Tka26o2miAP4T+SLf35oTaxhzld+zrC0qSNWZOeJi5N4paUHsvZ3gnnN56jtp3jfA6Ja4wiqvWyaKBNOMetQ1LkE1Xv4zCUp0XppVh85hB5aL5a6yQI/zqyne/VDpxonD+kLZmPwDgpbfI7aEH9zXa0621UQ8BV7tXw8tIDhACp3V8bGq6UzPWWq4kp7pK4fgDHmGtSlip3nRFOE5olpUMyt0ivk2Qux6Uz11nfUd5SycskMihjSelWZjzMl/C8cIAeu7YNlRaPy4gk90eDVULLLALnkEweHJHukUTmL2zHYGmc94DMeZxk6/8GmQle2o62vY1qCDihV8PLSw8QAiQlXGwNV9rK+UUnX4KpPO/0AlsQgoHI58tMajqFK9ugQ9JtStVu9dlpMkefcLLjQy5SYlK6nDvIWxO4NhvEsKG2Dhygx67lodLz9QskfiES30RK5lVIPTQIIvKCnOCOpN/Gd1sdKJH2yzFOamcz3daD6026qtX2vX51BJzQq2PmNQYLAajdy0MSdcYWquYs8VKlv2n00v2VVWCPtRdsLgkQZaR6XZJ2VbW1Lt8NMsf417nv+nIO1nirzqHKo8Nt439yLjyjSt1BK0sq68+BHOtEXi5gJJlr73aen2Unl9K4XqhSTHoxadlNZ2EvgVYwIjJ/N9n2f2aZAp7aetfXkYnksVba97rNIeCE3hxuXmtAEGC1u4w9j+V1D01LOyXR95fosvQyfuiOa39UzKAdzQ964rpiu/uuK0kwJHmnJHKWbC31dLfIXM6RVeIpEpfX2e4vc7ZbGKewoDpvGJBHrtIwicjfTM/NU6SyPkFXrC8ey9Mh6VwvUjOf7bWJ1JtOaUxjvpgWBuUCi/uTxE7S/w8rgeCF24aAE3rboPSG+hSBX0obueXwJj3eQ57BMpEHS08kpSBTV3mQxP7Nfyy8fvwzp+1S0P/lORC7ltZxPoO8yvpywxJJkvBm7+bBe6ZrTYP0CeDxSAc6Oc/Y4gR1eeFjOeDV2964m3PuRl9EjN8hIj+X+oom+OJsbkzwFrnHHDl5LurZ3q2ZOdIzfxDVewXqWn2uPXnqH5tp1+u0BwEn9Pbg6K30KQIkLTxukTTb0bVKMmU/l9Mk5x/sZQ4yP49essdoCEDsLK1XhScU2gXJnAm2aputlNemArnACH3mRYlOKKPHkZL4uTypiZ/Tyhz6pS49L1+Bap3I/N9CY+IFJKvamdTld4vY+fnNeY5pQXF/FUyIzD9CkvlPuY4O/aSxPUGOdr6XfRVQ21zWw9baDKg315cIwEv6kBFkPH6jxlftJJfzMkRleoGtWbd5jpg0pHR9QAWP4+J1dq0MEBNeL9TscrDS0S00CRmqlwpTq0rs5HCITXcGNl01EejHiMRPkvnTQ6p0fV6netW2a70wtWLRjWiOiUiRTE5yO5DN+6bQPSUiP4yI/LyC7O/WUe/7SQrnXLfyw+0V2orAwP442oqCNzbUCNALaUt6If1DvtAs0o6pLfUmFjGPY1a5s/pdE3xVUgeh95rMz3v5+dFnxPJ+553Vqj5c3FZAcj9tn51nfqRqm70sT6T570Tkp4CEpS9Gjte6JvKcBDOp1MYWFuRrcg15pn+Arv21fh3cMJls7RfQ/yM0I1S2gHMdjvrv6H4i86frdmne51DZS5HkqZf4j6W+ndDH0t0ew3PlzVq0ExF/z7FB5ryAAXGK0G9/qChu3iRPUu8HMsec/rLrcY0xS1s6P1KW85/e9xxlrSx3uSr3el+3EqFvOwiPMqnWL6Jn5pVW6FkoUYz1jPFCoEpymVxSl+SMz0Tqy4jEN5W/ixDW9TI/IzKHXb08aM5X0Bz2VnXuXP+AY545CPds0MfoNvRBv4M+/lwEboip0mPXpLdxTmeWyl3WQxgYPOClbTlmMx/R59/qO7Dy/zkDakMZjJmPlFOf5eXeJjJHM9u0YTodbYIWj++v7zk+gszRqbaBa092Tdr1zGtf1U6ZqQnkmo1Y0kZ7+LzJwqsbZI5zsXbum7bHDkzmNOcP0pzvpSolmat5bJkar19vDwJO6O3B0VvpfwTOlkPUNsaYRMMvYfm/nq5+EVvqdim5gyBZWrUkWbQP0i80gT+7bvvn/7uEu3TEkypxjk/X3u3Sfm5si2rG5luZ4qzpkXPcKPVul2BIdkPEdgeR4Om6YEq7w9eVaecxIsw1SGX9Hno+yzCxKlJ6ipB5jJDM+U/+DnR2OTknlMcaAP/QnE+iOX+BPk7iMer5ktnreUnwvEDLCDihtwyhNzAICJD37VcxztBmLLkSjTXXkEqUJXUmcl23JGw6LDX04T8/rHju908sCkngUirvsoQuxx5zjtPSu0XmaMtKsBNKXqNxI+e4W/rtmSPC2hdSOT1H0y0yl/Zz7bGuE8jUr99Baupx3BY9v++lZ3fEolT2EyLfHNU7JHP+A1EzGUtnUfn7qJM5pPk/EpkvpnF8LNHPIlqU/Lnf7tkwjscJfRjvqs/JRIBeOmdK22AzdnNWkWq7qHxh58KPkDZ5yD3CS8lcS+H4zkTO13pI7EzMKRV8Lh6pdraZXO5Ci2MSSel94VGN9Kfwz6Csab8OkaoMQbPIXkqz+Eyx3KeTZD5qZz8i9aOpj2+hjVYInMfAxJy6P3qxy+RfJ/HJqB9ZEN9LC5NpqT78ensQcEJvD47eygAgQC/EY+UwU1K59mxH3ZAt0yrLfUn1u5bWWUrnsiD12fNJmZCrUpflNLm3mez1WFO3XG/IEiqvk8lYxA4yJ8m80QR9/lmq/05epwXFWiSRP0zk9jOOnpASbW7fSjq/ntKmTqHn9IOh+nTtGJC6fnb195zFqrSfh/rjhQNL4FI9L+sEFhgPEJk/IxcLL9c6Ak7orWPoLQwYAqnwNJ4OS90yQ1coPhh1LDuptJujjHaYYwc5XGO788xLflIbQlVCtiT6Nt6b5153aqXW5KYsOXugc+OW17sk87qkvm+lwbSxMEnkvyF185P0HJVb8zLZaftzlS6JyHfDtrykml6Sqlcn9Z/ouPLQgiK1cJX9geRjdvrQIkD2Xf8dwLN9Ymoufr29CDihtxdPb20AEAi94GJStpyWFYYUmnbK4x3XoXqv25qvIen8yajdnNXuIPuqhN9hCZ4xsMjb2l0N5XXK15zHp07ua5CU3LAx59RrtQyp1/eshz829hAPPUsxEtXPz/JZB21BRP77KuMjUj+UFhDJnOma9GUfLG3Lc5bkz2TN/5N5ocCfPMRiZhUR+RoeplblbravrBN6+7D0lgYAAXrxfC00TP2iDTkvSUncCjOy2mdJHf/jTxI9vhPh/YHqnU3e5LXsjZatXDrI4bOWyGMEH7LJ82CrLg4i9zpH1c4Z5fj/2CY2ka627tYjR2T+3ySd/pb701qemLo95DBWt5d/h7K0wbGs8kGk/jrq92qp7ubPkshDY2NbuOw4FaIptVXGouUeCmXr6iKrMmhDXsEJfchvsE9vJAKU5vJ9zWJiqdT1uZSUDyLXUnv9+41ko16jJPKq5Mp1pPRedZK5Nvt6uzEVOqvamdhDZfV+8VWHTJL6tVXrVC1PWoAyPSqR35G6riZPaW+WavigFL/1rq8iUj6q6phkeVLT70mS9gHSjo/r2gxgLSq0UxxlsyubjqnctYMf6qBvauutNJbNaXHyeCvz8bqtIeCE3hp+XnvAEKAXzr+aGXIqjpjbTHm7S6c48ZlyxxUryEb9rVLq5j8mah2Lnhu+JutbhJ2S6DEpVQbhdDhGeOQHAJXEHsNch6ulvN1FW+sT4XYsaxxJ5V8mW3l0A5OQHZtJPETmKzffZl9Ss2OPgZYPaucyam+PmHodnVje6rJzzrMQ8qCXz7io91Q9Vv6clifiDbSMgBN6yxB6AwOIAAi0ceiwIVzQGb30y0zHDvP1mDoeZSybOhH7OiSdL8uSzqXqXKrltTpeTjAkfcswuNBNNOqWXvh0aFIP2c6lc5zVjSRwqYrPIXaS0ttCinpcJJU/TlI5Yr+zHm8dDiklZKUSf6JOgFdkNZxZiEj9d2hXq9dTJK+bz/GOrz/jD9Ii4t/IVr5W5hC9WBcQcELvAsjeRd8h0NgCMuW1biX9wGysRYCepSxjEXk9nO3uLV767qeTt/vshmSeA1dISrek7ioq/IyynDVOJo0JJZDh8zIrXojULe/2DFKf2c7McSSVv73u+LZOzm3QZaQDGV/jc0SWj5CKvaPx8yB16qemO6cjx/NeLkZiznxE4AXZyPeB0xv1sxEtIrCXux99hIATeh/dDB9KdxCgl9Ebc5x/JHGnVOk88lRqTnaKq5f/wTbHnjmZXoyPUKjaa0dI6JYTWwyeHDt6jn0+lFo2g+jl8KRXO0voLMHH7O/NPAEkpWNHsJYPIvNTSSo/s0pDLNFaErmUdunzEiLzDaq03WxZ6mca1U2Gv2nSZ2k+JKXDs502bjmv2XF5vc4j4ITeeYy9hz5EIJaX3VKb59rQQ+VkPLqQ1m8ENJSg5LklRNJ2zpjl2L613V3iLdtMtS8JX5O/crjTErmWwOV1do6T/1uPhHSSY7t6zk5sVO/FV/xp/odaecyIzH9OZN7UtqyWWl6pvv9OJDullfFVrYv+yFHtA7F6cozSqS4mpdO1TQmrT1cdj5fvDgK+fWp3cPZe+gwBIlHklt6Rh6VJnL/nSubcToXy3ybV5dtRb9VxW68a5dmu07xKCTnmkR6SpHWqWG5f/o/BSLt8SEtQP2/tkS6lb0vNbuWtZ+ysPdVxje3qXE5/r5+/l7ZVrZyVjNT1G2z42NKFROabykdUbiua8+jqMDEhuV9I5PqqnDY6UYbmtw5J1cuobZVoeGRv2kteXlWahvJSvfy/CKdvYPOYTozd26yOgBN6dcy8xpAg8MilZ66SRIzPKUlcbsSSQ/oBgj+XyPzf6mR+P5HoxCxILVLWFWOErq9ZueGt9gL9pgidm9LOczFSRx25m1uCxPVoTyBSPyULSypEZPd8IvM/IB5bEziHdOWkR7X6A+GRzflgIruGv0buuDpRDtntqN1GQpzQmK3z2qwgy/BCgMJBd6MIkkrJcToxz7Hepqvcx/oTMIbnT2S7sOr0mcRDTnHahi7LQe1OKT63ZjIv+5ZkrpPFWIljQk5vWoKXanjtzZ7TDwMjx6DGk5PbXZK5TDgTs6NrT/fY7m6S8Kncybn3k9TGHyXJ1SRzbsMi85wNTUBydU/2viBzzIe0BHvT2LGF6e0WRnTtJ7QA+QaRdyMCRCesCZE9zlN437WEafZiKvc+eblqCLiEXg0vLz1kCEgpvZNTox20vkgv1RF23lu/ecx/kDPcJxv9aklYk6omba0e1xPIlcCtiYfU+koNr6X0Kg5vej/4EP4xVTzqqOvfJim9NGWEDiKeE4msP8PXW5XGZT8gc/IE35ik1eWdfJ5abZswQJa9XehvY9IijMqeSNefTxh9m+azg/QRsLCSNndaFHzVVfCt3p3m69fSTPrhCIxRBIho/4uyXf27nr6lWrcgyrCZzyWJfEerboPMJfGGVOZMpDrJDBqW10Kx5bk2eLQXi0/XNndjYg8tur2YMHXk7p85iWh0U+wQJyV2lNGhbNKmTp+PoCJBQieiOkGSuezTsptLAkvZ1etkPoHIfPW2cH36uyLSvY2Ghj/zoOt/pAuzcZEw258w+0/6uD39PUp/T5eVmPAxf/KEfzeV/yfV/0SfTn2oh+US+lDfXp9cDgIkpSN7XNvNT6Refw692P5qjYH63H3cN078XXktJ8ELl8P/lmRuObnlhJqF+s5xvKuXkVJ6MxJ6zj3iMlbOd6j+l03fm4vcSqT+/CP2mT0ieVCdmI6G1Kn702p0y6aOOilCJzvyJCJzOKAN7UG2+J/T5F6mJyil9Hr644fI7LDh0ALRpxNzQu/TG+PD6i4CRLD/pB43lr1K6VtL4rFr1MZCkvzfQir2K0OzIM/2h4mYy+03Rx2anGNlcC1FyiEJPiZtxxYDqr/z3vfLxgiZ0C0pnQtV9X5HPU3kLL3vuuw3I9Chncu+SqRqel3XE8aMKB+TyrlgyJauzvfUm72bvxbCEYuio7lPy0MepE73ou9ND93ErRt9OaF3A2XvYyAQoFC2X9CL6EA92Ez1+wNU7qekfjyLiHwkyxizX3XoZg0P+yA4uZJ7iNQtm3wO+XN7oYEpsj/9jT8q08DiyJHQQ17voWxz1jAOeuI6c3S0kIID2Ij3GnmzTyMHuAWph5DJXduJLQ94Rebfwh7lqfaH6Tqp1dclDObRnGaGCJ1+DytJSm8q494wYdXNuTihdxNt76vvESBS/xSResP+l7CR30EE8ll64Z9DqvU0QddnT9qA55K6/aYsMKqQOjcoiVw7xoUc63IGE1ogUF1Wu4OUY9K57Mayq/O5WGhbiMy57XH7v32tNdZY4yl8JzLfkMictrBr/pCErsj9SSLytZtvefBrErEfRHbzEd78MrIDaWIHf5aDMwMHe3DulY+0iwgQsX+JXkzY2lIm5IB99Hoi8TPoRf6zZoeTJZ3rxi1iz3Ves+LP0b52tMM5K8Qt5l1fb4fV7rfc8OfSIY5JPUTukrgtydw6B1v5jGh6FArPIgmdSPc/HlxvEnaQGU9x5ieTJPm6Zu9VrJ7WBHSij0Fpk9TwF5Ck/iqMVxI63Y/fEU57DMo8Bn2cTuiDfgd9/AOHQDahp6TzqiSfg1SqzZDET+chpYdU7imp3VLD66xzMckcmhQZXnXHtWQGeOm7ryIy3zNn2lXLPG3W/k8jLUBTW/FW7WtQypO0vteat133Gzle3BfE5A/KHAZ9nG337B10QHz8jkAnEaDY8/dmt5/yUo9lfmNpW/4f6hgkHYqBj9VR3va8VzrIWx4pMkdZnftdS+gxModUjoM9rUHmyJcPMo/lJc++D/WCbFun/z/lZD4aPTI7Xekq9qpPVXvLO6G3F09vzRGIIkCx519uG0Q6tEwTvBWzrjtniVvnbdckrwnfCp2rn9Mx6Pq7HkJqYxdZXu1WV+5bL3cJo5wCBbZ35Yx9qf3MczK/cf91R7gHiLg+2bZ7OIQN0QLr1TSt5fWp3TKEU+zbKTmh9+2t8YE5AgEEqkrTaIbrpBYBTOQg51ToWixW3Ri6lty5iKWml1ut7lfcPKo1EDur2eXmIeN+dWrx6H7Hler3HOmcY85jz5og/WVkD57oz2UcAcLoApLUN6b78zZSt2/neHUPASf07mHtPY1xBEjdXstIdyuSbYn/q+KSUsVb7eVI66jHRB4jfinVS0k9MY+UpB6qbjnCTZu134jiIHBI5/OfvU/pGIeDST1G7KlkMWinTvonE1FNqnqrxnJ5IvOzxvL8ezF3J/ReoO59jjkEKFRtBqnba5tXbDOuNn/83yq5V0VSE7X8LhcKsVSxksQrSulVhgsp/dgJNxe8lzz+h21ckzm3Cel8q91eU0rmOdI5kzX+j6ne6dp7Sc3+0Spj97KOQC8QcELvBere55hDgOLO/1yStyZwJnVJ7p1EJ2Rnj/UZ0wioa7Nv/0l09CG1u1WJVe0gcRz8v1WWpXNck7uE5UIZ2iaVyPztROZn5Lbj5RyBXiLghN5L9L3vsYPArY9OaEjmPGsmdymx62u9QEhK3TEJ3CD6fZZdVI6YiVsTeBW1u1a1w2aut6fV0jh/5//lxiFVoSQyfx+R+ajc71Xb8fKOQLcQcELvFtLez5hFgJLUbNtQr0uJnImciV2SOV/TqOmynUA1pHrXfVnqeuHpnhOuZoW4oRtI5+zRzip3nJdJS+RwbqetWEISvJTYc1Xx1PYCIvOvdAJeb9MR6BQCTuidQtbbdQTqCKxz6nvmlh9DJC2J3ConSTzVRjdRD6jimaRZGg9J6xiqlNh5AQC7+Tr3Xd+YCYiaJXMtoTPJS2meCVx7ulcg83+RA9xW3YTS+3IE2oGAZ/BpB4rehiMQQWDV9hNWjXCA05J5jKRB5jFpXbYlpf9O3ZFU9jr0S2VO3/XsSiNgModkDjLX0jYTOUvoFrHLDi1VOxO8vGbFqZOqfRJJ50O9DWqlm+OFBwYBl9AH5lb5QAcRAfJu378xbhBuSM2OQtJpLjRZLa1LO7xF/u1W0Ycc5JT6vYrzG0vqIHNI2pLMJZHX99keZUdPPRdS5W4RuJDcVyE/u5N5ClG/3q8IuITer3fGxzUUCNC+53MptnuHcjIxaVvOlstpp7kqbVQt2260DSk9ZlOHmh0Hh6bhs5bCmdBxTX7OGbokciZwfc5zjucg6WX6GQGX0Pv57vjYBh+Bn929Q0PyzrV/S6/3qrHqlr09FOvebuld3C1K8HLFa3ef8XQ6dSFOy93X5E2lMp9lMtc3G6QtneAkwadU7rEHR4e1geCdzAf/p+YzoJBNB8ERcAS6jIBWrVuEK8/FCF6TshXPHkpkE1P/twgJqc1PnzJlyv0fPGzPV1FTP2bnt/rWqtil7H4i882ozIn0ueEBF7Kd83BCXu5yuNIpDudlxjgZ1sZ1Vm6+zYtanK5XdwT6AgFXuffFbfBBDCMCSPU680v/U8sOh8OS0KV63XKW02p6+T3XYQ5956r723QjnjjujG1J6r2Vm5tzxdyX0+dpR+wz+2tWF4TVKpy3CD0kpecOVXq7a893+n4R2c0PyW3LyzkC/YyAE3o/3x0f20AjMGrf85CKOzfmPOQdH3OGs6Rw2V+I6FtcAKxxwb2V3i0r5116JGV7+2/rhkO9bnm3V7Wjo21F7j8iMj9soB8yH7wjIBBwlbs/Do5ApxDQqV41cbPXO5eT/5tibD11rCTpZuzgOXHtsaQ3HcCLiPVcavY2blrayKV3O9vVpdSeo4bXZE5q9jc4mXfgRnqTPUWg0iq6pyP1zh2BAUKAVMjvJ3X76eaQNbG3KrlzJzoOPUfKzi0j+8i4D1UldG6SwvxK1XtKUreIP2NYZREi86MpNK1aoHxu417OEeghAk7oPQTfux5eBEjd/gjZrevbqtE8pbNabmKZHKJPOcVZi4fQgqJKgptE/HuzhE6q91NI9V7bZjbjYHV8rtc7qdxvIcnc9+jOwNaLDB4CTuiDd898xAOAQJkdLnSEbNgWOVttWERfhaR1fHtIBW854OVI9DTmZgkd041J6SHJXNvTLfs6kflVROYvHoDHx4foCDSFwNOaquWVHAFHII2ARdw6ZC0UZmaFsnGPKUlajkx60eO8zFaH7yFyl/Z9rpdJ5kj9WhT3pvEJlFh78tR3k5T+VX1ZOsdZhJ3whl/oZN70LfGKA4KAO8UNyI3yYQ4OAiRhPrccbcjJTZKqJR1rMg+Fu1nOdNy2/F8TvLWokOQeglovUHS7bbpFRLxfWz7roEm6Oe38ZjnDWVusUrl/UAjd9DYNz5txBPoWASf0vr01PrBBRWDcN068uBy7JEApiTOh8nVpUw+Rt5asNXHngqUXEzFpP6dNvTigOpQlruU9xCnhzLKntt51r9gQZJ53i8hRl8h84foHHPOsnKl4GUdg0BFwlfug30Eff/8hcOujU0cNSkvizYabSU/2ZtvQg4tpCUJmgzjqT7TjppAn+m/JSe4MUr+/x2rPspvLcrQg2H/87rN/2Y6xeBuOwCAg4BL6INwlH+NgIpAiXG3flrNMSc45seSG9BwFMqbaD2kcDJs8ZXu7rl03jNTv7yWb+hy0l9oTncugHJH5i2lB4GTerhvh7QwEAk7oA3GbfJCDggDZz3cJjlWHq6GgJn1pP4+p32UnVhva2Y3La1W9rCtt8lY5aSoIOcjVxhz28G/iRhKpv5ZI+q9sM48lksE1ijM/lMj8qia68iqOwEAj4IQ+0LfPB99vCIz71ak17+wQGVtSeEgat8LG5CJAS8fWNS2lywVDSoOgx6o93y1P/Nq5p9p9X8ip7TnU5i26Xa12J+J/hMj8J+3u39tzBAYBAbehD8Jd8jEODgI/u/sF5WBzyDKkctcOdLHZS0nc6lNrBaQjnu4/5sXOY0iZAjogoXPX5NxWJoQhLcgi+q/h6MYSO6nZD15/q9k/HZyHxUfqCLQXASf09uLprY1hBCjd63HFl/4njIAkai6VQ/xaUg5LxqP71qr3kCpeL0Kssebf27aq3HW3ROxTV9wx9xnrrrj7g3Rt3aWbzjqevOLb4oiXP0Uv6Qj0HwKeKa7/7omPaEARiGaHa3ZOVYnVKm95xoe85S2JXi86YiYCmuf897/+lG2OPfOEZqfs9RwBR6A5BNyG3hxuXssRGIEASYwbdASSXDK1Orec8FAupdK3bPdaHS8d6KSzHJUjL/drO4KFN+oIOAJRBJzQ/QHpKQJzrpg7ZYe9jrp6woyXrsLfp0/7zjt6OqCKnZNU/igk8w0O2mNFxarVi8ekdemwFiJy7UEv7el6NJrUeSEg60hPeK5P9f6x8Pqdqk/OazgCjkCrCLjKvVUEvX7TCHzx/Kte8onjP/0r3cD0Lbf8+7wrzxmdnKXpnjpT8fFr5uy0ztuO/lNnWu9gq6GFQa4aXg9NLSAe/eJpB5Cd+7IOzsCbdgQcAQMBJ3R/LHqCAEnlv11w5517cudE4gV9L7/iszj+ddjBe334Ex9+y5d6MtBIpx2xmXN/VW3nVcDJaduS8kOEr/omQt+fCN2TulS5J17WEWgDAq5ybwOI3kQ1BEi1frckc1lbkTkurXX+RVeeTguAVfgjlfxHrvjT/E2q9dj+0mQz37D9rYoWq3q/y8HEQstC1+R5Jm5Wu4dU+HLxgc+r21ivo9h4446AI2Ai4BK6PxhdRYAI+a2nfu37Z3GnR05YVkxZ767GGBY/tkVx1UY7JscEaZ7I/z6S3k/ZdqfnXX7EPrO7qvpeddzW84qf3T0rOdBuFsiRvEPjSdWV11OS+is2v2ONU2+b0c2pe1+OgCNQFE7o/hR0DQGSsK8gIt6bOzxh0twCBA5Cx//yyCF1Wb5O8E8QwX+Gzt9DKvpvdXJilrr9q9OnlV2+e8HCTnbd3rY1kVvELiX0FPFjdK/YfBEReg0MPxwBR6BrCDihdw1q7whe7JrM+TuTuiR3kHqdqBv/N4EipPjPEsF/sYm6wSpM6LMnHZbV7J4P3Fhst8WT3Sf7HAIOzcCSynVZXQbXn73RAiL0rbKA8UKOgCPQNgTcht42KL2hKghIiVySOJ9nNTzb1A3b+ojuiLRHdV8/twnZ4L9Aqv5lsMGTZ/2HqoyzXWWxODlzxS4FFgCfnbZHu5pNt9OKLV5v3GL1psPbanXWSg/MSzgCjkC7EXAJvd2IenujECAHsucsuOG6zy+9/dYDJ83YppgxIR+kZ7zrPO31HqwMAifyLvh/WdC6Rud+TGVu3nPv3f9rn51nPpgzKloYvOVtr9//e5P322YlyoOgrf5y2kIZSO6Tp2xefGzh1blVOlMuR/WOnkMqeUn+VGaNC+71d0tn7pS36ggEEfAfnT8cbUWAyHvm2nffegY1Op02zXh2buOUjGRUUco4VnzhSxcUp9z6ZJDUq5JpqjxdR3jc/aSi/5QeEEn42O1rCzIDjIcz3xlP/K0k9HYec5ee387m2tNWjtpeqd6d0NsDvbfiCFRBwAm9ClpeNojAynmXnrNyyaK30PaVZZnYntW6EZA5yFv/z+UuvvCS4qT/2yiKfkg61wSeInTZCdvvqc53SfJ/s74Gp77JU2cUp9+9bdufjGPGX999e3vOLHLIndpZ468P+bslB08v4wi0EQG3obcRzLHYFEnkr6OMaaueWvFASeZViJzxAplbB0vtBx1yYCPpTAhjS9Vehbytdtlur8mcy568dHaxZNHtxREb3N32Ww97+4aPv7B4zzrZSo62j8FssBWbfHdG6L04AmMWASf0MXvrW584EfkyUq+P2C+UJXS0js/yu9WjvK6JXX4/64C04Z1JHf2EyBxlQoflWBdDCYT/w3VfUZoE5FG1Hd2HzJh37kObtl2t3/qd9xYcAUegHxFwQu/HuzIAYyIV+3lrjt8oK2NbiNRDEj2r36VdffbsTZNSOmBjwpbkngtnjOx1G9LrXqat5TEwqbdK7tw2pPX/3HBc7lS8nCPgCIxBBJzQx+BNb8eUScUe9QbTZM2kLsmd1fMW4YPUWUJn23rVcYcI2iLbqsQLKVr+6bHJhUXVccsFgpTWoQ3wwxFwBByBEAJO6P5sNI0AkXpBUnr5FztA3Eze2sYes7uDyCWZ56jd5ThCJG1J8VWkc2uuVpx81UWCbFdL/bx4gKSOv34/SIOzTr+P0cfnCAwbAk7ow3ZHuzQfSeIgduuIqdq5fMyJTtvUt9s37Rwnx5FD0jllWErWhAvSZSK3pPWctnNuF/cjk+z0O6nfMn/Ri3Pm5mUcAUegfQg4obcPyzHXEpN6TEoHYWtHOetcDnhVEtJwe61IydyGlr4tgs8Zf24ZXhxYCwY5pnbHwOeOL6fcOvdd//yccl7GEXAE2oeAx4q2D8u+bolUoM+45Adzfvjg3YvKHKlrrz96989xG25cbLDxxAWUze2Lsw475iuxCVF7cO1ei9XuLKWD3LXELqVwy7YubelaYtf2cySamfPw5l3BmuPQrc6kbVsTfEj9niux6/z1ehy6vwfX/X1X8KjaiceiV0XMyzsCrSHghN4afgNRe867Xv0XGuhz9GBB4KHj0QfvLzadOv0fRO7fJnL/tC5HhH4dnXuBVd9SwTcTn462NaH//sZbiw/8/J9dwV0SqUXaIUk9lXc+NfgQgUv1vm6jH0ndCT11p/26I9BeBFzl3l48+661n55w9I0rH3lwFJljoCBt/h+f+TvOgeyXLVrwzJsvv+RTl5/y4VX09w8icUng9zVD5qm4dLRpxaazgxyuM5F2WvWtQ9P0fC3ibheZy7lJ1XtoDLx1a989gD4gR8AR6BoCLqF3DerudkQE/MWFN1zzgfGbTE52zJK6JvRQRZQ79B3HjrgccoxDoZjKnRtJebtLBzls2IKjVfIMzc+SkC07Onui62utppvlcUmJXPYRctKb+wLa4OVn7c9al3yAAgUevvjqdcZvNbvcxMYPR8AR6DwCLqF3HuOu90Bk/u0lN8/NInMeHEgaxM5/OC8JXk5Cq+rZjh6aaE7suXaUk23JeHRJduw81gmApRYgtnCwrmlbeVXbuZyPVvvzdy214/zpu55dfOboqOtDJ6AKtrnmbdd54HxXEffOxjoCTuhD9gQQmZ9JZH40T4vU7ckZMpmz2p2J3JLcuTEKSxrVbioeXVawCFxL8rK8tKXHCLYdaviYZCyd4TQArXrUx1T81rxCc+0XUh/3wQ9fkHz4vIAj4Ai0DQEn9LZB2fuGiMy/TmT+dniw4w9kbnmzY6RM1iyRWxI6z8hynqO9zRsTziFyy3Yek8pj12JIW1nWrPKxLG8hD/aYLbvVjWDkGEO2ee4/RzPRL6Te+1+Fj8ARGDsIOKEPyb2+6fwzDyYyf4ckcP5sSelSnS4ldIYjpG7n6+QwNwq5ZrzbY97vktSlDZ13N9Nx2lVupU7WIklStptrp28md3xovNohLqZ1iC0ynNSrPBFe1hEYfASeNvhT8BkAgT+ed86F647boJTK+WBCD0npKCfJXEri+JzrJCdj0NGmJPZQUhmLyC3HuBDha9W3lMxDzmohooyRYpWnS9vKm5Xatcpfzg3jsRz0rHFOoL3af/CCXYs3/AERhn44Ao7AsCPgEvqA32GSzF/w/bfs9xjIXBI5q9xzbOghCLSTnCyHa5LIWe1uJZXhXO4sceeSOfen1fWzd5gyYshauo7Fh2vp2/JQ58Ytm3iVjV1yneG4P+mIpz3tpUYhZC54iPZmB4njDwe+33vQf/TfnuoD/pvz4TsC/YqAE3q/3pnMcZFkjg2+10VxqWJn+3lMOs/solFMq+HnL14+oolYTncm5ZDEHSJ57uD2h4ri11dcVyBT3MeufaqUUpmMtfq83RJ3zNktJoXnOslZ2oZUmBpw0ZI7LyBA5HzgM/ZU7/fc71WfRS/vCDgCoxFwlfsAPxUkmc+n4a/HU4hJ43zNInhtT+f2pJe7DGfj63CMmzllYhBBvcMaq9RjMef6GkgcBL76aC7ta7Pqb1lPfmabeUwKz5XQLTs9S+jtSKLDxA9SP3LCsuKMJ/42wE+9D90RcARCCLiEPqDPBnm0n0pD31oOXzvEgcT5LyWps808pmbXUMExrkpKV0nwoYxxsr3fXXVd8Ybz/t6WO5RLrrEYcnmNyV1L4blSuTUpy3QgtQ8pzQPqS+nc6qOb0vr897/+3W25ed6II+AIZCHghJ4FU/8VoixwH9EkzVL4448+XBI5/g8RvjwvneFkLLqMR9epYVEf9ZBbPRS2BtKWf7LPVFja2pOnjsjZ3o74ctl/DvHKMrq8tac62s9dOMixSJV7yKte2s1jxG71b80V0vp71nl2Rx/sbY4982sd7cAbdwQcgREIOKEP4ANB0vm32KNdkzq+y3SvTOoxdbwkaymha693Kx794fuXmwhKRzj+zAUte7qW2FcuWVTmbJd28nbeKia+GLHLMpYHO4+nGRKXcwmRuDyvSZwJPjesrlvSOi8SSDr/YDvvl7flCDgCaQQ8l3sao74rcfZrd1ulvdq1jdwKX1tx35JyLqjLCwEdnsaSd2jSHObG1/H9kDe9bkRxKX2HVPIpO/rzP/qLRptM7Hs+cGMxZb27isWPbdH4H4Wu2mjHyvcoZBsPNdSsDT42sFDWOW0/D7WhneK43HHveqNZ5dSvfT+K0+e2vbt494KFlbHkCv+54bji5KWzi7MOmPC9I7724zc33ZBXdAQcgaYQcEJvCrbeVSIyv4cIeTMeAYenWd8tlbz0hGfpnSX62HaqksC1iv6gQw5s7JAm9zZHnZiNPUTq8Gjf/fjVG7CA4ODMhWO7LZ4sps56QfGSfXYd1ecL//Pajt6YEKm3SvYWsYdIPUTicuLNErpso4rzHBM513/o9l/6e6WjT6I37gjYCPgPb4CeDIo5/7d5F8/5DoasiVxPI5X6VZZnyR3nWHrXpB0j+2m77Fp6u1dxkAvBDpJn6Rykdvw2Tyt232v74gWHH1lWWfvuW0f008v90tv16OiY81i7OdI7SN8yJaQk9NR8QPJwquPFFT5bhxN6Ckm/7gh0BgEn9M7g2pFWY6p27jBE9FIyT3m8M8FbkrtWuaPfDTaeWLxoz10bc84h9pR0DlL6/nt3K6bvtGux7oqRW4LCvp46EK8+5+HmQtxSbbfzuiZznc3O6kvWkdK9rGtJ6bD1t9u50Am9nU+Dt+UItIaAO8W1hl/Xav/0hKMvknZzdGw5umnbOW/UkiJ8vg5JfNL07RuOdWhv6YK/ln+h/O4yr3tsxzTuQ8ajawAvPPuC4p8XfKS45pwPFNvOnDqKzFEeHvCp40PvPzRVxLye4/3eVMOqUoxY2QFOerbLkDbZlEwTmxpXt+aWGodfdwQcgc4g4ITeGVzb2iqR+deJUF8pG7WkbCZveU3Gokuyz00Ju+HmU0uCxx8vIkDuD969qCR4JnntyY6yqRSv+noZqnbGyWU/WirXgDKpQ+VuHTj/+/+3W/Z9YLLL8VhvFzGGVO3Sgz3Hi90qkzOPbHC8oCPgCAwEAq5yH4DbpFXt1pBDznGa3FE3pXJHmdTmLHrjFjiphQ5Lva7P4bsVz/74+M2D5I5Us9aiQdrVESf/gZ//s6/uckjNrtO95m7CEprcp0/5xKhEM63a0XOAdBt6DkpexhFoPwIuobcf07a2SI5wWeE/Vtiazu2uB5Yjpcv90jWJy3Sw8Ey3jhwyh7StyRxEjiMmqes6LK3LrVZfuOM2bb0f7WxMx5Jr+7lUuTfTr5U1LuQB30z7XscRcAT6CwEn9P66H6NGQ5uvnKtt51rKDqnfZdpXqY6P5XXnAchtVfmzlVGOyyOvu5XOVUvQlmTO5C0nHyNy3gQG/6dU72iziuq9E4+DtH9r2zmHocWyv+Wo3a1xW2p33omtE/P0Nh0BR6C3CDih9xb/aO8x6TxkD+fzkrS1Hd1Sw/NAQuFqOiWsDmOTjnFoKydXO8qF0sbm3haQOvqCVC4lc9SHxM5S+xEb3N0VD29r3NLJTV7XKnbtBCdJPpSEhtsLbfCixwOpvdkFQuY9eSyznBdzBByBNiPghN5mQNvZXEg6133k2MRD49J1Zf721Fx0algpjesEM1ZbIdJP9cvXeTFgLQrYjs4kD693xLT38rBs4rEYdK1yjxFxyGs+N7d7u3ChMd7Qrra8HUfAEaiGQG/fcNXGOqZKP37NnOd//0tfjM6ZHeFS26amktBYnTCxW6FqeltV1JflpFo95ulu2c1T3u1yrJDOuQ2tygeR66QzIPU5Hc4mVyVJDOYSy/ymQ9KaiSEP1YEtvRMOchQB8KV5V57T0m91xR1z11hww3XnkhnnMGqo3B540oxt/kLfn0MfQ468K6jMF2cddswnWurcKzsCA4yAS+h9evNo69D3wXaud0yTw7WIXMad8+dQvHpsISAd3pjA5TkrwQw7xoVInMcur0sv9lwytyRzS0rXKnj03wwpVnlEUlK0JGlr8xVWszPRd3q8VeaWWfbJzHJmMTIzXfiH8859isj7TUTQJZnjoO/Ppe+xqJzxVObjtHFRLUewH47AGETAw9b69Kaf8YpZq9YfP74cHRO75Rynh6/t45Z0nps1ztq4hfuT+6fjHAh+06nTy4xxuRuy5CSICd0eKZ2zkxzKLrzpV6Ns6bKNTmSQi9m3Lc/1nHA0LblXSSBjYdaO/O45P5VmQ9ZIKp9ERH4HkTaIudEVfS9mTLB7xgJSlpWlqN7nSVo/LmfMXsYRGBYEXELvwztJUsobmMx5eLlkrp3iuH7MEz4EQUjdLiV2WUY7xul2c7LINXM7pMRuSeWyzWYzyOlxaaLOJVwpeesEMtoJTn/X6vwqzm0h9Xo/hLHR8/5LIvN7CePaCrZ+aDIHgUu/CxA9whKxiNThiUT0H6F25zTzPHkdR2BQEXBC78M7R85w388hcD10i8ytVLDS6z3m8W5BE/J2Z5LPyeOOdlv1bg/dthxHu5Aa2zovz2kSxxislKxcLtWenEOoHUvC53pV1fGh7HHtIvUqCwzMgfxEPkoq8pX0cT/rfkL6RmIgHLiv2ACIP+M7CB5/8xcvL89jASCJneofTu3/ow9/4j4kR6AjCDihdwTW5hu94k/z1y9fdo8+XKraqxB7SApHeynHOZSp6i0fU8lrBJhocwi3KnoyLj2nLrzdLdLVYWQ5baFMKGRMStgx5zeLmLnNZsdkjT22AGgHqX92tzULkop/snLepS+MYUdlfkxEu4r8RP6TyiUdc0HqVLbxBwJnEoeUDqLn5woED2IXx5bU37dz76WXcwQGGQG3offZ3aO87VdSrvQXY1iazJnkqwxZ2tCl7ZzbqLLNqtWvjlufPXvTqA270W/GBitWf9JezlK+PMd1YEvHYang5X7rXD5k1w5Jnaz+lmrw0GfuI0Tcsi0551w1fpXnAWVj5N2s5/tZB0wofSgevn95ufseDhAr27iZZPGdz+vrIXt47vygemei123te/xp/q7LBdLLDSwCydXxwM5sAAdOksSetN/5i5nImcCrSOuawK0ENJaaHeVyJXQtmctMcnctn1BMI3Wotpe3y34uVfWa3OV3JnIZusZJZmZQSBuOmIo4pT7WErSlms8heK0psCTymHTf7se82b50oiGMS5K5JFj+HLoem5NcBFjl2IFuqbiIRYYfjsBYQMBV7n10lxdef90nQd7898iKFcX9S+8p+H98xh9fl0PX0neu5G3t0BaCxHppoywTPIjdcozLtatzv5bEnbpNzdSx2qxql9aObbq+ZRvnflOLBi5XdUwprGBLD6WAxU5yzajfIZUzccYIVKnDRww1dg0FpWRvzRFqeRx6XwGMjRbL30vh4tcdgUFHwCX0PrqDi276w77Su33jSc8oCRznZEz64ocm1kZN9sKJa9xZflx/fM3mzoeVAhbXQl7wuJYrocs879wfkz22VQWBW5uyhKDmEDQZiibLhs6jDCR2WV/3YUnqKBMiU5ZQrXhxrWa3pPIYSXP5HHt6Ltk38/hiHNbGLWirGZX7Dw5/VoPM0Qar3HPGlpK4resx1XxpS6fnTx9U542LFy9+y5QpU1qKk8+Zk5dxBHqFgBN6r5BX/ZIEsT95tzdImaVwJnVI6fhcktE4OAbXjscfrUX64Dr++OCyoelZ9vQUFDKZjBXSZtW3iD1Ewnxet6M94qU0HnKIC2WOQ9sgeThwveG8v48idh0apsei7d1Vidcic8tWHrKrp+5R7nUQt5TEmyHy8lnccsuyS/lssISeQ+xV7Oa5ZUPlbvnuaSvJGa8BES0W/khlZ9EJZJm7jP6/ffpOu540fqvZT+Ti6OUcgX5CwB1F+uRukDPcRSTdvlJnhpP2dEnqsWFDqsexfNWWpQTPEn4qoYwOcbP6kPZznVwG5SGh77LbVlHHOCSU0VJ3KFGMJH+0H5PG9Xi1ql9uryod4yTJahu2ltjRR4xsc5zomAhDjnV98khmDePCY3ZoSOe8yJMbA7HmxiJ3qWKXznLoOCW5xwYnHfOyJlEvpE0F9UXKkzR2/KDuB+Hv+bL937/2DgcsqtKul3UEuoWAE3q3kE70w5nhrDA16d3OZJ2SwLk71GUVPcid61nq9RxCl9OwwtbYue6gQw4MzpgzxFkkbsWnsxQe82q3OkvZ7p/xrvMaEqa2U6c8zGPErcei1fex2PI+eRyzhgFVuz6YuCWp4rPc9EeTu+X1njWAzEJ6LGzvl3b/zKZ0sSen7bLruXTyr5SV7rQm2/BqjkDbEHBCbxuUzTdEsedrL/ivf3vCSvGqPd3xnVXrLHlbPeuUr1gIaIld18u1oWsil5u1gNDR115HvTeYsjMlofO4Qo5uucQOQmepHG3yhi38GYTOR1XVecpRLaRaT0n3qXabf8raXxPSOQ6pYpdSLghTStoWsbciicdmpKV0S2rXY+UyuV7x0uyE38A+x7xvGqnrXXpv/6PmLWYi4ISeCVQni5Fd7xMLb7jmU6HNWEK53Jncmaj5f4w1dk7ORS4KrHC2FMlLcmcJf8G9axe777W9mdcdtm3LVh6yk1v29pCtXd8jSehWPHpMQkdbMee1VsLLWqnbyeewStuazK26mtBlGUnuOI8Y9nbHpafmk0PcUuMwc/paBcIyt5j4UPk/z0EuaNEnfb995/d9ZhY54D2aGoNfdwTaiYATejvRbLKt779lv3uJnCdp4pb2dGlL526qZJGTbUnnOSb/KROWl5I/VPKaxGMx6kzoKKO1CYcdc8yojVpCmeIsW7mEM4fE5R7svEBYuWRR8esrrisoWU85v5vvqvmBTlnvruLkpbOz71hIBa/t71Wd2az62YPqQUGdQCZGijLBDIaqN13h7xa589RaleAtdTvats6DqNtxzF/wL2liuJHI/QVE7qs9WdvRibfhCBgIOKH3wWNh7awmh1VltzVrOlaMOpdjsmZClup8lEHfISndks65Xajd3/6xj2cRuiZztKGd33IJHep8kPgX/+PEYvFjWzTImz/z+CShS8c3GVqGsrEsbpYt3HKi4z6rkn0fPJojhsA2c217DtmiYxJ6aG6a3FEu5liXg1HISa5dBJ4aw9y5yzCH37/y5LN2S5X1645AKwh42For6LWhLoWr7Y1wNT6s/c+bSfkqhya9jnFeO7/x9/GbTC7Gb1KryQRfc8KrxcLzYcW7S896SPsor53SpHSeQ9ByDjmJY0Dm3/zoR0opfArtpA3S1kQu2zxywrLiqo12HHUXrVh0XUiTs874FnKya8Mj0/UmUlK5JaWHvNpToWeoJ+tKgkcERY4JCADp/nmMUJt3+0A6ZDpeOOddr15FxH4tEfvu3R6D9zc2EHBC7/F9puxwH8odQjuJPbVZC2eQY4IPjZGd75jwNy5j5Dco1e8y7aqub8WSo0zofKh/TmLD11mlLoncks5jmGtylmWlitwi7ZAH+yBK55DIWfoOkXaOHZrxi5F5SLWuCZ7b4n51PgSQPg7+H88nJPxeELl+xurEvhuFqD5G164mYjd3mct9H3g5R0Aj4ITe42eCssO9Uu99HhqSlIxZktd533OmkyJz3YZUy2sJCS/LFfctKatomz5sidNmjczrHhtfjhTO9ZnIY7u3sYSuJfWQ1B7K5BYi8dy851yu30kdu9DN3mFKQ7q1vNclgYfIXErHFolr8m7GTs59WGFy8hlrl1qdneHwTPPBiwkQNV/P+f3R4mJdKveSW795zGNb7faaF1Nc+x9y6nkZRyCFgBN6CqEuXpe2ci2Nawc5Te5VHOR4Sjq0DedDW7CGHOPwUpOLCsS8Q+WOc7nZ5JqBWBM5CF56yksSB4FLckd/TOpVpGw5Tk3mFrlbkn6/hKVhvEdscHc5JZA4DkmO/L2KBB67j7FY85QaPuf5sOz6rZI5bN9YrMKv5IH77ik22qSWqVEfv1x0W3lqIZmZYLaqS+I5w173jmt/hAT07suUg5aXSSLghJ6EqHMFVtwxd63vvPdNjQ60lzguaEmcC4cIvwqxW7Z0i+RTCHDymumbbVBPS1vLKX9v/UUXql/Vjq7bkV7tmuC1Qxx/j9nUU/O0rkvpO3a9mbar1mFPfBD1zGnjks5kD98/cm8mTd5V47Ix3pAjnN5hjefWjHQewkVqBqqQOaRujoIAcesDRM5kHiP2Wvrl2womeA4JRebE2EGS+hPbHHvmOlXvt5d3BDQCTug9fCYW3HDdW0Pq9mbs5VXIHNOW3u+pTVtwPRa+Bql8wb016RxS+vTNVpqOcRLuKip2WU+r2/k72tt9x02Ka268L3hXQ45yIWK2JGrLKz7UYbslcknaUrLm2GiMI0XUlld6yFM9V0KHNgax5DisPc9DxN2MdB7yWufzOWT+u8tvakjeFoGH7mdISufy/HuWeyv88qJry99CRHpfm0h91RYvffcWlJhmcQ9fSd71gCPgqp4e3kDyer2VVHoz5RC02h3XYglncL0Ze3pKEo/Fomtih1rSipMHsR9+yDMbed1j9u7YbdCOb1Iyl/Ug8f/XMW8eEa6G6zGp/NyHSg/k8shRo4fs5rn29NzHjYn7xOc8UEra2vM71I5Wm+f012oKVEnm7ZS4Q2O3YshxLuX4Bkl83m9+GoUEhM1SOj7LBE1r/PNPQbW7TOoE8gahy8yM3CnObzZ165hafi5J6zvm3Dcv4whoBJzQe/hMyPjz2DCqEnrOlPR+6aFQNm4rRvDsFMeSuTQdTJq+fbH/wQc0tlRFe3J7Vd4VLYfsQ8TOY0QbH3rX50ZMPxW6Jgk9hVu7SVv2xw5pOBci7xhZy/zkaCPmsGalPE3NPXXdClNL1cm9HpLI5TxTZH7+OT/J7S5I2jF1e6pxrYmLETtlNfzi+gcckx39kurbr48dBFzl3qf3Wkq8KfV7VVU7phxTscu49ZhHfAg6jAfpX6dMIPUrZWgrigOiKEtSt0ibyT6H9Fu5nSnCbpf6XJI3E3iO97gmaSlZ59q7ted6rko9hGs3pPNQTDmHtMVU7FB3s8TNzpGxZ0RK6LpcSN0upXNdh6V16zwWwtdf+2C5O6E8KNzzg+Rf81lSv4dtR6086F53aBEY6RUztNPsv4mtnHfpM0PJWjBa3g8dny0JXXq9W5+tBDUpFKQUnqOS12QPuzmPG59x6DSzWjrnMUnSRhn+Y7KX5+Q1Wd/aqU2+xCGt48D//CcxaRdhWzhjsQAiR2x3yKucyV3X1yFafN1yYkvd41Dd3HoyckHugY76IXu43CY1tx+UsxYbvHDJ0QhAKgeZSwdJ7h/nJEGvevrOI76zI5x0iNNjB5HjwC6GOPi7NUf9O+AySMgkQ+H4/F2//OqyKlh5WUcACLiE3qPn4KpfXHaK7FqqqXE+tiEL15O2cy3Ft5ouVtrJLSndOifnwGOTGeNCZI75aMmc52idt7ZFjYWtWbe43d7uVh8yrrtGTrXwMD5ChKXb4nIxVXmrdvBmfgbath9qo52Obxq/kKpdqth5ISfr4twDQv6FffwBKpDjzc7tMJGHvmvpHKSuVe/4TrkoKBHOM0ZJ6iSlb0tS+i3N3BuvMzYRcAm9R/d92aIFr9ddh6RqPs+ECbKWf7IdqX6PqeK1TVxK5Fbud03gnEkuNAceH+zqt6s9L1ga15I4txVSrWsi197uyOGec3SKzEHgSJMKKRy7kUEShxRbVa2dI322Ip2nMGIp3MojIPP3c4ga2mtWCo+NBXO0zAxcJ4STJPNmwxW1el1+Z0ncCnGTUjoTOEg7ljwK1/DbRty7PEhKvzl1r/y6IyARcELvwfNA+dsPSMVo87BiqnOplremEaurCZol8piqnUPX5P8h+OTYKL1tAZLW6nNZV6vUuTzXQVn5WdeN3UaZWKadtxu54FmNzgTOG4mAiLRKOrfvqguA3HZD5TBO/guVYXs1/kd4GpNpKL686phynfiY5PG/ZTtHOJo8pJlFnmeVu1S94zM7vkmy1qp0lszZC162q6V2Dl9jlXtI9Y42YFPX43/8mjn/URVLLz92EXCVew/uPRHc+2LdWjZzPhci6WZSwOoxSDW7JHaZ+lXW4TLoG7ZALYXg/JRiOTnGLadqqx3jtBOchUXKo53ryHKnXPvIqA1ZQl7uVbdP5f5A4KuTtjyrJELkDZ87b3EjQx7KspajWVLv9GOpx8ULEdkvx5V3eizcvnTs0x790pkP5UMLgCWLbi+bk74TljMcq9yxiQ+r3nGOneKkc9watDmRVMdLPKCqL1QGuZAjXC6OsKmzKWHhTb/6JNX7VG5dLze2EXBC78H9p5fp82IquByHthzP9pwyFqnnQhIieq7P84BUItXllg1c9ikl8VBZXQbf93jypuIQ2uP8hElzG81JlWsqhC00bzi0cTw4l5Hq6A03n1rM3hxXaip2eQCj+QsfLU+x0yA+y3vD5G+Rau69kOUkWfN4uG19TfcZ2gylmXFUrSOd/0LObzHtxfXX3tHoUtrNLRu6Hpsmfd6xj8uVknzxZPlVerVbnu9SCsfvnNMho65MOIPv1iIYkSEzp89qDJEcaN9A+d5/UBVPLz/2EHBC78E9J9XaZMtBJjYU7QCnc7tzXSndN0PoaEfGqFsbs6TC2uQLjMdlqctlghiL8K14dW4vVBfXQzZyqXrPsaNzvvOZ02rJXSRZayLUxCnv5ewdanXHbVhzisNnK+te1dz3KZLWUjh/1+e7LYnr51yH3OlFhXYGRH2L2BfeMq/RtCWVx8LWttsCZF1LKlOS9H21iAh4v0ONDjJnNTwkdimVy/h0K8EMwjf5kNK7JnuU4d+13OzllvmLDqNLTug9eFcPWpdO6D24Y1XJ3CLr2Dk5pVAu+Ni0Lfs6ymsiH0lKq3NgI/1rSaz1jVqsvpqRwnU7epFAjoZltrdzKYoI9m1LImcijyWUkXHijz44rkHCsv8q5GuFeskFQiuSeUyi1u0ycec43XXjZ6Fj4tFnM5nueKwpX4mYpB5KGqNt4kzwEh8ppcvyUlLnzyBxSfr8W9F4L7zhmmKLfWtS+jr3XX8o2dLfue7uR3y9G/fF+xhcBJzQB+jeydA07fmupxFKB5tKUsPtaOc4nfc95DwnFyv8skKqS31UUbuHbpFuA05FJz6nKE4qaqReUFpXEDsOfpnjpR8icybykIMYk3CMjHOI3pLm20WyVhIWlsix4GGS53LdSNXK909nfJPkrYk8hEcsaxz3I++1tcue3laXy3PMOqvW0Z50jqsR950jUsPKZ1MnmJHSOF/D7wMS+yMraur3mOlNSulkS/8s9eWEPkDv614M1Qm9F6hn9qmd43S+9FjCGa16rxqXHvKCTw3dekGBRFIEjnZjUnvIw53Hg/YZH9i7j67l+lhN3iJnu57DN/ZcVcAOnvL05nqatEOqbAurbqu3pQQvSRPkjkOTfDsIPkS6OqWtznQXera0Q1yonJbALQ93fY6/sxMcVO8had06L89ZHu6NRUaptRof/fnI1Ml8b7aY2NhrYOPUb8+vOwIettblZ4BC1l6b6wVrOcdpKd0ifSsWXbeV43gXgkZ7wEvy104/aINf5KnUraHkMmhDLwh0W5QuszFcjAfx4LzBSewWI2Yc88mRrK12NJlbiwIZ8tXlx83sjkPPsLiQIWgg93kXzylJvmroXE55q4zERn62kunwZEJ95fhFhPBn6VxK5FacORM4q9mt0DX0EZO8eQy6fa1+5z0SuDyp3Q/qh+fHx9C/CLiE3uV7Q3G7B/IPnlVuKdWbJm0rQ5xF0NYOaDI5TbNTDznFyR2muG1IHc+fsU35NUdKl45wsfHJtkDunJRD5qiH+n3l9FVlXvk5D5du6AXSu7KzGyd+ycFBO8XJOrwYsGzlluo4R22cM6Z2lrFs8RgnQvLwzOA+xvZYzzUZpIjfSiTTLbykhM9e7lCVl6FpdFh53kHKEzcZfSdi8eb8e6/Fty83b6OlfZu/ePmuVPjidt53b2u4EHBC7/L9pJfTdtwlr+Jjq3n5w5apVfV5OQ0dk96st7uGJuQsV7Ov1+LQ1y9fULXtI3FMXKP2Px+5Meip8loFH/LGx9hmTiuKEymSuBw/bdm99vrwWh8dYhZ7FJqR4FmlrMkudL7Lj2J2d+zcuPKRWn5+HCGv/piTXo5d3Cpj4VcbxcgUhNoJMidcTYPApM11mcxRrrSD18lbbrFqAWnti87l+FrZ9oQZI6rL3zguSDs6OcedSKc+nn3jvOCYQ8AJvcu3nF6E26PLlFTOwwqpyvUPPzUNyxku10Eu1XZqR7YZImwnVwLnPlkS1/V0mFvIhKC3hdWElJpbznUrpE3ah0NtdEvyTM2BpWIdTod5Td5uNv2tbsGSsLVmItWfdR2agNyDy26hdinbeqc9iuKGq8tmctXv7BnPRC4zxUmveRC8tpGHdl/j3zf+l8Quv8fmKp/lEu+Ja+VC4+XGOAJO6F1+AIhgSnqTP/Qce1tqmJbEriVzTeCtSO6jc7/fM2qREvIVCJF6juObhQPs5zwXy/te56ZHGzqXPc4hAQzUylUPLa3mqp+1l3c3CB59aG0Db7KSM+4cCToXPx221krIGvqcPXvT4rYbar3nSufSw12Pm2PTazHoIxPK5MyRn3+dyz22mJehnnima/eq4RhX0IYtG9CGLQ/n9O9lxh4C7hTX5Xsus6fJH3bM5qaHGLONh6bTCnlbbVpSeWiRYjnDhXZMS90O3Ra+y+0nrYQtsk3eVEZmcOPrIHPO6pYah74uY75zvLKt8DK0GbIx47y8lnIag2Mb/3FdXjCwM5x0igu1z/OU1/U49DXZnzVmjZ2cS8rGnrovkJohWedK6GgvJGnDjo4/dpgrd2QjmzkffM1ynouNk4ne6heOcfit8vtA/84W3HDdcSkM/PrYRcAl9C7fe5lgQnYtV/OpIcU81CVx63IpiT3Vb+71XC9+2Z6Wzi1pPSTBY/vJjSchRrh2xFLSyk1oYFvXRzMSOohRk7hFZCESD6nnYwsDWYdD0GSMeUrajmkD5DX+zP3penrsoTnKhQE+y3KyjRxTRew5fOnBuxUP0D7oOHRmOE3yOv5cfi/3QW+ket25mEJkrgmYJfiac1stPl2WkRuySC1c6B2AMct9ESyTGNnRsVnLJ3N/i15ubCHgEnoP7relYpce7+0YkvRmx0vCIvpmpXZLXS3HLDUPkmg1gcvv2mvdClMLSfW8/aTGDd7tTPD4X46bd4yDRB5y9pN1ZdtSitdx5VrS1WOSRC8dyCxnMn0dbbHUveTmuQ3VuQ4/QzkpJVvPU0h1bhE2txd6LnmcoT4tqVsvFLjtViV0aGtYSrec5EK7r2kVvZS6pe3ccoaTu69hHiijpXa56xqr4LVWLpQ7oh3vA29jbCDghN6D+yx/3Hq13qo9HUQus8jxd3leTrmZePSQul3OBbZATaLcr/R0t+DX5I4yFpmjnd/feGu5WEF/TOBMxNgMBQfOM4GzjZ3LQiK39obncVmLAJbiWTKvQkKhMLaQNI7zIHEQOJzBIIWzs5qMIefxask3xy6tFxlyQWC1a90zSdDWAiCkEaiCne5Xmlr4GnYpg5QeIm6U0+Qdc27jrVN1yBoTtqVuL6V7tQMb+tW2dL0tK3Ys5MVw6PeKdsiOXovB9MMRUAg4offgkbCcZKyELFWHJlV0IenbSkxTtR8mOU2ErGrHXFhqsfKUS8912be0j/Nni9y5Dq6xuhm2R/xhfiBr/kNZJnZ8BrHjGhM5L05Y6mbi5z6kBM/2d1zDvCwy0oSawlYTIZMhEzlInM0EyGanJXk9BrkwsIhath8zE8Q0BlIS589aJc84yP9DY8WYUiYCC8eqdUJ2dSl1y4Qx6JPt5qxORy53HEzw/B3nNEHjnPyt69zuOpEM12eNWug3vOZt1yF8zQ9HYBQCazgm3UOAVtbrf+e9b3o4JIWHnOSaldotmzlmq9XvOm49BxHtTQ4ilRI6f97+xfsXL9yxllgmdqQ83EN1z/7yV8qXJqsrtcMgJ7vhl6ecu/Z+B9GD/OV5LaFjHEys+KxJKscGHLMzc+gY2kbf7IEu+5L1LXu3xorLhBYglnYgJjlbNu+cefO4qpRFHb07nJwf7xuu54ytVGO7r6V2Y5P7ousc7alnma/zAhf1NXnL3zq0S1gA8+9cq97xvKl5Pr7NsWfSTu5+OAIjEXCnuC4+EeSheih3J1frVoKZEIlbGaTkFLQUUGV6VWzqltpdbkDBL7MtJq5O/hEj7VgWOVnPaoPHLUmd82Lj3MYFVO8blFDIKIPlq2o2dqLO8oU7fbMNgmQuCdYico2zJj1dhwlTEjj3oRcMIRs09xmTfOW4Qup+q52Uc5uuY0n7IeKuqmZvZje6XShGXRK63qTF+l3oTHFFsUW5jSq2S32AKsRU81Z7q5MrYWOBkXncpeMoki/J37t2hoOW5q6NZxfit7Ruld+1lx07CDihd/delxkicsPVrHjVlM1br/JDUrpcWIRC5mRbXD60yxr6mbiiviOKwPSJTXYpv1WVwK2NWnSWOamiZ+mau5Zqdj5XK1Mj9tVEX7v6+KM1sl9thwfJL2lsAYvyINrYwQSmiQwExrHfWAjJJCqsxpce6kx4MbtzSN1clSwxn5CXeagtrdaX9bXGAJKlZetO/exiUjnqro6lXx2jbbWpk8NwmVicutwPnctLGzqr7uXGLqH56MQyVjmpYbKu47mED4VMpLNy3qV7rL3DAbUsOn44AnUEnNC7+yg8pbuLhatVCWXT7UrHOK3Ck4uCkBe6LANnndUSRS0O1yJ7nNfqSc4S12yGODkvK1scbJu1sUwsi/JcWUJP3V4mcCb66eOkyn1lge8ge97AJZQVD3gtpQ3M0P/SBX8dYdbAGKTfgSZvTYgor4kR56wFQ8rpzVpchNqS/cbU9IwpJMb5lPdElq0R+PJSRQwib4bM9T2T5F4lBe/kqZRWddHtZXOpRDMsfVte7ByWhnZkOFtRrA6V5Fh16VmPz6vPrw5ps7RvqVBUff2Oa390Pg3HneNSP/Axdt0Jvbs3vCR0TdRyFa9/7LFrOUOXamj2nM2JR5dlpEqb+5QLBpbw2alHqhNjW6LmjF+WCUn5GN+UMof8aum7RsS1TUVYWtdS+2oyX52jHP0xabPzHM4xCWv1ryZUJtBQrnNrzjHnNW0v1/WlU51Fws1I7ClbO49BkjXX4XPtIHLuhzGXO9vlPDs5JiSW4CWRa1LXKV+tvlcT/TOKyePZvF3L0z65/Lf2ORSbLtu0fFxwDhsQIRte/Vi9msgBw8uMCQTcy70Ht9lSpafU8FUc47RNGVNkAmaCl+Fs2pFMlg/BIz1x2ZMXHsF4+XHImg7psbzYq8Af2kJVSi8y3AdjBIkzcctyrKLn61KCZg95XEtlnmMvb54HE5skoZBUaanUuT1L7c6e57Ke9C7HGLQtW9bRqnIuH1PfszNWSP2PNkKOaal7G8sBb9nNYzveoS9sZCKPVL4ElJWSu3SEk97rKIdnmc9Z3uyyXx2WGvKX4d+JJnP92+TndlS+hHmX1lzu/XAE6gg4oXf3USjxlhIsd5+ytYXs3Hr4Ur2u1XQhhzopuUvi122H1IJM7tppCN/XHL9Roxm9oQpfSO2TjnI5ZdiZSL8oWTIPSWxM3OgHYWr4Lr3dm3HKQlscM85EBAKD/VzumR6Shi3JXC4eJOHr+5TyIg850VnErqXwVJkqPye56EE9axvaKu1JB0zU0/uJx9rSz66VTAbnQOwylA1tMsFLotekb5G39Hzn3xDak4vl2Jhvmb/o36rg42WHHwEn9B7cYy2NW2StvdWtRYA19FQsupTe5UskB4bQgkDWZRs6/seYn1oB/+D4EYo1ZxLPcajjFyaka7wo8b+WyPUoUg6GzeZ1t2bL5A7HOv7MxA6S5z+cQ2x9TFWeir/WxJajdo8tAlJq/9T9lWSdU1YugBgjuQjixVKqrSV1+7ksxw5toZh0ltJ1nnYmfEjpnDiGzzH5y0UAkzVrr/i7/q3zcytNWFJC13OE2p0PSgP73hQGfn1sIeA29O7e71W6O0nUTPT6R1/VOS5FVBiDLCNV7tZnOeYcuyTK4+U2fpOtR0w3h5gtKT4W0sYdaGkHNvVy5yr6v7SxlySv7ek1m7v0kJd2dpbSUx7XzT5CIbs8S/KhdtnpjlXKWoMA1fMGG69O/5oaX8g7n+vlLAhCfWiHtpg9PKQJSanaU/OT13UGORB7LSf7yEOr4vkqS+mxELbY4rtc6Jb+HrVDPrcxDRiXr6ndR+y+tiXtvjY6vKQKKF52aBBwQu/urSzfHNYPPlelXmW4LK1bLwpLNW85wkmJn/u2zlnjQmpSJuMYmecQPdrPKQcSlvNlUufxsQQv58p1cE6SO9qBRM3SoSScdpO83IucJXiMOaU+l5Ir21gh7fM94uQ0PH+0V3qnkwc6HyH1fZU5Soe1kP2b+wv5FFjnJZnz5xwTSI5T3urwtGcIb/S7SgmcNU2h1K6x32Hst1yT4kfGpGsnuNRvHHNjvwXKbfFJKv+2VB2/PjYQcELv4n2evtOuF155zldG7RvOQ9B53S3nuarD1Q5jFmlLopbtV1XJl34AIhZdqn5jUnZoYxYdd54T+qYXLyMyxFGOG96eMrQ4keQ+fpOaf3KMQHK92S1ylMTLqnh9f1PSsRybNU4mfCZ7SPdLaOESku5l/6l5x4ib52uRsJbSZZ8ST61mTy0IZDvYgS90yCxxMr6cd08r7eQimYzeRS3Ubkgyl7/jVMhaSkOGvss8BtO3KodBavejH7n0zLnrH3DMV6q+G7z88CHgNvTu3tPHY91Z6ncun2tDD7XP5Jxrq0M7lvd4rnSO+pxUhsckbeI4l9on3cr5LslfOtxxH9L5SKrPMW4md2mj5E1d9EInZbaQ6nLt3GXdAy3dc3IZLBpSCWuqPqLS5i1t9yBxXqTAYQwkL6XilLe6dFqLaSuktK5V7pqktY1c+hfoBYMlwYckcZaspa1cJ4ThXdFCm6novO5SWrckd04zjPvFPiR8rqoGLuavop/N2x8qtq/6jHj54UTAJfQu3leyda064xWzRsWh8xCkDb1KmFpqCvrlIL/LMDbdTkya57LaCS/04tLx6Kn9zptV0YdskqXqnezoOGRsOtva+SUpU8bGbLc5al/0JckN30GkwLUZEme1vMTeuvec4EZL4ZbNnu31mP+Dd9ck95Ckr+tLKVyOQ2sNLCLWRJ96hvl6VXu6tIXzZ5bQpR1cErRMMgMnOLk9KkvrIRu6dJB7ZEV9cxaymeNz6Aip3EP+Kjgv1e4kpb+D2n5nLoZebngRcELvwb0NJZfIdX6rqorXtvSY842WyhkeqQrEOV4IxJzkOEucRc6hvc25v1wVPZeXhG3dUql6B4kj+xuPXarhcU06z0kiYYIOPTIhG690Yps0PU+YkuQtiTl3IcFj5d3jtBMkE7e013MdnZpWl9E4hOznMXOAlvZDpK+xluUwtxw8ZHw5CBmq9Zvv2qLYqFjtDMcEDcn6gfv+VHZbOzfS3yw3nzsvyPm5jC3Qq2i9GA+pdu/BK8y77FMEnNB7cGMkcVse7XpImsD1yyGH4FMqZPTJZSyS5peOJnYLPrwUEavLRJ7jpd7qbZCSucRDE721YLHUm5zqFeOyiFrbeiXxMxkzZkziUt1sqZNBUDw+1KniBMYkq0k0pLZmopdOgrxwkNoDKcEDJ8v2HpL8GbvUQkiSdAjX0PORMhMwAUMqZwIHqU8pk7mNTrZWerHXO2tllzUeL57L2O8zx2Yu5857Kejf803nn/mhWYcd84VWf0def7ARcBt6j+9fjmqdy/BCQGeiyrWvh4iaIZBOcNLObEkQIcmcX4KhOF/uS9vPQ1nkYtnlEOOuJSZptrCSecjbrWOA8R3zwktY24hjpMRlQZKQxqFWx4sXpBxSrWsSQxsoy7haEqv1qEpJV1+3rkmbOvqbvcOUcpxMFBj73HmLy3mwpK7nwvPUSXJk/5ZfQY40zW2k5p/K4Id2pMMb51Xn83yN7ejcr3SA0ylfLbu59fvl3yfaTD2DltNqTOvFzo2sdudxk9r90z1+lXn3fYCAS+g9uAm5SWNiK3v5Ism1vTejatfwSCleqt2Z9PklKGN7tco9pYIPZZSzvNyt3PfSOUnvQx263SWRC1V8iFA0UaEc28VBfBzmZi0AYoTG/fECgBcG7MQmxy3tz3zeajvUn5ybtElz35Oo0UcfHFc2zVoDzrqG8cgd4lgbIa/n/KSq2sJ5LKP3p4/vtoZ6TNJMyEgaozdr4XNakh+5W1utLXnIBYCU6HmRPaXMRju+sWtf7PmT12KkzhgotXstqYIfYxoBJ/Qe3H4paaP7kCOZVs1z1ik9ZCnBNzMdbWNHGyEvW/2i4e/yPF5y5U5X9UPHosfCz1J7n1vqe8tswck7dFY+uQAA2bNKXi52pFrZ8tKWRMdY6Xh1qTpmHFKLBHnvQJwgU52+VC4opG3bUlVLlb2ch16UcDlN9PpZAkY8Hnm/ee48Xq2at+zlKQnceo4lmYe28dVkqzdfsbZT5Y1Vlq/audiujBNfvfd5TU3/jLq6fnV8OveDZ52JXEr0ejGuF5by9yU1YDn29NCOf8389r3OcCHghN7l+4ntSrEdqUXKFrGHVHohVX2OPd2asiW9h0hdSuna2YrblpKlZUsPxZ6HpPPYbdLaClmWr7HUvpxi0fHiHSlB1VSjbO9cdxyyca3edU2TKhOWlMZln9JJzCL2kF1bz5ElZo5Xt6R1riMlXknQ2r6du6iQ5bRtna8BlxpuSxpDZ2ykZC8Jvhkib+UnqiVxaI4euK+2KYv2cpex56E+JWmvXkjXvNi16UvnldBthkgd5SxiTy1iyI7+XrKjezx6Kw/MgNd1Qu/yDaQf5Y1Fcc+O3G0VaV0P1SLvXE95bssi7RCR6zpaspDj4yxxOjmMnkNO9rcqt0iTO6Qnlo6YsNEev2zZxokXNb+ULccjy6vfcubisUpSx7kQyetylu2eVdyWBMxta4xyFw0xbC3zAsrzggELjNnTN26o57ktS4KUiyJJ8Fb/0j4es5Xn7KYmvddxj0tpepNanDi82WWsuWUjj+GjF+CawOUzxotIi9TluRz7uSyvwtc+Qdec0Ku8MIasrBN6l2/odvse+OF7z7nt16FuYw5uTOAxR7qqEnqO9zvGWkWCh1pz0oxtyilq9bqlUk+RfuqlGnoRQ+0P1TtL5/is7ZxSYkc/LAUziVp9s8MgrskFgb4vTGxWbLeUqEPqcu6by0qNACeGkW1r6VdrB0JSPJO0XhxYKvhQHxInJlqtIpdlQloPlOEFFdfXpC5xjT0b0imOpW+QOQ72Zpc28CohadoPBm3KZ0v+DmvPYG0RiTIyPXGIwFM2dMagdj8afgRph4Iuv++8u+4i4ITeXbwLUoldjuQysUOTuvweUuNVJfJY/5YaPRTSZr14oNbkGHRN6pLgNdlXCW9j7/eYVMW7bZX2/DIl7fhGkhAmX+3JrHGRZGIR1cw6QRTFyI1oZAgasLt30W2lSlaqzbVjmCZ2rTqXZKozvjGxWw5zsXMhDYG1yGinulziwFgBJzzHMEvxweQuSdwKnbOe55DDGsry/uZ6m9QcUrd8NtAmE3f5GWmQxcHfsYBkkxvmqX9X1u9MLnByFzNdfq15d32CgBN6D2+EJGqLtHlo2rEL50MvFb4Wk+KrTFlL5jkvoM2mjiQ3JnXut6qd3PKSv+yiS4t5v/lp1lRA7CB1LVXV1PG1JiTGFomjTE6olCQiKaGOrxM/S6b4P2QTl05k1gSlsxs+w8aO9tjbPgsUKpRL0KGFB/cT81gPYcbn8T8Ijp8Z4MQYWQTPfaLe7Nm2QGqlg0VehKJMFLP60DunaTK34tClT4b8jFbxXe+mpu9FzfwzvnzeMG/9O7UWyEzilikD5+Yv2LixWUvuvfdyw4mAx6H34L7SynypRco5Q2FP95THe7Ptx1R9PD62J7MNXdvcYT/nIxZHbuVyT+V3x/XzzzyzwOYbOdIUxjFt2x1GQIuXLg62qWsyxzVOvCIJhM/L/3PumSwDEuc/EBckd6l+rhKrze1i4cBtsic6v/yrtgeS174BKeIPXed4/BBeuI7x6gUg5oJnCv+zFAvywx/wSnl588YsMtZcqt8xHs6TIJ8hfi4Y15D2BmaWkAQu0wvrZ0NGhPDvF89eKMpF1tfhevL5lPivuGPu6vCSqg+nlx94BJzQe3ALyRb6S9ltSDqX5M0/fP2/Ju4Rtjul9suZaihsRhK9Toah62CXNSbmmDSeSv+qx4s2f3fVdWaUQM7cWIKSXu7yxYo2Qo5WbFO31O45fVtlmLBwTW6WYpGwVJtLCV7buZkMcU/w0g+VlePRtvZm5yPrSQ2ElMa5DEvf8rliktLlGScmUStKRPYt48554xW9Y5rMk8Bmm5T5hX9rNQfKkcnZ9Xcr/wH/buTvh+eU8mXJVbWvu+LuXdtx/7yNwUTAVe49uG/7H3zAZ7910x/ekNt1zD7O13Js67l2dissLeYUxy9lLvPMabvkTq1RLhR/zuf/sfD64neX31SWjzkO6o5ZOmctAqs8uRxjAuls43ErR6nVtcc117Mct+SCIFc9L53vUIdV56GEMjFgmZi1VzzXkdvBWlJ1ShLPvams+mcM5CJI+hZIW7leTEkpnD/XFiu1kMIcD3eU4zTEMW2OdS2V9jUkobPjm0Xo1qIY5/CHRQo/izlassi98AQzuQ/qEJZzQu/BTV139yP+evkpHz7jr7+97D286te2OamKi4WiWdckucsXT6wdC4ZYvLn09JblctSHVl+WJM8krlX63EcqzEgmt5F98kt34hqrpayadFazsWppKKTizSUVbjNVXpK7VMOniDj0COvFwvyFj5ZmBrnYaCZjW6g/todLotbSNj8rsZh6S6KX9wWfa2Yd8jBTx9y5y0aEopWbqyjbOapoKV63o+PN9XMNtTuX4d9YLSa/5hxnHZw3X15jPNi0wL97tClj+mUd/RzVns+aP8HKJYv2o/++1YPXmnfZBwi4yr1HN2Hf4097b27X2iku1+5mtV/VWS4Vk65fTimSzZ0zJHO8nHHwS4/nrfNvh9oMkQYwCGX10iSYO97ccpbkaS0YpK2dJXekg232wLxmThvXcMQDuWPRAHuz9heo0ofUKrA9XJsnuD1WlYfuixxHyk4Os4513HbD1cHhW1ukhqRz2Yil2dLPD8rgHEg9tKiVUru0p8vPIHZeeAMvXtjlPpf0u7m7yv3zssOFgEvoPbyf9MNdQT/+Mr4lJdmGVOo8fP3S0dJ4rrpdw5Gy7cnyeDHlOqqFYGcV+5rjNyrwctbtVV0wsGqc7fx6PsCpjCWnsDaMX6vKuT6PV8ZG6zlINXzMFq/b4u9avS9V1fy5SoKWEMY1csdVEPzqfO1y4cQLP63+DZleYvPFmPn50+FqGIVV18I9146MNlllHoozj6nULVt6TSKvxZHjWLL47nIbVnmU/hildL46ZI0XxJi/1FzEfleshmc/g5pGae1GgiS+JxYepOla7ZHaw3ebd90bBJzQe4N72evzDz/qqCvP+cp5egiS3HPtxTHJO7VYaBUC6fWOtmLZ31KZ4Vj1fse1PyqHpaUq7a2cO3ZNTLm4htS/ISLCeetFG1oYyPFbCwIpqbI3O9fBNY5vl9nXrDGHCFfbudE2h9hx39KkwjhaPgSWKhhSZi2ZyuqtVyVGufdP4hDy3Jfqdibl0AIz5ADHNnceF+d+54Q0jayD25T7r0YPTeY65DOnPi+ANi631q0t/JngJ65RC3uTuNPv62+pdv368CLghN7De0tJZs7/7As3GyWFSulaSuYhVbvloCMlcmmfx3Sr2tI1RFK64JcW/y+lkNSuapL8ddm7ltcCxK0XMp+rKq3LcTOuNVXpihFhSJIQNRFbUrQmXUm4mrDlNfkithYBehy6LupvNnXDUi3LPg2S2FMknlqUSA2B9TOR7WucUL4RZ10m9XnGiIWOXBBY6vXYQkrugY7n5OH7lxcbbDyRFjfXjhomPyOrnr7zCDOLteMal8F+6I2UsLQ5y/rjazkMqpircB9gM+dnS0aChD7rZ4VNEIxzzQxTWzBuXKwkIh+d72H+4uXr9vCV5l33GAEn9B7fAHLcupleFtvJYXCGM3kuR8q2SBxtWC8j+XJq5mWlQ3D4O9KTspRtbcCiiTtUdtmiBSN2bON54H9+SedI6xZZSCx5Zzic4x3O0IdVj0lIko0mnpTtl++pJkPuUy4YQoQq1f74LJ2ncB9kJjJLapbzk0Ss2w39NLRZQhMRq9hxntXHcvEQqm8tnlI/z9KWPnEtKvZQcS3tfKYXgKu/13ZR46OmLq85Qa7W1tTKWM6UzZF5bRMgPiSR87mQR3tskRNaqNXb/FcKM78+vAg4off43k7/9/+edc2793hSvohkVjNJXjxUqS7WqmOtrpfT05I6v8yqvKxQx7JHs4QupSfZd4zkrVugc33nLGh0O7nkyvZNLWmzhMTtSik6p21NlqE6IeLW5SXh6jFxWZbicB3nrJzpuBZrq5mfBPrixQRn4NPq+WbazTFVoF1kh8vJ9IayqQxwzYxT1oFkjkOmdsX3quFoegEZer4VwT/V6vi9/uAi4F7uPb53++w8819b77THD+UwJHlxYgxJupYEz/VLx5z6H6voLXsxl0G9ZshSSxuxGHQr+xv65Vzu+CzLLLzpV6Puipy/TBaSe/ss6YjrYtEEqVYSa0iNLvtDeUvVbI3JslUnJK2sqVltSFUte8tLRyvOuMaq+lBHekEjy/E1znYHEmNNDzYfkZvcMJZWe6mFkb4PoXSvnB1OjjFkJ89JIJMFvioEjOVmPaE2YsSu72fqGTGev1XNjN3rDAcCLqH3wX084ms/fh3Z0l8b8xDXJM/DxnnpyRuS0LVUL6ddVULnupYt3YIztumKltxB7JC2rHC5XEc2PQZtHpBELj+z/V+TTIh0YmRkEb2U8NGvJDp8t6RmeT60UNDnYyQgJXgeg+VbsP74hxvNsrc1n2hEBtAJxF0DN2nTjS0EYj83S0Miy4ec4a6/9o4RzYY82HOeH0v7leNzstpmfmeJx/1lcueRUnlsUSknEJLMcxaZ1I4Teh+803s1BCf0XiGv+j34Iyc9nzze/6iHE5KuUY7JW9uSeWGgbePNEncORPqln1MnVAbx1lqKaUaLYLUfa2fhLfMK0paMsJ/nSuDcV055bSfn75aKXZKjtrvrBYJcJIRI3epDlpUe7vI8MrTJBcd0yqpXm+vKBszWAkfOTWJTRTJHB3i+QuYcnQo2loNdOkBKx0heBOA3orfYRf+p3w6r2VEuFJIWkswZl9giEGPQC77APfZ3eisvnwGv6yr3PrmB5PF+PQ1loR6ORcpSlc4vGlZDaylfesbLF5gkNu09L8tVgSf20mOVemyzFvQlpXn5Aky9UEPjtOLOY3MKSefy5RkjI03Oln3cIjZJ8vzy1mp6qUrXL/iQ9Kal5dCiQJaTc9Dn5SJCfo5pBTSpV3mmuGxV+7MmYTw/CDmTfiTSPCWvyVz/+rehx87jQh38yXHm5nCogo9+TuRzgM8zp0z0d3ozD9iQ1PGb30c38j0/u2k67Tx1SStD0sTHWdVYNW9JqLoOf89RUcqxou2YvVwSdigeHeleQy/vZkmdxyhfzlbI28lLZxfX3HifCb8lDYfuU470yfZ3TcxaCrPU1ymVdqp/HjeXkyQRWpBo4pB9pMaDurKvZp7v0IKBswlaBG4tjlMELduRhB9bMLLdnE02eH71zm2h+ta8YoujlE0da+Jm8PU6w4GAE3qf3Ueyp7+MhrRcE6UkJSllhELOuAw85hsxtfWc1kzycK6zXnCWHT5H5S0JN0TsPA8d0sbnrb2sm71FUKGHDtZo4DqIHH84zn3I3mNbk2CzY5LthFTUsm0tUUtitbQJIacquVDIWUxYxBFaKFhaCDnODBJKwhlyhmMvfrkItRai+vnVhJvzfOtBshMcJHPt0d6q4x3fI3mvkiBRAcqw2Hx+4JwOvExfI+CE3oe3hyT1jWlY91hDS72sNMHrFxXqg+T5T/YBgmcPekn2oUWDHt+k6ds3TmlHOEvlrskdZVrJVx66lSHJHAsbJnJZNySlS5LSn3XflqQdGp8mSvkS15JwqB8ej5SEpYo+JFGH2q8iUWupXi9+cjUGIXxiquuU6cjS6rD6Hf1x/Wa0P7DdazLXjqK5r5ccDEM4yvOPj9+8tiWhH2MSASf0Pr3tROqb00vmL3J4MW9b/UIKkbBlR2fVIpM8k75sk0kx9D/GCaelkEe79GbX0jt/pyxXURtkM1KUvr0yy5xF5igfk9JTBKuJVfafK6nGCF47TsWk5ph0F5Lkm/05WGNuti1dL2SCYW2O/F1YkjpL4/ycy/alpM6qc76uv/M4ZHhaq7HmlimHF2LaJKLvWeDeU4JYP8YqAk7ofXzn3/rDa2dNnfWC/+IhxghNShpM5lp1zi80S6UuYZCkjfP6JSlti/IlmbsPupVBDv0svf3W6N3gcVRJ+coaB1kHaT9DZM4DYK/lZh6PHEkqRag5ErUem6WCz5WOWULMXXRYuOQ6DlbFFNkHrUPu3w5i1otNEDJL4yF/ELkDmt7DXO+OJsMfWTK3xpXrDMd1rWchpXLn+8ULSG5r/Faz/1wVXy8/PAg4off5vXzlyWcdv9dR792enOVurjJUi/z5hZfj7KP7SqkkU9JzylkO15fcPDc6Re6jmR3dOLTvo7dsnrSTYxDYTauTh0W+Of3lEG6OFC/7l+aBmKSd6jt38ZAzTy4TC1eD/ZyJmslXPtt8LvRsagk8Ni4dqy/3LOCkPSzB80Ii1J4laUvziFVPL/DkPQvF51fB2csOBwJO6ANwHymk7WZyloOB+v8w3JiELVXtUrJGPSmhaymc2+X68sWoX4gp8rYgtVTxmuS1ZCNVrbJPdurLJXYuj52zco/dd6RdMPrwyFFtW8QaI+MYEeeYGNoNU66Eq+3f/Lxru7pUyUsS1xK5nIdW8/N3tC3V9NZYLYc46TiYow2R6nZtX08trNp9P7y9wUHAkxAMzr0qyK7+3MevmTPhW5/9DBLQbKPJXU9F2svltZC0nbLDp5zjQqFo1nl5Dp+R7pVfmtZLMqQyzbl9IPKU9zq3c8KkuaOSy0hpsZl46JwxNlsmVyrOLdfsOKrUszKm8T2viq/1TPJzDPJGJjtezNa+L08OVdrK5b1nMkdq21TWNz2PmK+DtKNLspdqdflZTgDkHkq4k5yoFxg6BJzQB+yWrrv7EbS9VLEthn32a3e7gl4ye4eIvOrU9MtRE3xK7W71p8mcv3Med/yPPxmuZqV9lVIXq89zbOkpW7kc8zf2XEUv6hnlHuN8yDnrl3TqpV4V/1bLa1V7q+21s77ESidf0QQqr1cleB4zk7d8pnPJ3FpQ8vOnydx6JmK4xYgd9awwRX1etu/q9nY+pYPflhP6AN9DcprbB8O/6fwzd5538ZxTKe56n5gaOkfKTUnh6M+S5KVNUUKqVe3yO39GMhmZ7lXbK5tZSFSRykHk8rDmwjuJWUTfL49QP0nhwESTeDNSeEq9HHo2pE29lfsDwkZ4Gj8TqUVc7PfDCy658NIhirIMxm15wcv5KOnc87i3crOHoK4T+hDcRLKx/4mmsW9tKvcWl5/y4ROuveC7n8M3JnhN5pYd3Ho5xuzl8uUlPZGrqt4525d+WYZMBrFbpon8c9uOdG6Dhzur33FNv6ildkB/tqQxmcMe+IWkzyF4zMwpxAiO8auq2eA28X+I0KHRyV3opVTt8j7rOPIQmafmzWBpgpa2dAmotJOnIiC4Xo3sVydCemKTXU4pijOH9VHzeWUg4ISeAdKgFdn3+NNOpjHjryR4kuCf/8fzzvkJfZmCM1Wc2qSjkf4sne5kDDpL3tpObjnGUWarxp7d8sVqjTGlYtfqddjDi+IZjduH8e6+4wbFdktrRP74o6s30gipeXMIWkr0TAgpTUdK0uu3Zy40XknaVpmU+txSqcvnIKRSxvO2dEEeSjr8jGshNBHXtOaA5wEyDy0arHHX2htfNi+90PFd28D199DCRS8I5Ix1nW1nTr0wDxEvNawIOKEP650V8yIJHk50WxCxP4tU81+nF9XO9H0z+ltDTj8mtWsy1x7GJB00mpJ2cj4Zij1fuWRRYx/tlHez3lVOjt2ylUvzA0vP6EPm3OY2rL4tCV2+/ENkxG1yJIGW3HFdOgCGJNl+eTRji4+Qbdwau5S89Zyr2spzUgTrxQbGJO/z9M02oDP4qx3y3uKzvm+pMdY2Z6ktIHPMH5Y6XS4EQtI8j1cvdtbe4YDf98sz4+PoDQJO6L3BvSe9ErH/nTp+heycSH7Lhddfd9yim/7wBvAM/Y2jvxHPBZKzSHLUYUFob0bdmxifQ+TN/crrsJ9bUpA2EfCe7xapxxzfuJ7laBe7CZZkmZKqNblp6V73h+vaISw0plDf8rwmTCYpTZ6peVjjDI0rRHIplXRorOgnRZzW+LSqnMtA3Y6tXvmIPQfcL0vmVRZdvADQhBwK+7Ni0bVDXMiznefi3u09eY32dadO6H19ezo/OCL5O6mX99f/Gh1CTU/7s/9Bk3lVO3soFSw6giQvd8viznXMOW+kwuSMcrlOb6iLMVtq1VzyYPJJEY1FnNyHdU2r52Pqa+uaReZ6Tla9WFu50rgul7tI0FIw33NJyJLsU78AvfBCXTmWmrq9tnDia7FFE65pp8icRVe5cKBwNisETfeXI72jTjp3wIiNhB5OYeXXhx8BJ/Thv8dNzZBs7r8GEXKuarYJS6lFNhxyhNOd63IIEZOLhJR9P7ShijVJHXLGpBEiI00qMcIPSYS5kn2oHPqUbct5WQuKUFldT849dC31oFjkqcdkLZykVJw7h5x5WeO1iDvWlqUpSOEgr6M+ntnpm6321UiFD2r7eoq8rfHodLhk8vq0O8RVuXPDWdYJfTjva0uz+ukJR1/44N2LhBK9FqrGNmGQvCT2UMgaBqEJXErs2IyFj5QTXBUiP3LCMnJ+24SIcTUM+qWupcAQQeeSazPEYEm1ElcmC8xC+gDEJEZNqFUfBK1m5gVGrnZCL4K0ijuEc2ghE1Irs1OcNV851lh/jE2udsHCkhe6VkiaVV5K8Cnij907jQtp2hp7PlS9515+eBBwQh+ee9mWmZCq/TXkOHewlhrw0mNSl6E8eHlO3q62lzgfksRjKney3ZdVNJlreznyrxcF/uLHaiJfz5RyU6TEZKTJOaQmlqOxSEQTb0g6taRcJkIZVsfjkDbe1ELCGrtF2jnYSALUxC2x0IugmFRuLZj0IiB217XGSPcVw7wVIgcZQ7vE90emao2NNxWSlrKbo21PJpN6E4zd607oY/femzO/+fJLzrY8bUMvWbwUt5iI5HWrDytsDVd1GBtpAUaNQdrJq0jlaGjnbWwit4gI47aIW0vukrgk+eRK7qhvqaF5TJYEa0ngkrjYlCDDqrgdqXLG55C6O7QQCI3VkoRziFvOX85Zj0uOR7YLb/aY8xfXy5HKUVamg62yiMHYpUStbeX6QQ45x8XC0LiP1CvJwGNxqo5fHxsI+OYsY+M+Z81yxR1z16IX1YZc+A2TaoQrpQpJJlwO26ZqSTyU8lUOhDLbNb5yjLncFS03bSsk8y/tsiJrjppgLAIPSeSSAKqQQUhq1O0xAcsFiLWI4HIsHYLYuZwmWWt+Gihe3GiJNZewc4HX0jQvlvQYJS5yi9ScfuSYQd7ABvHhfB6Oa7n3zvJE5zGwlirk4IbzVrIYvdEK2st1kgvNn+zn9ZwTOQh5mWFGwCX0Yb67Fef2889/aol8iV281ovpZbOoQegpVWhI1c7n5f/YjAWHJvIaiafV6/Wp3fnQ7b985lfxUjz30vVvmb9oZ9pT/cCH71++FaWS3YNU+XADXi83o1gMrpjqWi4SQpK7bttSs1tlZHsh/LUPA+qwvwO3aZGpJHC5IIhpYyQJh/CypHm9kLIWFanHVUZEQO0stRE8LolrLVztGcXGBf5fHW+e6oelaGuXM5yTJie0FSJ+HUeuw9KYzGPe7DxWzBeLm9mzR3i2F0TmXyT7+VdSc/LrYwMBJ/SxcZ+TsyTb+SFkO58kXy5SOpLqxlBO+FD8udyIhQfCiUFYIq+lZB1pi48MejkR+cbyOiXVeIS+X1X/G1WV5rcnnXw6Ef5etO/6K0g7MFOHtOUQlJaEtZRtSZu5JG/1n1pE6es8HpkUhSVw6atQNWlK7mJDahm0xC8XAyGNAsqAMHHohZgms2L6VsXvLr+pbel2JZHzfHUcOca22dStTanaUsOHMsTJXdVyiN0ic9QjMv9Q8sftBcYMAk7oY+ZWxydKDmrHyhLWi0i+kGVZLYHjmrUpi5TgKZFNGUt+8i2QOLIl8iePe9cb3/mJD7/l21VvG734QPY4kB6z/hK8tzxBW9I+izzudyT/gfeQo9NLmUy0BGupoLXkbtnEeaxa2i77Jmnasv9Km3hKmg/Zj/V4dYpaluR5fEyg0vYekuz1s6AlfGvO+p7pccvsgzx/na88dd+rqNO1qlt+lwtYdoADPkzmOvRMSvMxFXoo+1uOlG7MfbXNKgWMXx8TCIxI/TkmZuyTNBH4/lv2u48uPB0vlsM3uKk47+FZZTktdfCLm8N1Jk3fvtj/4ANGEbjsxLKnb/rmb1W9E/eSVL462Ldq7YrlkViHpHl4+2+z8IZrDreqx2zCsrwkeVlHkralpg6p+a1FQKitkPo7Rrg66iAUz69Jndu0cAnBr7UGVrkX7Vt7Fq0DavgcG3QsRMxyYJPnWMXeJOlWfPJGF4e63XIM3ObYM/393TK6w9WAS+jDdT9bmU3DQRJkzjY7JLCAui/00pSbsoQ619K6jD/PHPDfz/r253c6Yp9slXxms+Fi9fz3yIGPzW2gqj+MiP19REAziODWw3lLlR46p+29XF8TsVTZx+rI/nUbsp5lZ9Zj1wTMyYRQTtvi9aYz1uIix4YeWjRoDUcq0RCe09CzaXml8x0PXdOaKcwFeMTs5JatnfvJCUNLPawBL//MrWlSrfv1YULACX2Y7mZrc3lKvoT4JQm75VxsWiYOua0pPNxThw5Xu/BL56SqlNenb7nlFfOuPKfcFrabZK4HR+T+TzqHfSkbe1MSyU8mkn8t2ePfTBLcTtrem2v7tpzRLFLHmEJthhzaUuVDbcpFiVTDy4WAlc9f4xYj45CjYlV/A5Dd7xaMNFvI59h60HIkbTz/GMv4TSY3FgwWOctzVrtWCGjWw18vNMpvoH5+i5e++3meGa4KkmOjrBP62LjPyVnSi2cJvZyejoL8EoLq/eIFUxsvNP2ynTrrBcl2UUBL6HMehs0cKeSDx6KL5nx1+j47z1yV1UEPChHJL6FuT6//QYrfmAj+1fR9wrJFC/YgWzwWIhOJuEq1qHaW0991mZjTmJ6utkVbErp1LgSbNhGwU50sbxGyZb+uStB6TOgnFYsOs4+V06CZx4LnirmAzPn3IInbsrW3I75cjzdE5uTZ/h/jt5r9QDPz8zrDjYAT+nDf3+zZbTp1+i9IpfwcWeG8YlYZtsZkg/+l41Io4UdoH3Scx/7nC+4MkvlDpFrfnqTxO4nMs8feDwWJ4O+ncZxVHwuIvnHAHk9Oh28i08UMkub3oAuIoRrx24vZ47WkrW3rmjTld2th0CrJ5jrhteu+lGRNHu2hA8/h/GLqCFKXBJtyUmNpHO0zieu+tPQdk8bbMe8QmVPbC+hZo7ztfjgCoxFwpwp/KhoInP3a3VbhZS1fVivugyC6+gChcza3lx68G+Jgi5lTJpYFrOQyXBNx57+86NpG3LncLY1U67cfdvBeJzfjvT7It4+IHvnyN4R9nqT6l5NUj9A6bGG7pqXCx1wlGafU+jFsYnUtCd1yuusW9njm8KyljuuvvaPx7GoSl8+0JHC0yc+8dADlvlJq9nbYyNEX+6zgc4TMbydHuGencPDrYxcBJ/Sxe+9HzZw83f9KJ7eTF3RoE67J9KxMPJBsSMovqyIV7F3LJxSU4KWgBC8FtmANHbt/9eptSRq/1W+DjQCR/iuI8PchLLcmSfWFJOFvhpKtJsvJWQzklOnGfQOhb//i/UekGMbzpVMOYyyIS08drGFI2dKls5sOU0vVTY3Buh4hchT/G5H51s2063XGDgJO6GPnXidnunLepRt/97Of/KdUqXKSDyZy2QgSs6TIhVX0nBHOGsTHfn+vP4fJuxMk/N2I8A8lwn8xEf6uvADLIfxeSt1Vp4ux7rJbWO3O7cHeDhV9iHC1/dsaR0rq1kSfKp8z1xiZb7Xba15HiZN+mNOOlxnbCPiLdGzf/1GzJ7U7vN3XwAs0h8y5AYtAcsgc9Xc79M2n7Xv8aR/xW9EaAiTNQ7uyKRH8/kTwM0k7sj/dAzjmZTfcL1K5NeBYPLosL1PE5hA46uaQcrvK6LklJPN5JJl3L14z+0nxgv2IgBN6P96VHo7pjFfMeoo9s7WqfNq2O5SSD7aNlBI3S+p62DGpXJfdeqc9fnjE1378uh5Ofai7JrLfg4h+X7LV70P3b29MtgrRdxocGd+uY93RdxW1O8qzPT2H0DVRW7b0XNKP4STt5CiXIHL4p3yUHOB845VOP3xD1L4T+hDdzHZM5fJTPnwSebt/jMkcZM2JNbSjkbavVyFwa6yuem/HHcxvg0h+n3pu+1eTNqZMx9Zpkg+Rdapfrjdtp91N27k1a51FzkoOY4WbpSTx1HU9Fk3k8DWx7P+yHpH5MUTmldMp5t99LzmMCDihD+NdbXFOE2a8dNU39lwV9BjWYU9WApFmyN1V7y3euDZU5xA7skMfSCRfxg6myDbWrUXgVvlUORkumat6536kCp7PWXHl7XZ0q0rkZP9/gkLwriUV+95tuJXexBhEwAl9DN701JTnvOvV2O6q9KbGYUnmso1WCB1qfD5oobD8rT+8dsQuaqmx+vXOI0AkvzXF0b+LbPKH072eQj2W7w0meiZjTcpVpfEYqctnDAmNQjkQQmjAWU7uHhiSsqtK31Z/kshDediNejcRka/+MXT+tnoPQ4iAE3qf31R6me5PQ1xr25lTf1cf6qPk8YoNnjtyUOjawySprG8RuSDeRt+h9J45EjrZzUcsFiD5E6H7M9mRO9v+Rsk880lyvnsBSfMvkw6UUqK3SF4uBnJHJRcNqJMTl261LYm9HeQdIvQKC47HKI3rVMr8Vtv6zw9HoAUE/OXZAnidrkovzDnXXvDdUTt9TZ46487nH37U+8nG9uN2juGnJxy9iKSYZ+k2UxI6ymuPdt7nPDQ+moO5bSjN6+U0r1+0c17eVmcRoO1n1/3dVdd9iMh9O5LiXwnPek3aUmXOo5Hn5MIQCwJ9TWoDUL8ZKZ371aSO8zrxTDPqd0jjOCqQ+VySynfs7N3x1scSAk7ofXa3r/jT/LUXf+Vdj9Ow1tAvGZaCZGIXfN5h71d+55Unn3VUs1MhLcB7510858u6v1B7MRt6jmQOsud9pbkPbpOcns6gELb3NjsXr9cfCNAzNYvU9McSwb+eyLncIyAU2qjJmgk9ZrvPzR6Xi4alkue6IXKvoE4fMQx4r5PG7WzStLlUnnuDvFwWAk7oWTB1pxDZrueTNLy19QLRUjKTu3z50Uvukb2Oeu9rScK9OHfEJJX/kaTy6JZpIQldq0G5zxSpQ9WOg9tVu4vd/cbv/Kq2K4YfQ4UAaZxOoN3p3rjwlnnPtZIS6dA1a/Jand+s6r0HwC4nIv8g/Ta/04O+vcsxgoATep/caLJdP0FEvnZoODI7FZdhqdZyJqIEIcsnbzf7J5NmbHMRvUQukO2SinTvyy669DNk+9wjpmq0NrWQ0nmI0NFXiNSlE9yIMZH9HAfafM/PbvLnsk+ey04Og6T4PUmKf/2im/5wJPWDDWvKQ0voWh2vx1TV672Tc9JtE4kfT7+//+pmn97X2EXAX5x9cO9JMl9Mw0hKpTFbdoDUg7Pj+FsUwGdslXrew2UocnlUsZvLTmLSOSemkW1b6nsn9D54KHswBCL45918+SWfoMQ3B1P3a1pDCKntkStBp4YN5Xvv8NSWT5u134fW3f2IczrcjzfvCIxCwAm9xw8FqSH/l7J3vdYaBmeS0nG0UlXN9SynI2t/ai4vCT12DtdC221WDVfTXu3cr9Q04JwTeo8fyj7pngh+N5Lg30x2+HeGnOYwVOlEl6uCbzPZ30Mk/j4i8Tl9Ap0PY4wi4ITe4xtP0vkqHoKMX5UhNSHpOeSchhec3gLTIm2WzH+wdGoDhTdMWlTI75p08b0qkXMblrrdJfQeP4AD0j35evwnmYheRM/LdHr+oM0q95OXZI7vlqTe7imSA90t5Mk+jtq9mbzUX9bu9r09R6BZBJzQm0WuDfVod7PnzvnCqeV+j9KWDclce91ydyF1tQwbg8MRqyZDUnqIuPW02iWdh8LUuD+5SCDHvqPceagND9iQN0ES/FYkwb+biH43ek4n0zO0OX5KZPZZixaPy0kFD7t80C8lBx76HS4l8sbiYRn9IfnLa3LqeRlHoBcIOKH3AvV6nyR1LCAP82l6CEzasAlyPmorpEw7qKEdtmGDQPlgUmdv8tiUQwSOOpYTXMqjnfti6dxqX5I52jv4Iye9jQj9rB7eGu96iBAgJ9BDFt70qxNpSthPfEMi6YVE0tMjU7ybnNlOpNCyyyi07B9DBIVPZcgRcELv4Q2mrUpXjd9ktC8cJPRQ/mk53Biho5wkdUnuMkzMmr61hWYrGeHQBwg9V9qnpCHnU1z9qIQ6PbxV3rUj4Ag4An2PgOlJ2vejHoIBkrrwMBAnS+NSlY6tH62tFUMJLiTZyq1M9fangI1JVZOrVM3rhUKOzTy0hSrfqpBkrqXzusQP+6QfjoAj4Ag4AhUQKB1L/Og+ArRt5Ru5VyZzdn4DcYc826uONBXDaxGu5TEv+5WZ6nA+leaV64akfFyXqnvyat636jy9vCPgCDgCYx0Bl9B79ARQqNqruGsQOP6kdznIPXaEkspom7b8zoQaI1Z5zYpt12lnc8gcZay2eH7cppDyXULv0XPp3ToCjsDgIuCE3oN7R+r2l6+4b0lD/Q0JXWeCQ5IXPh/bFUqH7YRU3zpftkXquedAwLxQyHWKA8xavc7Q86KA24otOHpwu7xLR8ARcAQGAgFXuffgNpG6/eUssUrPcyvVKg8vFa6WmkYuWet2WHrWavZUf9Z13ZZeDCx+bIvi3Ic2LaavuyVVj2somunf6zgCjoAjMMwIOKH34O7SNpMTOfmL1X2M2GNhZWjLkpirkrEsLyX+KtK4NS+pnr/5rqcRec8Oof9YD26Ld+kIOAKOwEAj4ITeg9v3sWufetmCO8eXPR85AfkqimK7LZ40k8G84YF5xQ822sEcpUwmgwIpT/OQ9M0LAa6v25GSdRW4WOIulspayP2RPFpKBpJs3Qs4Ao6AIzCECDih9+CmLrjzznJ/aBxQMZfHLfZA3lGMlGKPnLBaeJ2y3j0jSDwmQctrFmFz79rpTZ7HZ5D0qLGHMXySLjXzjLmE3oPn0rt0BByBwUagmZftYM94wEffWABgHlgMlNJvltS7euYNiZnqyfr8WV6vjteDD93+y4242g57HfULWsAcWLGZByqW9+KOgCPgCIx5BNzLvTePwFO96bbzvR73rjceK3uZd+U5zWxesbzzI/UeHAFHwBEYLgSc0HtzP//em2473us/P/Hht/yv7oVI/ogKPWP3ubsqlPeijoAj4Ag4AoSA53Lv0WPw6dO+8+LzL7ryVFJHv6BHQ2h3t/eSqv0ZoUYnzHjpX+jaM+lvQ5SZvuWWi+i/FYcdvNfnJ0yd8bcPHrbn1e0ekLfnCDgCjsBYQsAJvY/u9hfPv2qnhxbdvt2pX/v+F2hY8G9Yh/7Wp79+0qT8i8YDp7XH68T8l6Pe+9Z/J0K+ro+g9KE4Ao6AIzDmEHBCH5BbPueKuevfcsOf9yep/iMk1cP1HYQP9fRa9If7uLL+HTPCeXnwd5RDvXXrdbgMSBp2fZTDH39/giTpm0iK/hZJ0bcQaf9pQODyYToCjoAj4Ag4Ao6AI+AIOAKOgCPgCDgCjoAj4Ag4Ao6AI+AIOAKOgCPgCDgCjoAj4Ag4Ao6AI+AIOAKOgCPgCDgCjoAj4Ag4Ao6AI+AIOAKOgCPgCDgCjoAj4Ag4Ao6AI+AIOAKOgCPgCDgCjoAj4Ag4Ao6AI+AIOAKOgCPgCDgCjoAj4Ag4Ao6AI+AIOAKOgCPgCDgCjoAj4Ag4Ao6AI+AIOAKOgCPgCDgCjoAj4Ag4Ao6AI+AIOAKOgCPgCDgCjoAj4Ag4Ao6AI+AIOAKOgCPgCDgCjoAj4Ag4Ao6AI+AIOAKOgCPgCDgCjoAj4Ag4Ao6AI+AIOAKOgCPgCDgCjoAj4Ag4Ao6AI+AIOAKOgCPgCDgCjoAj4Ag4Ao6AI+AIOAKOgCPgCDgCjoAj4Ag4Ao6AI+AIOAKOgCPgCDgCjoAj4Ag4Ao6AI+AIOAKOgCPgCDgCjoAj4Ag4Ao6AI+AIOAKOgCPgCDgCjoAj4Ag4Ao6AI+AIOAKOgCPgCDgCjoAj4Ag4Ao6AI+AIOAKOgCPgCDgCjoAj4Ag4Ao6AI+AIOAKOgCPgCDgCjoAj4Ag4Ao6AI+AIOAKOgCPgCDgCjoAj4Ag4Ao6AI+AIOAKOgCPgCDgCjoAj4Ag4Ao6AI+AIOAKOgCPgCDgCjoAj4Ag4Ao6AI+AIOAKOgCPgCDgCjoAj4Ag4Ao6AI+AIOAKOgCPgCDgCjoAj4Ag4Ao6AI+AIOAKOgCPgCDgCjoAj4Ag4Ao6AI+AIOAKOgCPgCDgCjoAj4Ag4Ao6AI+AIOAKOgCPgCDgCjoAj4Ag4Ao6AI+AIOAKOgCPgCDgCjoAj4Ag4Ao6AI+AIOAKOgCPgCDgCjoAj4Ag4Ao6AI+AIOAKOgCPgCDgCjoAj4Ag4Ao6AI+AIOAKOgCPgCDgCjoAj4Ag4Ao6AI+AIOAKOgCPgCDgCjoAj4Ag4Ao6AI+AIOAKOgCPgCDgCjoAj4Ag4Ao6AI+AIOAKOgCPgCDgCjoAj4Ag4Ao6AI+AIOAKOgCPgCDgCjoAj4Ag4Ao6AI+AIOAKOgCPgCDgCjgAQ+P9boUK8IymgewAAAABJRU5ErkJggg==;" parent="1" vertex="1">
          <mxGeometry x="600" y="120" width="150" height="150" as="geometry" />
        </mxCell>
        <mxCell id="u9_DgnW9MWbPoVuvquEk-123" value="Pessoa" style="shape=table;startSize=30;container=1;collapsible=1;childLayout=tableLayout;fixedRows=1;rowLines=0;fontStyle=1;align=center;resizeLast=1;html=1;" parent="1" vertex="1">
          <mxGeometry x="107" y="1280" width="180" height="120" as="geometry" />
        </mxCell>
        <mxCell id="u9_DgnW9MWbPoVuvquEk-124" value="" style="shape=tableRow;horizontal=0;startSize=0;swimlaneHead=0;swimlaneBody=0;fillColor=none;collapsible=0;dropTarget=0;points=[[0,0.5],[1,0.5]];portConstraint=eastwest;top=0;left=0;right=0;bottom=1;" parent="u9_DgnW9MWbPoVuvquEk-123" vertex="1">
          <mxGeometry y="30" width="180" height="30" as="geometry" />
        </mxCell>
        <mxCell id="u9_DgnW9MWbPoVuvquEk-125" value="PK" style="shape=partialRectangle;connectable=0;fillColor=none;top=0;left=0;bottom=0;right=0;fontStyle=1;overflow=hidden;whiteSpace=wrap;html=1;" parent="u9_DgnW9MWbPoVuvquEk-124" vertex="1">
          <mxGeometry width="30" height="30" as="geometry">
            <mxRectangle width="30" height="30" as="alternateBounds" />
          </mxGeometry>
        </mxCell>
        <mxCell id="u9_DgnW9MWbPoVuvquEk-126" value="IdPessoa" style="shape=partialRectangle;connectable=0;fillColor=none;top=0;left=0;bottom=0;right=0;align=left;spacingLeft=6;fontStyle=5;overflow=hidden;whiteSpace=wrap;html=1;" parent="u9_DgnW9MWbPoVuvquEk-124" vertex="1">
          <mxGeometry x="30" width="150" height="30" as="geometry">
            <mxRectangle width="150" height="30" as="alternateBounds" />
          </mxGeometry>
        </mxCell>
        <mxCell id="u9_DgnW9MWbPoVuvquEk-127" value="" style="shape=tableRow;horizontal=0;startSize=0;swimlaneHead=0;swimlaneBody=0;fillColor=none;collapsible=0;dropTarget=0;points=[[0,0.5],[1,0.5]];portConstraint=eastwest;top=0;left=0;right=0;bottom=0;" parent="u9_DgnW9MWbPoVuvquEk-123" vertex="1">
          <mxGeometry y="60" width="180" height="30" as="geometry" />
        </mxCell>
        <mxCell id="u9_DgnW9MWbPoVuvquEk-128" value="" style="shape=partialRectangle;connectable=0;fillColor=none;top=0;left=0;bottom=0;right=0;editable=1;overflow=hidden;whiteSpace=wrap;html=1;" parent="u9_DgnW9MWbPoVuvquEk-127" vertex="1">
          <mxGeometry width="30" height="30" as="geometry">
            <mxRectangle width="30" height="30" as="alternateBounds" />
          </mxGeometry>
        </mxCell>
        <mxCell id="u9_DgnW9MWbPoVuvquEk-129" value="Nome" style="shape=partialRectangle;connectable=0;fillColor=none;top=0;left=0;bottom=0;right=0;align=left;spacingLeft=6;overflow=hidden;whiteSpace=wrap;html=1;" parent="u9_DgnW9MWbPoVuvquEk-127" vertex="1">
          <mxGeometry x="30" width="150" height="30" as="geometry">
            <mxRectangle width="150" height="30" as="alternateBounds" />
          </mxGeometry>
        </mxCell>
        <mxCell id="u9_DgnW9MWbPoVuvquEk-130" value="" style="shape=tableRow;horizontal=0;startSize=0;swimlaneHead=0;swimlaneBody=0;fillColor=none;collapsible=0;dropTarget=0;points=[[0,0.5],[1,0.5]];portConstraint=eastwest;top=0;left=0;right=0;bottom=0;" parent="u9_DgnW9MWbPoVuvquEk-123" vertex="1">
          <mxGeometry y="90" width="180" height="30" as="geometry" />
        </mxCell>
        <mxCell id="u9_DgnW9MWbPoVuvquEk-131" value="" style="shape=partialRectangle;connectable=0;fillColor=none;top=0;left=0;bottom=0;right=0;editable=1;overflow=hidden;whiteSpace=wrap;html=1;" parent="u9_DgnW9MWbPoVuvquEk-130" vertex="1">
          <mxGeometry width="30" height="30" as="geometry">
            <mxRectangle width="30" height="30" as="alternateBounds" />
          </mxGeometry>
        </mxCell>
        <mxCell id="u9_DgnW9MWbPoVuvquEk-132" value="Cnh" style="shape=partialRectangle;connectable=0;fillColor=none;top=0;left=0;bottom=0;right=0;align=left;spacingLeft=6;overflow=hidden;whiteSpace=wrap;html=1;" parent="u9_DgnW9MWbPoVuvquEk-130" vertex="1">
          <mxGeometry x="30" width="150" height="30" as="geometry">
            <mxRectangle width="150" height="30" as="alternateBounds" />
          </mxGeometry>
        </mxCell>
        <mxCell id="u9_DgnW9MWbPoVuvquEk-153" value="Telefone" style="shape=table;startSize=30;container=1;collapsible=1;childLayout=tableLayout;fixedRows=1;rowLines=0;fontStyle=1;align=center;resizeLast=1;html=1;whiteSpace=wrap;" parent="1" vertex="1">
          <mxGeometry x="541" y="1160" width="180" height="120" as="geometry" />
        </mxCell>
        <mxCell id="u9_DgnW9MWbPoVuvquEk-154" value="" style="shape=tableRow;horizontal=0;startSize=0;swimlaneHead=0;swimlaneBody=0;fillColor=none;collapsible=0;dropTarget=0;points=[[0,0.5],[1,0.5]];portConstraint=eastwest;top=0;left=0;right=0;bottom=0;html=1;" parent="u9_DgnW9MWbPoVuvquEk-153" vertex="1">
          <mxGeometry y="30" width="180" height="30" as="geometry" />
        </mxCell>
        <mxCell id="u9_DgnW9MWbPoVuvquEk-155" value="PK" style="shape=partialRectangle;connectable=0;fillColor=none;top=0;left=0;bottom=0;right=0;fontStyle=1;overflow=hidden;html=1;whiteSpace=wrap;" parent="u9_DgnW9MWbPoVuvquEk-154" vertex="1">
          <mxGeometry width="60" height="30" as="geometry">
            <mxRectangle width="60" height="30" as="alternateBounds" />
          </mxGeometry>
        </mxCell>
        <mxCell id="u9_DgnW9MWbPoVuvquEk-156" value="IdTelefone" style="shape=partialRectangle;connectable=0;fillColor=none;top=0;left=0;bottom=0;right=0;align=left;spacingLeft=6;fontStyle=5;overflow=hidden;html=1;whiteSpace=wrap;" parent="u9_DgnW9MWbPoVuvquEk-154" vertex="1">
          <mxGeometry x="60" width="120" height="30" as="geometry">
            <mxRectangle width="120" height="30" as="alternateBounds" />
          </mxGeometry>
        </mxCell>
        <mxCell id="u9_DgnW9MWbPoVuvquEk-157" value="" style="shape=tableRow;horizontal=0;startSize=0;swimlaneHead=0;swimlaneBody=0;fillColor=none;collapsible=0;dropTarget=0;points=[[0,0.5],[1,0.5]];portConstraint=eastwest;top=0;left=0;right=0;bottom=1;html=1;" parent="u9_DgnW9MWbPoVuvquEk-153" vertex="1">
          <mxGeometry y="60" width="180" height="30" as="geometry" />
        </mxCell>
        <mxCell id="u9_DgnW9MWbPoVuvquEk-158" value="FK" style="shape=partialRectangle;connectable=0;fillColor=none;top=0;left=0;bottom=0;right=0;fontStyle=1;overflow=hidden;html=1;whiteSpace=wrap;" parent="u9_DgnW9MWbPoVuvquEk-157" vertex="1">
          <mxGeometry width="60" height="30" as="geometry">
            <mxRectangle width="60" height="30" as="alternateBounds" />
          </mxGeometry>
        </mxCell>
        <mxCell id="u9_DgnW9MWbPoVuvquEk-159" value="IdPessoa" style="shape=partialRectangle;connectable=0;fillColor=none;top=0;left=0;bottom=0;right=0;align=left;spacingLeft=6;fontStyle=5;overflow=hidden;html=1;whiteSpace=wrap;" parent="u9_DgnW9MWbPoVuvquEk-157" vertex="1">
          <mxGeometry x="60" width="120" height="30" as="geometry">
            <mxRectangle width="120" height="30" as="alternateBounds" />
          </mxGeometry>
        </mxCell>
        <mxCell id="u9_DgnW9MWbPoVuvquEk-160" value="" style="shape=tableRow;horizontal=0;startSize=0;swimlaneHead=0;swimlaneBody=0;fillColor=none;collapsible=0;dropTarget=0;points=[[0,0.5],[1,0.5]];portConstraint=eastwest;top=0;left=0;right=0;bottom=0;html=1;" parent="u9_DgnW9MWbPoVuvquEk-153" vertex="1">
          <mxGeometry y="90" width="180" height="30" as="geometry" />
        </mxCell>
        <mxCell id="u9_DgnW9MWbPoVuvquEk-161" value="" style="shape=partialRectangle;connectable=0;fillColor=none;top=0;left=0;bottom=0;right=0;editable=1;overflow=hidden;html=1;whiteSpace=wrap;" parent="u9_DgnW9MWbPoVuvquEk-160" vertex="1">
          <mxGeometry width="60" height="30" as="geometry">
            <mxRectangle width="60" height="30" as="alternateBounds" />
          </mxGeometry>
        </mxCell>
        <mxCell id="u9_DgnW9MWbPoVuvquEk-162" value="Número" style="shape=partialRectangle;connectable=0;fillColor=none;top=0;left=0;bottom=0;right=0;align=left;spacingLeft=6;overflow=hidden;html=1;whiteSpace=wrap;" parent="u9_DgnW9MWbPoVuvquEk-160" vertex="1">
          <mxGeometry x="60" width="120" height="30" as="geometry">
            <mxRectangle width="120" height="30" as="alternateBounds" />
          </mxGeometry>
        </mxCell>
        <mxCell id="u9_DgnW9MWbPoVuvquEk-166" value="Email" style="shape=table;startSize=30;container=1;collapsible=1;childLayout=tableLayout;fixedRows=1;rowLines=0;fontStyle=1;align=center;resizeLast=1;html=1;whiteSpace=wrap;" parent="1" vertex="1">
          <mxGeometry x="541" y="1370" width="180" height="120" as="geometry" />
        </mxCell>
        <mxCell id="u9_DgnW9MWbPoVuvquEk-167" value="" style="shape=tableRow;horizontal=0;startSize=0;swimlaneHead=0;swimlaneBody=0;fillColor=none;collapsible=0;dropTarget=0;points=[[0,0.5],[1,0.5]];portConstraint=eastwest;top=0;left=0;right=0;bottom=0;html=1;" parent="u9_DgnW9MWbPoVuvquEk-166" vertex="1">
          <mxGeometry y="30" width="180" height="30" as="geometry" />
        </mxCell>
        <mxCell id="u9_DgnW9MWbPoVuvquEk-168" value="PK" style="shape=partialRectangle;connectable=0;fillColor=none;top=0;left=0;bottom=0;right=0;fontStyle=1;overflow=hidden;html=1;whiteSpace=wrap;" parent="u9_DgnW9MWbPoVuvquEk-167" vertex="1">
          <mxGeometry width="60" height="30" as="geometry">
            <mxRectangle width="60" height="30" as="alternateBounds" />
          </mxGeometry>
        </mxCell>
        <mxCell id="u9_DgnW9MWbPoVuvquEk-169" value="IdEmail" style="shape=partialRectangle;connectable=0;fillColor=none;top=0;left=0;bottom=0;right=0;align=left;spacingLeft=6;fontStyle=5;overflow=hidden;html=1;whiteSpace=wrap;" parent="u9_DgnW9MWbPoVuvquEk-167" vertex="1">
          <mxGeometry x="60" width="120" height="30" as="geometry">
            <mxRectangle width="120" height="30" as="alternateBounds" />
          </mxGeometry>
        </mxCell>
        <mxCell id="u9_DgnW9MWbPoVuvquEk-170" value="" style="shape=tableRow;horizontal=0;startSize=0;swimlaneHead=0;swimlaneBody=0;fillColor=none;collapsible=0;dropTarget=0;points=[[0,0.5],[1,0.5]];portConstraint=eastwest;top=0;left=0;right=0;bottom=1;html=1;" parent="u9_DgnW9MWbPoVuvquEk-166" vertex="1">
          <mxGeometry y="60" width="180" height="30" as="geometry" />
        </mxCell>
        <mxCell id="u9_DgnW9MWbPoVuvquEk-171" value="FK" style="shape=partialRectangle;connectable=0;fillColor=none;top=0;left=0;bottom=0;right=0;fontStyle=1;overflow=hidden;html=1;whiteSpace=wrap;" parent="u9_DgnW9MWbPoVuvquEk-170" vertex="1">
          <mxGeometry width="60" height="30" as="geometry">
            <mxRectangle width="60" height="30" as="alternateBounds" />
          </mxGeometry>
        </mxCell>
        <mxCell id="u9_DgnW9MWbPoVuvquEk-172" value="IdPessoa" style="shape=partialRectangle;connectable=0;fillColor=none;top=0;left=0;bottom=0;right=0;align=left;spacingLeft=6;fontStyle=5;overflow=hidden;html=1;whiteSpace=wrap;" parent="u9_DgnW9MWbPoVuvquEk-170" vertex="1">
          <mxGeometry x="60" width="120" height="30" as="geometry">
            <mxRectangle width="120" height="30" as="alternateBounds" />
          </mxGeometry>
        </mxCell>
        <mxCell id="u9_DgnW9MWbPoVuvquEk-173" value="" style="shape=tableRow;horizontal=0;startSize=0;swimlaneHead=0;swimlaneBody=0;fillColor=none;collapsible=0;dropTarget=0;points=[[0,0.5],[1,0.5]];portConstraint=eastwest;top=0;left=0;right=0;bottom=0;html=1;" parent="u9_DgnW9MWbPoVuvquEk-166" vertex="1">
          <mxGeometry y="90" width="180" height="30" as="geometry" />
        </mxCell>
        <mxCell id="u9_DgnW9MWbPoVuvquEk-174" value="" style="shape=partialRectangle;connectable=0;fillColor=none;top=0;left=0;bottom=0;right=0;editable=1;overflow=hidden;html=1;whiteSpace=wrap;" parent="u9_DgnW9MWbPoVuvquEk-173" vertex="1">
          <mxGeometry width="60" height="30" as="geometry">
            <mxRectangle width="60" height="30" as="alternateBounds" />
          </mxGeometry>
        </mxCell>
        <mxCell id="u9_DgnW9MWbPoVuvquEk-175" value="EmailUser" style="shape=partialRectangle;connectable=0;fillColor=none;top=0;left=0;bottom=0;right=0;align=left;spacingLeft=6;overflow=hidden;html=1;whiteSpace=wrap;" parent="u9_DgnW9MWbPoVuvquEk-173" vertex="1">
          <mxGeometry x="60" width="120" height="30" as="geometry">
            <mxRectangle width="120" height="30" as="alternateBounds" />
          </mxGeometry>
        </mxCell>
        <mxCell id="u9_DgnW9MWbPoVuvquEk-176" value="" style="edgeStyle=entityRelationEdgeStyle;fontSize=12;html=1;endArrow=ERoneToMany;rounded=0;exitX=1;exitY=0.5;exitDx=0;exitDy=0;entryX=0;entryY=0.5;entryDx=0;entryDy=0;" parent="1" source="u9_DgnW9MWbPoVuvquEk-124" target="u9_DgnW9MWbPoVuvquEk-157" edge="1">
          <mxGeometry width="100" height="100" relative="1" as="geometry">
            <mxPoint x="357" y="1390" as="sourcePoint" />
            <mxPoint x="457" y="1290" as="targetPoint" />
          </mxGeometry>
        </mxCell>
        <mxCell id="u9_DgnW9MWbPoVuvquEk-177" value="" style="edgeStyle=entityRelationEdgeStyle;fontSize=12;html=1;endArrow=ERoneToMany;rounded=0;exitX=1;exitY=0.5;exitDx=0;exitDy=0;entryX=0;entryY=0.5;entryDx=0;entryDy=0;" parent="1" source="u9_DgnW9MWbPoVuvquEk-124" target="u9_DgnW9MWbPoVuvquEk-170" edge="1">
          <mxGeometry width="100" height="100" relative="1" as="geometry">
            <mxPoint x="297" y="1470" as="sourcePoint" />
            <mxPoint x="397" y="1370" as="targetPoint" />
          </mxGeometry>
        </mxCell>
        <mxCell id="tEooAwDjNdipXPTyzwj7-1" value="&lt;table xmlns=&quot;http://www.w3.org/1999/xhtml&quot; cellspacing=&quot;0&quot; cellpadding=&quot;0&quot; dir=&quot;ltr&quot; border=&quot;1&quot; style=&quot;table-layout:fixed;font-size:10pt;font-family:Arial;width:0px;border-collapse:collapse;border:none&quot;&gt;&lt;colgroup&gt;&lt;col width=&quot;100&quot;&gt;&lt;col width=&quot;137&quot;&gt;&lt;col width=&quot;154&quot;&gt;&lt;/colgroup&gt;&lt;tbody&gt;&lt;tr style=&quot;height:21px;&quot;&gt;&lt;td style=&quot;border-top:1px solid #000000;border-right:1px solid #000000;border-bottom:1px solid #000000;border-left:1px solid #000000;overflow:hidden;padding:2px 3px 2px 3px;vertical-align:bottom;text-align:center;&quot; rowspan=&quot;1&quot; colspan=&quot;3&quot; data-sheets-value=&quot;{&amp;quot;1&amp;quot;:2,&amp;quot;2&amp;quot;:&amp;quot;Pessoa&amp;quot;}&quot;&gt;Pessoa&lt;/td&gt;&lt;/tr&gt;&lt;tr style=&quot;height:21px;&quot;&gt;&lt;td style=&quot;border-right:1px solid #000000;border-bottom:1px solid #000000;border-left:1px solid #000000;overflow:hidden;padding:2px 3px 2px 3px;vertical-align:bottom;text-align:center;&quot; data-sheets-value=&quot;{&amp;quot;1&amp;quot;:2,&amp;quot;2&amp;quot;:&amp;quot;IdPessoa&amp;quot;}&quot;&gt;IdPessoa&lt;/td&gt;&lt;td style=&quot;border-right:1px solid #000000;border-bottom:1px solid #000000;overflow:hidden;padding:2px 3px 2px 3px;vertical-align:bottom;text-align:center;&quot; data-sheets-value=&quot;{&amp;quot;1&amp;quot;:2,&amp;quot;2&amp;quot;:&amp;quot;Nome&amp;quot;}&quot;&gt;Nome&lt;/td&gt;&lt;td style=&quot;border-right:1px solid #000000;border-bottom:1px solid #000000;overflow:hidden;padding:2px 3px 2px 3px;vertical-align:bottom;text-align:center;&quot; data-sheets-value=&quot;{&amp;quot;1&amp;quot;:2,&amp;quot;2&amp;quot;:&amp;quot;Cnh&amp;quot;}&quot;&gt;Cnh&lt;/td&gt;&lt;/tr&gt;&lt;tr style=&quot;height:21px;&quot;&gt;&lt;td style=&quot;border-right:1px solid #000000;border-bottom:1px solid #000000;border-left:1px solid #000000;overflow:hidden;padding:2px 3px 2px 3px;vertical-align:bottom;text-align:center;&quot; data-sheets-value=&quot;{&amp;quot;1&amp;quot;:3,&amp;quot;3&amp;quot;:12}&quot;&gt;1&lt;/td&gt;&lt;td style=&quot;border-right:1px solid #000000;border-bottom:1px solid #000000;overflow:hidden;padding:2px 3px 2px 3px;vertical-align:bottom;&quot; data-sheets-value=&quot;{&amp;quot;1&amp;quot;:2,&amp;quot;2&amp;quot;:&amp;quot;Lucas&amp;quot;}&quot;&gt;Lucas&lt;/td&gt;&lt;td style=&quot;border-right:1px solid #000000;border-bottom:1px solid #000000;overflow:hidden;padding:2px 3px 2px 3px;vertical-align:bottom;text-align:right;&quot; data-sheets-value=&quot;{&amp;quot;1&amp;quot;:3,&amp;quot;3&amp;quot;:54321}&quot;&gt;54321&lt;/td&gt;&lt;/tr&gt;&lt;tr style=&quot;height:21px;&quot;&gt;&lt;td style=&quot;border-right:1px solid #000000;border-bottom:1px solid #000000;border-left:1px solid #000000;overflow:hidden;padding:2px 3px 2px 3px;vertical-align:bottom;text-align:center;&quot; data-sheets-value=&quot;{&amp;quot;1&amp;quot;:3,&amp;quot;3&amp;quot;:23}&quot;&gt;2&lt;/td&gt;&lt;td style=&quot;border-right:1px solid #000000;border-bottom:1px solid #000000;overflow:hidden;padding:2px 3px 2px 3px;vertical-align:bottom;&quot; data-sheets-value=&quot;{&amp;quot;1&amp;quot;:2,&amp;quot;2&amp;quot;:&amp;quot;Paulo&amp;quot;}&quot;&gt;Paulo&lt;/td&gt;&lt;td style=&quot;border-right:1px solid #000000;border-bottom:1px solid #000000;overflow:hidden;padding:2px 3px 2px 3px;vertical-align:bottom;text-align:right;&quot; data-sheets-value=&quot;{&amp;quot;1&amp;quot;:3,&amp;quot;3&amp;quot;:12345}&quot;&gt;12345&lt;/td&gt;&lt;/tr&gt;&lt;tr style=&quot;height:21px;&quot;&gt;&lt;td style=&quot;border-right:1px solid #000000;border-bottom:1px solid #000000;border-left:1px solid #000000;overflow:hidden;padding:2px 3px 2px 3px;vertical-align:bottom;text-align:center;&quot; data-sheets-value=&quot;{&amp;quot;1&amp;quot;:3,&amp;quot;3&amp;quot;:34}&quot;&gt;3&lt;/td&gt;&lt;td style=&quot;border-right:1px solid #000000;border-bottom:1px solid #000000;overflow:hidden;padding:2px 3px 2px 3px;vertical-align:bottom;&quot; data-sheets-value=&quot;{&amp;quot;1&amp;quot;:2,&amp;quot;2&amp;quot;:&amp;quot;Carlos&amp;quot;}&quot;&gt;Carlos&lt;/td&gt;&lt;td style=&quot;border-right:1px solid #000000;border-bottom:1px solid #000000;overflow:hidden;padding:2px 3px 2px 3px;vertical-align:bottom;text-align:right;&quot; data-sheets-value=&quot;{&amp;quot;1&amp;quot;:3,&amp;quot;3&amp;quot;:67890}&quot;&gt;67890&lt;/td&gt;&lt;/tr&gt;&lt;tr style=&quot;height:21px;&quot;&gt;&lt;td style=&quot;border-right:1px solid #000000;border-bottom:1px solid #000000;border-left:1px solid #000000;overflow:hidden;padding:2px 3px 2px 3px;vertical-align:bottom;text-align:center;&quot; data-sheets-value=&quot;{&amp;quot;1&amp;quot;:3,&amp;quot;3&amp;quot;:45}&quot;&gt;4&lt;/td&gt;&lt;td style=&quot;border-right:1px solid #000000;border-bottom:1px solid #000000;overflow:hidden;padding:2px 3px 2px 3px;vertical-align:bottom;&quot; data-sheets-value=&quot;{&amp;quot;1&amp;quot;:2,&amp;quot;2&amp;quot;:&amp;quot;Eduardo&amp;quot;}&quot;&gt;Eduardo&lt;/td&gt;&lt;td style=&quot;border-right:1px solid #000000;border-bottom:1px solid #000000;overflow:hidden;padding:2px 3px 2px 3px;vertical-align:bottom;text-align:right;&quot; data-sheets-value=&quot;{&amp;quot;1&amp;quot;:3,&amp;quot;3&amp;quot;:76456}&quot;&gt;76456&lt;/td&gt;&lt;/tr&gt;&lt;tr style=&quot;height:21px;&quot;&gt;&lt;td style=&quot;border-bottom:1px solid #000000;overflow:hidden;padding:2px 3px 2px 3px;vertical-align:bottom;&quot;&gt;&lt;/td&gt;&lt;td style=&quot;border-bottom:1px solid #000000;overflow:hidden;padding:2px 3px 2px 3px;vertical-align:bottom;&quot;&gt;&lt;/td&gt;&lt;td style=&quot;border-bottom:1px solid #000000;overflow:hidden;padding:2px 3px 2px 3px;vertical-align:bottom;&quot;&gt;&lt;/td&gt;&lt;/tr&gt;&lt;tr style=&quot;height:21px;&quot;&gt;&lt;td style=&quot;border-right:1px solid #000000;border-bottom:1px solid #000000;border-left:1px solid #000000;overflow:hidden;padding:2px 3px 2px 3px;vertical-align:bottom;text-align:center;&quot; rowspan=&quot;1&quot; colspan=&quot;3&quot; data-sheets-value=&quot;{&amp;quot;1&amp;quot;:2,&amp;quot;2&amp;quot;:&amp;quot;Telefone&amp;quot;}&quot;&gt;Telefone&lt;/td&gt;&lt;/tr&gt;&lt;tr style=&quot;height:21px;&quot;&gt;&lt;td style=&quot;border-right:1px solid #000000;border-bottom:1px solid #000000;border-left:1px solid #000000;overflow:hidden;padding:2px 3px 2px 3px;vertical-align:bottom;&quot; data-sheets-value=&quot;{&amp;quot;1&amp;quot;:2,&amp;quot;2&amp;quot;:&amp;quot;IdTelefone&amp;quot;}&quot;&gt;IdTelefone&lt;/td&gt;&lt;td style=&quot;border-right:1px solid #000000;border-bottom:1px solid #000000;overflow:hidden;padding:2px 3px 2px 3px;vertical-align:bottom;&quot; data-sheets-value=&quot;{&amp;quot;1&amp;quot;:2,&amp;quot;2&amp;quot;:&amp;quot;IdPessoa&amp;quot;}&quot;&gt;IdPessoa&lt;/td&gt;&lt;td style=&quot;border-right:1px solid #000000;border-bottom:1px solid #000000;overflow:hidden;padding:2px 3px 2px 3px;vertical-align:bottom;&quot; data-sheets-value=&quot;{&amp;quot;1&amp;quot;:2,&amp;quot;2&amp;quot;:&amp;quot;Número&amp;quot;}&quot;&gt;Número&lt;/td&gt;&lt;/tr&gt;&lt;tr style=&quot;height:21px;&quot;&gt;&lt;td style=&quot;border-right:1px solid #000000;border-bottom:1px solid #000000;border-left:1px solid #000000;overflow:hidden;padding:2px 3px 2px 3px;vertical-align:bottom;text-align:center;&quot; data-sheets-value=&quot;{&amp;quot;1&amp;quot;:3,&amp;quot;3&amp;quot;:1}&quot;&gt;5&lt;/td&gt;&lt;td style=&quot;border-right:1px solid #000000;border-bottom:1px solid #000000;overflow:hidden;padding:2px 3px 2px 3px;vertical-align:bottom;&quot; data-sheets-value=&quot;{&amp;quot;1&amp;quot;:3,&amp;quot;3&amp;quot;:12}&quot;&gt;1&lt;/td&gt;&lt;td style=&quot;border-right:1px solid #000000;border-bottom:1px solid #000000;overflow:hidden;padding:2px 3px 2px 3px;vertical-align:bottom;text-align:right;&quot; data-sheets-value=&quot;{&amp;quot;1&amp;quot;:2,&amp;quot;2&amp;quot;:&amp;quot;5555-5555&amp;quot;}&quot;&gt;5555-5555&lt;/td&gt;&lt;/tr&gt;&lt;tr style=&quot;height:21px;&quot;&gt;&lt;td style=&quot;border-right:1px solid #000000;border-bottom:1px solid #000000;border-left:1px solid #000000;overflow:hidden;padding:2px 3px 2px 3px;vertical-align:bottom;text-align:center;&quot; data-sheets-value=&quot;{&amp;quot;1&amp;quot;:3,&amp;quot;3&amp;quot;:2}&quot;&gt;6&lt;/td&gt;&lt;td style=&quot;border-right:1px solid #000000;border-bottom:1px solid #000000;overflow:hidden;padding:2px 3px 2px 3px;vertical-align:bottom;&quot; data-sheets-value=&quot;{&amp;quot;1&amp;quot;:3,&amp;quot;3&amp;quot;:23}&quot;&gt;2&lt;/td&gt;&lt;td style=&quot;border-right:1px solid #000000;border-bottom:1px solid #000000;overflow:hidden;padding:2px 3px 2px 3px;vertical-align:bottom;text-align:right;&quot; data-sheets-value=&quot;{&amp;quot;1&amp;quot;:2,&amp;quot;2&amp;quot;:&amp;quot;4444-4444&amp;quot;}&quot;&gt;4444-4444&lt;/td&gt;&lt;/tr&gt;&lt;tr style=&quot;height:21px;&quot;&gt;&lt;td style=&quot;border-right:1px solid #000000;border-bottom:1px solid #000000;border-left:1px solid #000000;overflow:hidden;padding:2px 3px 2px 3px;vertical-align:bottom;text-align:center;&quot; data-sheets-value=&quot;{&amp;quot;1&amp;quot;:3,&amp;quot;3&amp;quot;:3}&quot;&gt;7&lt;/td&gt;&lt;td style=&quot;border-right:1px solid #000000;border-bottom:1px solid #000000;overflow:hidden;padding:2px 3px 2px 3px;vertical-align:bottom;&quot; data-sheets-value=&quot;{&amp;quot;1&amp;quot;:3,&amp;quot;3&amp;quot;:45}&quot;&gt;3&lt;/td&gt;&lt;td style=&quot;border-right:1px solid #000000;border-bottom:1px solid #000000;overflow:hidden;padding:2px 3px 2px 3px;vertical-align:bottom;text-align:right;&quot; data-sheets-value=&quot;{&amp;quot;1&amp;quot;:2,&amp;quot;2&amp;quot;:&amp;quot;3333-3333&amp;quot;}&quot;&gt;3333-3333&lt;/td&gt;&lt;/tr&gt;&lt;tr style=&quot;height:21px;&quot;&gt;&lt;td style=&quot;border-right:1px solid #000000;border-bottom:1px solid #000000;border-left:1px solid #000000;overflow:hidden;padding:2px 3px 2px 3px;vertical-align:bottom;text-align:center;&quot; data-sheets-value=&quot;{&amp;quot;1&amp;quot;:3,&amp;quot;3&amp;quot;:4}&quot;&gt;8&lt;/td&gt;&lt;td style=&quot;border-right:1px solid #000000;border-bottom:1px solid #000000;overflow:hidden;padding:2px 3px 2px 3px;vertical-align:bottom;&quot; data-sheets-value=&quot;{&amp;quot;1&amp;quot;:3,&amp;quot;3&amp;quot;:34}&quot;&gt;4&lt;/td&gt;&lt;td style=&quot;border-right:1px solid #000000;border-bottom:1px solid #000000;overflow:hidden;padding:2px 3px 2px 3px;vertical-align:bottom;text-align:right;&quot; data-sheets-value=&quot;{&amp;quot;1&amp;quot;:2,&amp;quot;2&amp;quot;:&amp;quot;2222-2222&amp;quot;}&quot;&gt;2222-2222&lt;/td&gt;&lt;/tr&gt;&lt;tr style=&quot;height:21px;&quot;&gt;&lt;td style=&quot;border-bottom:1px solid #000000;overflow:hidden;padding:2px 3px 2px 3px;vertical-align:bottom;&quot;&gt;&lt;/td&gt;&lt;td style=&quot;border-bottom:1px solid #000000;overflow:hidden;padding:2px 3px 2px 3px;vertical-align:bottom;&quot;&gt;&lt;/td&gt;&lt;td style=&quot;border-bottom:1px solid #000000;overflow:hidden;padding:2px 3px 2px 3px;vertical-align:bottom;&quot;&gt;&lt;/td&gt;&lt;/tr&gt;&lt;tr style=&quot;height:21px;&quot;&gt;&lt;td style=&quot;border-right:1px solid #000000;border-bottom:1px solid #000000;border-left:1px solid #000000;overflow:hidden;padding:2px 3px 2px 3px;vertical-align:bottom;text-align:center;&quot; rowspan=&quot;1&quot; colspan=&quot;3&quot; data-sheets-value=&quot;{&amp;quot;1&amp;quot;:2,&amp;quot;2&amp;quot;:&amp;quot;Email&amp;quot;}&quot;&gt;Email&lt;/td&gt;&lt;/tr&gt;&lt;tr style=&quot;height:21px;&quot;&gt;&lt;td style=&quot;border-right:1px solid #000000;border-bottom:1px solid #000000;border-left:1px solid #000000;overflow:hidden;padding:2px 3px 2px 3px;vertical-align:bottom;&quot; data-sheets-value=&quot;{&amp;quot;1&amp;quot;:2,&amp;quot;2&amp;quot;:&amp;quot;IdEmail&amp;quot;}&quot;&gt;IdEmail&lt;/td&gt;&lt;td style=&quot;border-right:1px solid #000000;border-bottom:1px solid #000000;overflow:hidden;padding:2px 3px 2px 3px;vertical-align:bottom;&quot; data-sheets-value=&quot;{&amp;quot;1&amp;quot;:2,&amp;quot;2&amp;quot;:&amp;quot;IdPessoa&amp;quot;}&quot;&gt;IdPessoa&lt;/td&gt;&lt;td style=&quot;border-right:1px solid #000000;border-bottom:1px solid #000000;overflow:hidden;padding:2px 3px 2px 3px;vertical-align:bottom;&quot; data-sheets-value=&quot;{&amp;quot;1&amp;quot;:2,&amp;quot;2&amp;quot;:&amp;quot;EmailUser&amp;quot;}&quot;&gt;EmailUser&lt;/td&gt;&lt;/tr&gt;&lt;tr style=&quot;height:21px;&quot;&gt;&lt;td style=&quot;border-right:1px solid #000000;border-bottom:1px solid #000000;border-left:1px solid #000000;overflow:hidden;padding:2px 3px 2px 3px;vertical-align:bottom;&quot; data-sheets-value=&quot;{&amp;quot;1&amp;quot;:3,&amp;quot;3&amp;quot;:5}&quot;&gt;9&lt;/td&gt;&lt;td style=&quot;border-right:1px solid #000000;border-bottom:1px solid #000000;overflow:hidden;padding:2px 3px 2px 3px;vertical-align:bottom;&quot; data-sheets-value=&quot;{&amp;quot;1&amp;quot;:3,&amp;quot;3&amp;quot;:12}&quot;&gt;1&lt;/td&gt;&lt;td style=&quot;border-right:1px solid #000000;border-bottom:1px solid #000000;overflow:hidden;padding:2px 3px 2px 3px;vertical-align:bottom;&quot; data-sheets-value=&quot;{&amp;quot;1&amp;quot;:2,&amp;quot;2&amp;quot;:&amp;quot;lucas@gmail.com&amp;quot;}&quot;&gt;lucas@gmail.com&lt;/td&gt;&lt;/tr&gt;&lt;tr style=&quot;height:21px;&quot;&gt;&lt;td style=&quot;border-right:1px solid #000000;border-bottom:1px solid #000000;border-left:1px solid #000000;overflow:hidden;padding:2px 3px 2px 3px;vertical-align:bottom;&quot; data-sheets-value=&quot;{&amp;quot;1&amp;quot;:3,&amp;quot;3&amp;quot;:6}&quot;&gt;10&lt;/td&gt;&lt;td style=&quot;border-right:1px solid #000000;border-bottom:1px solid #000000;overflow:hidden;padding:2px 3px 2px 3px;vertical-align:bottom;&quot; data-sheets-value=&quot;{&amp;quot;1&amp;quot;:3,&amp;quot;3&amp;quot;:23}&quot;&gt;2&lt;/td&gt;&lt;td style=&quot;border-right:1px solid #000000;border-bottom:1px solid #000000;overflow:hidden;padding:2px 3px 2px 3px;vertical-align:bottom;&quot; data-sheets-value=&quot;{&amp;quot;1&amp;quot;:2,&amp;quot;2&amp;quot;:&amp;quot;paulo@gmail.com&amp;quot;}&quot;&gt;paulo@gmail.com&lt;/td&gt;&lt;/tr&gt;&lt;tr style=&quot;height:21px;&quot;&gt;&lt;td style=&quot;border-right:1px solid #000000;border-bottom:1px solid #000000;border-left:1px solid #000000;overflow:hidden;padding:2px 3px 2px 3px;vertical-align:bottom;&quot; data-sheets-value=&quot;{&amp;quot;1&amp;quot;:3,&amp;quot;3&amp;quot;:7}&quot;&gt;11&lt;/td&gt;&lt;td style=&quot;border-right:1px solid #000000;border-bottom:1px solid #000000;overflow:hidden;padding:2px 3px 2px 3px;vertical-align:bottom;&quot; data-sheets-value=&quot;{&amp;quot;1&amp;quot;:3,&amp;quot;3&amp;quot;:45}&quot;&gt;4&lt;/td&gt;&lt;td style=&quot;border-right:1px solid #000000;border-bottom:1px solid #000000;overflow:hidden;padding:2px 3px 2px 3px;vertical-align:bottom;&quot; data-sheets-value=&quot;{&amp;quot;1&amp;quot;:2,&amp;quot;2&amp;quot;:&amp;quot;eduardo@gmail.com&amp;quot;}&quot;&gt;eduardo@gmail.com&lt;/td&gt;&lt;/tr&gt;&lt;tr style=&quot;height:21px;&quot;&gt;&lt;td style=&quot;border-right:1px solid #000000;border-bottom:1px solid #000000;border-left:1px solid #000000;overflow:hidden;padding:2px 3px 2px 3px;vertical-align:bottom;&quot; data-sheets-value=&quot;{&amp;quot;1&amp;quot;:3,&amp;quot;3&amp;quot;:8}&quot;&gt;12&lt;/td&gt;&lt;td style=&quot;border-right:1px solid #000000;border-bottom:1px solid #000000;overflow:hidden;padding:2px 3px 2px 3px;vertical-align:bottom;&quot; data-sheets-value=&quot;{&amp;quot;1&amp;quot;:3,&amp;quot;3&amp;quot;:34}&quot;&gt;3&lt;/td&gt;&lt;td style=&quot;border-right:1px solid #000000;border-bottom:1px solid #000000;overflow:hidden;padding:2px 3px 2px 3px;vertical-align:bottom;&quot; data-sheets-value=&quot;{&amp;quot;1&amp;quot;:2,&amp;quot;2&amp;quot;:&amp;quot;carlos@gmail.com&amp;quot;}&quot;&gt;carlos@gmail.com&lt;/td&gt;&lt;/tr&gt;&lt;/tbody&gt;&lt;/table&gt;" style="text;whiteSpace=wrap;html=1;" parent="1" vertex="1">
          <mxGeometry x="199" y="1690" width="430" height="440" as="geometry" />
        </mxCell>
        <mxCell id="E40hc0m_EbYzdo3mqkeG-2" value="&lt;font style=&quot;font-size: 14px;&quot;&gt;&lt;font style=&quot;vertical-align: inherit;&quot;&gt;&lt;font style=&quot;vertical-align: inherit;&quot;&gt;&lt;font style=&quot;vertical-align: inherit; font-size: 21px;&quot;&gt;&lt;font style=&quot;vertical-align: inherit; font-size: 21px;&quot;&gt;&lt;font style=&quot;vertical-align: inherit; font-size: 21px;&quot;&gt;&lt;font style=&quot;vertical-align: inherit; font-size: 21px;&quot;&gt;&lt;font style=&quot;vertical-align: inherit;&quot;&gt;&lt;font style=&quot;vertical-align: inherit;&quot;&gt;CONCEITUAL&lt;/font&gt;&lt;/font&gt;&lt;/font&gt;&lt;/font&gt;&lt;/font&gt;&lt;/font&gt;&lt;/font&gt;&lt;/font&gt;&lt;/font&gt;" style="rounded=0;whiteSpace=wrap;html=1;labelBackgroundColor=none;fontSize=14;fillColor=#fad9d5;strokeColor=#ae4132;gradientDirection=east;" vertex="1" parent="1">
          <mxGeometry x="240" y="420" width="320" height="85" as="geometry" />
        </mxCell>
        <mxCell id="E40hc0m_EbYzdo3mqkeG-3" value="&lt;font style=&quot;font-size: 14px;&quot;&gt;&lt;font style=&quot;vertical-align: inherit;&quot;&gt;&lt;font style=&quot;vertical-align: inherit;&quot;&gt;&lt;font style=&quot;vertical-align: inherit; font-size: 21px;&quot;&gt;&lt;font style=&quot;vertical-align: inherit; font-size: 21px;&quot;&gt;&lt;font style=&quot;vertical-align: inherit; font-size: 21px;&quot;&gt;&lt;font style=&quot;vertical-align: inherit; font-size: 21px;&quot;&gt;&lt;font style=&quot;vertical-align: inherit;&quot;&gt;&lt;font style=&quot;vertical-align: inherit;&quot;&gt;&lt;font style=&quot;vertical-align: inherit;&quot;&gt;&lt;font style=&quot;vertical-align: inherit;&quot;&gt;&lt;font style=&quot;vertical-align: inherit;&quot;&gt;&lt;font style=&quot;vertical-align: inherit;&quot;&gt;LÓGICO&lt;/font&gt;&lt;/font&gt;&lt;/font&gt;&lt;/font&gt;&lt;/font&gt;&lt;/font&gt;&lt;/font&gt;&lt;/font&gt;&lt;/font&gt;&lt;/font&gt;&lt;/font&gt;&lt;/font&gt;&lt;/font&gt;" style="rounded=0;whiteSpace=wrap;html=1;labelBackgroundColor=none;fontSize=14;fillColor=#fad9d5;strokeColor=#ae4132;gradientDirection=east;" vertex="1" parent="1">
          <mxGeometry x="240" y="1030" width="320" height="85" as="geometry" />
        </mxCell>
        <mxCell id="E40hc0m_EbYzdo3mqkeG-4" value="&lt;span style=&quot;font-size: 21px;&quot;&gt;&lt;font style=&quot;vertical-align: inherit;&quot;&gt;&lt;font style=&quot;vertical-align: inherit;&quot;&gt;FÍSICO&lt;/font&gt;&lt;/font&gt;&lt;/span&gt;" style="rounded=0;whiteSpace=wrap;html=1;labelBackgroundColor=none;fontSize=14;fillColor=#fad9d5;strokeColor=#ae4132;gradientDirection=east;" vertex="1" parent="1">
          <mxGeometry x="240" y="1570" width="320" height="85" as="geometry" />
        </mxCell>
      </root>
    </mxGraphModel>
  </diagram>
</mxfile>
